<!-- Generated by IcoMoon.io -->
<svg version="1.1" xmlns="http://www.w3.org/2000/svg" width="32" height="32" viewBox="0 0 32 32">
<title>-fitness-ball</title>
<path d="M16 13.013q-1.813 0-3.307 0.907t-2.4 2.4-0.907 3.307 0.907 3.307 2.4 2.4 3.307 0.907 3.307-0.907 2.4-2.4 0.907-3.307-0.907-3.307-2.4-2.4-3.307-0.907zM16 25.493q-2.453 0-4.16-1.707t-1.707-4.16 1.707-4.16 4.16-1.707 4.16 1.707 1.707 4.16-1.707 4.16-4.16 1.707zM13.973 15.467q-0.213 0.213-0.427 0.32t-0.213 0.32 0.213 0.32 0.32 0l0.427-0.213q0.213-0.107 0.267-0.267t-0.053-0.267-0.267-0.16-0.267-0.053zM13.653 22.613q-1.28-0.96-1.44-2.56t0.8-2.88q0.213-0.107 0.107-0.32t-0.32-0.267-0.32 0.16q-1.28 1.387-1.067 3.307t1.707 3.093q0.107 0.107 0.267 0.107t0.267-0.107 0.107-0.267-0.107-0.267zM27.307 10.027q0-0.107-0.107-0.267t-0.213-0.16l0.64-3.2q0.213-1.067-0.053-2.080t-0.96-1.867-1.653-1.333-2.027-0.48h-13.867q-1.067 0-2.027 0.48t-1.653 1.333-0.96 1.867-0.053 2.080l0.64 3.2q-0.107 0-0.213 0.16t-0.107 0.267l0.96 4.053q-1.387 2.56-1.387 5.547 0 3.2 1.6 5.867t4.267 4.267 5.867 1.6 5.867-1.6 4.267-4.267 1.6-5.867q0-2.987-1.387-5.547zM25.493 14.293q0 0.427-0.32 0.747t-0.747 0.373-0.8-0.107-0.64-0.587-0.16-0.96l0.853-4.16 2.773 0.64zM16 7.893q-3.84 0-6.827 2.24l-0.213-1.067q-0.107-0.213-0.427-0.213l-0.64-3.2q-0.107-0.533 0.267-0.96t0.907-0.427h13.867q0.533 0 0.907 0.427t0.267 0.96l-0.64 3.2q-0.32 0-0.427 0.213l-0.213 1.067q-2.987-2.24-6.827-2.24zM5.973 2.88q0.533-0.64 1.333-1.067t1.76-0.427h13.867q0.96 0 1.76 0.427t1.387 1.12 0.8 1.547 0 1.813l-0.64 3.093-2.027-0.427 0.64-3.093q0.213-0.96-0.373-1.653t-1.547-0.693h-13.867q-0.96 0-1.547 0.693t-0.373 1.653l0.64 3.093-2.027 0.427-0.64-3.093q-0.213-0.96 0-1.813t0.853-1.6zM5.547 10.24l2.773-0.64 0.853 4.16q0.107 0.533-0.213 1.013t-0.853 0.64-1.013-0.16-0.587-0.96zM26.987 19.627q0 2.987-1.493 5.493t-4 4-5.493 1.493-5.493-1.493-4-4-1.493-5.493q0-2.347 0.96-4.48 0.32 0.533 0.96 0.853t1.44 0.107 1.28-0.907 0.267-1.653l-0.64-2.667q2.987-2.24 6.72-2.24t6.72 2.24l-0.64 2.667q-0.213 0.96 0.267 1.653t1.28 0.907 1.44-0.107 0.96-0.853q0.96 2.133 0.96 4.48z"></path>
</svg>
