<!-- Generated by IcoMoon.io -->
<svg version="1.1" xmlns="http://www.w3.org/2000/svg" width="32" height="32" viewBox="0 0 32 32">
<title>-protein</title>
<path d="M7.467 15.253q-0.213 0-0.32 0.107t-0.107 0.32v6.613q0 0.107 0.107 0.213t0.267 0.107 0.267-0.107 0.107-0.213v-6.613q0-0.213-0.107-0.32t-0.213-0.107zM7.467 13.653q-0.213 0-0.32 0.107t-0.107 0.32v0.32q0 0.107 0.107 0.213t0.267 0.107 0.267-0.107 0.107-0.213v-0.32q0-0.213-0.107-0.32t-0.213-0.107zM14.293 22.72v0q0.213 0 0.427-0.107v0.213q0 0.427 0.373 0.8t0.907 0.373v0q0.533 0 0.853-0.373t0.32-0.8v-1.173h3.733v1.173q0 0.427 0.373 0.8t0.907 0.373v0q0.533 0 0.907-0.373t0.373-0.8v-0.213q0.213 0.107 0.427 0.107v0q0.533 0 0.853-0.32t0.427-0.853v-2.133q0-0.427-0.373-0.8t-0.907-0.373q-0.213 0-0.427 0.107v-0.213q0-0.427-0.373-0.8t-0.907-0.373-0.907 0.373-0.373 0.8v1.173h-3.733v-1.173q0-0.427-0.373-0.8t-0.853-0.373-0.853 0.373-0.373 0.8v0.213q-0.213-0.107-0.427-0.107-0.533 0-0.907 0.373t-0.373 0.8v2.133q0 0.533 0.373 0.853t0.907 0.32zM23.467 19.413q0-0.107 0.107-0.267t0.32-0.16 0.373 0.16 0.16 0.267v2.133q-0.107 0.213-0.213 0.32t-0.32 0.107v0q-0.213 0-0.32-0.107t-0.107-0.32v-2.133zM21.653 18.133q0-0.107 0.16-0.267t0.373-0.16 0.373 0.16 0.16 0.267v4.693q0 0.213-0.16 0.32t-0.373 0.107v0q-0.213 0-0.373-0.107t-0.16-0.32v-4.693zM17.173 20.053h3.733v0.853h-3.733v-0.853zM15.467 21.547v-3.413q0-0.107 0.16-0.267t0.373-0.16 0.32 0.16 0.107 0.267v4.693q0 0.213-0.107 0.32t-0.32 0.107v0q-0.213 0-0.373-0.107t-0.16-0.32v-1.28zM13.76 19.413q0-0.107 0.16-0.267t0.373-0.16 0.32 0.16 0.107 0.267v2.133q0 0.213-0.107 0.32t-0.32 0.107v0q-0.213 0-0.32-0.107t-0.213-0.32v-2.133zM23.467 8.107v-2.133h0.64q0.213 0 0.32-0.107t0.107-0.213v-3.84q0-0.427-0.373-0.8t-0.8-0.373h-14.4q-0.533 0-0.853 0.373t-0.32 0.8v3.84q0 0.107 0.107 0.213t0.213 0.107h0.427v2.133q-1.493 0.64-2.347 1.973t-0.853 2.933v15.36q0 1.173 0.853 2.080t2.027 0.907h15.573q1.173 0 2.027-0.907t0.853-2.080v-15.36q0-1.6-0.853-2.987t-2.347-1.92zM8.533 1.813q0-0.107 0.107-0.267t0.213-0.16h14.507q0.107 0 0.267 0.16t0.16 0.267v3.413h-11.093q-0.213 0-0.32 0.107t-0.107 0.267 0.107 0.267 0.32 0.107h10.027v1.92h-13.44v-1.92h0.96q0.107 0 0.213-0.107t0.107-0.267-0.107-0.267-0.213-0.107h-1.707v-3.413zM25.92 26.773h-14.187v-12.693h14.187v12.693zM25.92 13.333h-14.507q-0.213 0-0.32 0.16t-0.107 0.267v13.333q0 0.213 0.107 0.32t0.32 0.107h14.507v0.853q0 0.96-0.64 1.6t-1.493 0.64h-15.573q-0.853 0-1.493-0.64t-0.64-1.6v-15.36q0-1.387 0.8-2.56t2.080-1.813h14.080q1.28 0.533 2.080 1.76t0.8 2.613v0.32z"></path>
</svg>
