<?xml version="1.0" encoding="UTF-8" standalone="no"?>
<!-- Uploaded to: SVG Repo, www.svgrepo.com, Transformed by: SVG Repo Mixer Tools -->

<svg
   width="733.33301"
   height="733.33301"
   viewBox="0 0 43.999981 43.999981"
   version="1.1"
   id="svg13"
   sodipodi:docname="twitter.svg"
   inkscape:version="1.2.2 (1:1.2.2+202212051550+b0a8486541)"
   xmlns:inkscape="http://www.inkscape.org/namespaces/inkscape"
   xmlns:sodipodi="http://sodipodi.sourceforge.net/DTD/sodipodi-0.dtd"
   xmlns="http://www.w3.org/2000/svg"
   xmlns:svg="http://www.w3.org/2000/svg"
   xmlns:rdf="http://www.w3.org/1999/02/22-rdf-syntax-ns#"
   xmlns:cc="http://creativecommons.org/ns#"
   xmlns:dc="http://purl.org/dc/elements/1.1/">
  <defs
     id="defs17" />
  <sodipodi:namedview
     id="namedview15"
     pagecolor="#ffffff"
     bordercolor="#666666"
     borderopacity="1.0"
     inkscape:showpageshadow="2"
     inkscape:pageopacity="0.0"
     inkscape:pagecheckerboard="0"
     inkscape:deskcolor="#d1d1d1"
     showgrid="false"
     inkscape:zoom="1.28375"
     inkscape:cx="243.03797"
     inkscape:cy="298.34469"
     inkscape:window-width="3440"
     inkscape:window-height="1391"
     inkscape:window-x="0"
     inkscape:window-y="0"
     inkscape:window-maximized="1"
     inkscape:current-layer="Layer_2" />
  <title
     id="title2">twitter</title>
  <g
     id="Layer_2"
     data-name="Layer 2"
     transform="translate(-2,-6.0634354)">
    <g
       id="invisible_box"
       data-name="invisible box">
      <rect
         width="48"
         height="48"
         fill="none"
         id="rect4"
         x="0"
         y="0" />
      <rect
         width="48"
         height="48"
         fill="none"
         id="rect6"
         x="0"
         y="0" />
    </g>
    <g
       id="icons_Q2"
       data-name="icons Q2"
       transform="translate(0,3.96)">
      <path
         d="m 46,10.2 a 18.3,18.3 0 0 1 -5.2,1.5 9.4,9.4 0 0 0 4,-5 A 23.2,23.2 0 0 1 39.1,8.9 9.1,9.1 0 0 0 23.4,15 7.6,7.6 0 0 0 23.7,17.1 25.8,25.8 0 0 1 5.1,7.7 8.5,8.5 0 0 0 3.8,12.2 8.9,8.9 0 0 0 7.9,19.7 8.1,8.1 0 0 1 3.8,18.6 v 0 A 8.9,8.9 0 0 0 11,27.5 8.6,8.6 0 0 1 8.6,27.9 L 6.9,27.7 A 9.2,9.2 0 0 0 15.4,34 18.2,18.2 0 0 1 4.2,37.8 H 2 a 25.1,25.1 0 0 0 13.8,4.1 c 16.6,0 25.7,-13.8 25.7,-25.7 V 14.9 A 18.3,18.3 0 0 0 46,10.2 Z"
         id="path9" />
    </g>
  </g>
  <metadata
     id="metadata142">
    <rdf:RDF>
      <cc:Work
         rdf:about="">
        <dc:title>twitter</dc:title>
      </cc:Work>
    </rdf:RDF>
  </metadata>
</svg>
