<!-- Generated by IcoMoon.io -->
<svg version="1.1" xmlns="http://www.w3.org/2000/svg" width="32" height="32" viewBox="0 0 32 32">
<title>-alarm</title>
<path d="M29.973 5.973q-1.387-1.387-3.36-1.387t-3.36 1.387q-0.107 0.107-0.107 0.267t0.107 0.267l1.707 1.707q-2.347-1.6-5.12-1.813v-0.853h1.067q0.213 0 0.32-0.107t0.107-0.32v-1.067q0-0.427-0.32-0.747t-0.747-0.32h-3.093q-0.427 0-0.747 0.32t-0.32 0.747v1.067q0 0.213 0.107 0.32t0.32 0.107h1.067v0.853q-2.88 0.213-5.12 1.813l1.707-1.707q0.107-0.107 0.107-0.267t-0.107-0.267q-1.387-1.387-3.36-1.387t-3.36 1.387v0q-1.387 1.387-1.387 3.36t1.387 3.36q0.107 0.107 0.32 0.107v0q0.107 0 0.213-0.107l1.493-1.493q-1.6 2.24-1.92 5.013h-1.92v-1.493q0-0.853-0.747-1.333t-1.547-0.053-0.8 1.387q-0.32-0.107-0.533-0.107-0.533 0-0.96 0.373t-0.427 0.907v3.627q0 0.533 0.427 0.907t0.96 0.373q0.213 0 0.533-0.107 0 0.853 0.8 1.333t1.547 0 0.747-1.333v-1.493h2.027q0.427 3.093 2.453 5.44l-1.493 2.027q-0.533 0.64-0.16 1.44t1.333 0.907l0.213-0.107q0.533-0.107 0.96-0.533l1.28-1.707q2.88 2.027 6.453 2.027t6.56-2.027l1.28 1.707q0.32 0.533 0.96 0.64h0.213q0.427 0 0.747-0.213t0.533-0.587 0.16-0.8-0.267-0.747l-1.493-2.027q2.347-2.88 2.507-6.613t-1.867-6.827l1.387 1.493q0.107 0.107 0.213 0.107v0q0.213 0 0.32-0.107 1.387-1.493 1.387-3.413t-1.387-3.307zM2.56 19.627q-0.107 0.427-0.427 0.427t-0.48-0.16-0.267-0.373v-3.627q0.107-0.213 0.267-0.373t0.48-0.16 0.427 0.427v3.84zM4.907 20.693q0 0.32-0.213 0.533t-0.533 0.213-0.587-0.213-0.267-0.533v-5.973q0-0.32 0.267-0.587t0.587-0.267 0.533 0.267 0.213 0.587v5.973zM16.853 4.8v-0.747q0-0.32 0.32-0.32h3.093q0.32 0 0.32 0.32v0.747h-3.733zM19.093 5.547v0.747h-0.747v-0.747h0.747zM7.787 11.84q-0.96-1.173-0.907-2.72t1.12-2.613 2.613-1.12 2.72 0.907zM5.653 18.453v-1.493h6.613v1.493h-6.613zM10.347 27.947q-0.213 0.32-0.64 0.267t-0.587-0.427 0.053-0.693l1.387-1.813 1.067 0.853zM28.267 27.093q0.213 0.32 0.053 0.693t-0.533 0.427-0.587-0.267l-1.387-1.813 1.067-0.853zM29.227 17.493q0 2.88-1.44 5.28t-3.84 3.787-5.173 1.387q-2.56 0-4.8-1.12t-3.68-3.147-1.867-4.48h1.6q0.64 3.093 3.093 5.12t5.653 2.027q2.347 0 4.373-1.173t3.2-3.147 1.227-4.373-1.12-4.427-3.147-3.253-4.32-1.28-4.427 1.013-3.36 3.093q-0.107 0.107-0.053 0.267t0.16 0.267v0q0.213 0.107 0.32 0.053t0.213-0.16q0.427-0.64 0.853-1.173l0.533 0.533q0.107 0.107 0.267 0.107t0.267-0.107 0.107-0.267-0.107-0.267l-0.533-0.533q2.24-1.92 5.12-2.133v0.747q0 0.213 0.107 0.32t0.267 0.107 0.267-0.107 0.107-0.32v-0.747q2.987 0.213 5.12 2.133l-0.533 0.533q-0.107 0.107-0.107 0.267t0.107 0.267 0.267 0.107 0.267-0.107l0.533-0.533q1.92 2.133 2.133 5.12h-0.747q-0.213 0-0.32 0.107t-0.107 0.267 0.107 0.267 0.32 0.107h0.747q-0.213 2.88-2.133 5.013l-0.533-0.427q-0.107-0.107-0.267-0.107t-0.267 0.107-0.107 0.267 0.107 0.267l0.533 0.427q-2.133 2.027-5.12 2.133v-0.747q0-0.107-0.107-0.213t-0.267-0.107-0.267 0.107-0.107 0.213v0.747q-2.773-0.107-4.907-1.92l-0.213-0.213 0.533-0.427q0.107-0.107 0.107-0.267t-0.107-0.267-0.267-0.107-0.267 0.107l-0.533 0.427q-1.493-1.6-1.92-3.733h1.493v1.493q0 0.64 0.427 1.067t1.12 0.427 1.12-0.427 0.427-1.067q0.32 0.107 0.64 0.107 0.533 0 0.907-0.373t0.373-0.907v-3.627q0-0.533-0.373-0.907t-1.013-0.373q-0.213 0-0.533 0.107 0-0.96-0.8-1.387t-1.547 0.053-0.747 1.333v1.493h-1.493l0.107-0.747q0-0.213-0.053-0.32t-0.213-0.16-0.267 0-0.213 0.267l-0.213 0.96h-1.6q0.32-2.56 1.813-4.64t3.733-3.307 4.907-1.227q2.773 0 5.173 1.44t3.84 3.84 1.44 5.173zM13.013 20.693v-5.973q0-0.32 0.213-0.587t0.587-0.267 0.587 0.267 0.213 0.587v5.973q0 0.32-0.213 0.533t-0.587 0.213-0.587-0.213-0.213-0.533zM15.36 19.627v-3.84q0.107-0.427 0.48-0.427t0.533 0.16 0.16 0.373v3.627q0 0.213-0.16 0.373t-0.533 0.16-0.48-0.427zM29.653 11.84l-5.547-5.547q1.173-0.96 2.72-0.907t2.613 1.12 1.12 2.613-0.907 2.72zM18.667 22.293v0q0.107 0 0.213-0.16t0.107-0.267v-3.413l3.2-3.307q0.107-0.107 0.053-0.32t-0.267-0.267-0.32 0.053l-3.307 3.413q-0.107 0.107-0.107 0.32v3.52q0 0.213 0.107 0.32t0.32 0.107zM21.12 12.48q0.213 0.107 0.373 0.16t0.32-0.053 0.16-0.32-0.213-0.32l-0.427-0.107q-0.107-0.107-0.267-0.053t-0.213 0.213 0.053 0.32 0.213 0.16zM22.613 13.333q0.853 0.64 1.387 1.6t0.64 2.080-0.213 2.187-1.067 1.813q-0.213 0.213-0.107 0.427t0.32 0.267 0.32-0.16q0.853-0.96 1.227-2.133t0.267-2.453-0.693-2.347-1.653-1.92h-0.267t-0.213 0.107-0.053 0.267 0.107 0.267z"></path>
</svg>
