<!-- Generated by IcoMoon.io -->
<svg version="1.1" xmlns="http://www.w3.org/2000/svg" width="32" height="32" viewBox="0 0 32 32">
<title>-answer</title>
<path d="M25.173 0q-1.92 0-3.52 0.853t-2.507 2.347-0.907 3.253 1.067 3.253l-0.96 2.347q-0.107 0.32-0.053 0.693t0.373 0.693 0.853 0.32q0.213 0 0.533-0.107l2.773-1.28q0.96 0.32 2.347 0.32 2.773 0 4.8-1.813t2.027-4.48q0-1.707-0.907-3.2t-2.507-2.347-3.413-0.853zM25.173 10.24q-1.173 0-1.92-0.32-0.213-0.107-0.48-0.107t-0.48 0.107l-0.533 0.213 0.107-0.107q0.213-0.747-0.213-1.28-0.853-1.067-0.853-2.347 0-1.6 1.28-2.773t3.040-1.173 3.093 1.173 1.333 2.773-1.333 2.72-3.040 1.12zM30.080 27.627q0.32 1.707-0.747 3.040t-2.88 1.333h-22.827q-1.707 0-2.827-1.333t-0.693-3.040q0.533-2.56 1.867-4.8t3.413-3.947 4.747-2.56q-1.387-1.173-2.24-2.827t-0.853-3.573q0-2.24 1.067-4.107t2.88-2.933 4.053-1.067h0.32q0.533 0 0.853 0.373t0.32 0.907-0.373 0.907-0.907 0.267h-0.213q-2.347 0-3.947 1.653t-1.6 3.947 1.6 3.947 3.947 1.653h0.427q3.733 0.107 6.987 1.92t5.28 4.907q0.32 0.427 0.213 0.907t-0.533 0.8-0.907 0.213-0.8-0.533q-1.813-2.667-4.64-4.16t-5.92-1.493-5.707 1.28-4.48 3.627-2.4 5.227q-0.107 0.533 0.213 0.96t0.853 0.427h22.827q0.533 0 0.907-0.427t0.267-0.96 0.16-0.96 0.8-0.533 0.96 0.16 0.533 0.8z"></path>
</svg>
