<!-- Generated by IcoMoon.io -->
<svg version="1.1" xmlns="http://www.w3.org/2000/svg" width="32" height="32" viewBox="0 0 32 32">
<title>-apple-1</title>
<path d="M27.2 14.613q-1.173-0.427-2.347-0.32-0.64 0.107-1.813 0.427v0q-1.067 0.427-1.653 0.427t-1.44-0.32l0.107-1.067q0.107-2.347-1.12-4.267t-3.467-2.667q-1.067-0.32-2.133-0.213-0.64 0.107-1.707 0.427l-0.96 0.32q-0.107-0.96-0.32-1.813 1.813 0.533 3.52-0.427 1.067-0.533 1.707-1.653t0.64-2.293q0-0.427-0.32-0.533-1.067-0.64-2.293-0.64t-2.293 0.64q-1.707 0.96-2.133 2.773l-0.427-0.427q-0.213-0.213-0.48-0.213t-0.427 0.16-0.16 0.427 0.107 0.48q1.493 1.387 1.6 3.52l-0.96-0.32q-1.92-0.853-4-0.107t-3.36 2.667-1.067 4.16q0.107 1.813 1.013 4t2.293 3.68q1.493 1.707 3.2 1.92h0.427q0.747 0 1.813-0.427 0.64-0.32 1.067-0.427t1.067 0.107q0.213 1.92 1.173 4.053t2.347 3.52q1.6 1.6 3.307 1.813 0.64 0.107 1.28-0.107 0.32-0.107 1.013-0.427t1.12-0.427q0.747 0 1.6 0.427 0.64 0.32 1.067 0.427 0.64 0.107 1.28 0.107 1.813-0.213 3.413-2.027 1.493-1.6 2.453-3.947t1.067-4.16q0.107-2.453-1.227-4.48t-3.573-2.773zM11.947 1.707q0.64-0.427 1.44-0.48t1.547 0.267q-0.107 0.853-0.533 1.493t-1.173 1.067q-0.96 0.64-2.133 0.427l1.28-0.747q0.213-0.107 0.267-0.373t-0.053-0.48-0.373-0.267-0.48 0.053l-1.28 0.747q0.427-1.173 1.493-1.707zM8.213 21.76q-1.387 0.747-2.773-0.107t-2.507-2.827-1.493-4.16 0.373-3.787q0.853-1.92 3.093-2.773 0.96-0.32 1.813-0.213 0.427 0 1.44 0.373t1.867 0.373 1.867-0.373 1.547-0.373q0.747-0.107 1.707 0.213 1.707 0.533 2.72 2.080t0.907 3.467v0.747q-1.92-0.533-3.84 0.373t-3.093 2.72-1.067 3.84q-1.28-0.32-2.56 0.427zM30.72 21.76q-0.107 1.6-0.907 3.68t-1.973 3.467q-1.387 1.707-2.88 1.813-0.533 0.107-0.853 0l-0.747-0.32q-0.853-0.427-1.387-0.533v-3.307q0-0.427-0.32-0.533t-0.587 0-0.267 0.533v3.307q-0.533 0.107-1.387 0.533l-0.747 0.32q-0.427 0.107-0.853 0-1.493-0.213-2.88-1.813-1.173-1.387-2.027-3.467t-0.853-3.68q-0.213-2.027 0.907-3.68t3.040-2.293q0.96-0.32 1.813-0.213 0.533 0 1.493 0.32v0q0.96 0.32 1.493 0.427v3.307q0 0.427 0.267 0.587t0.587 0 0.32-0.587v-3.307q0.533-0.107 1.493-0.427 1.707-0.747 3.467-0.053t2.88 2.347 0.907 3.573zM5.44 9.493q-1.28 0.427-1.973 1.547t-0.587 2.507q0 0.32 0.16 0.48t0.427 0.107 0.427-0.213 0.16-0.48q0-0.853 0.48-1.653t1.333-1.013q0.213-0.107 0.32-0.373t0.053-0.48-0.32-0.32-0.48-0.107zM23.893 21.973q-0.32 0-0.48 0.213t-0.16 0.427v0.96q0 0.427 0.32 0.533t0.64 0 0.32-0.533v-0.96q0-0.213-0.213-0.427t-0.427-0.213zM18.88 21.973q-0.213 0-0.427 0.213t-0.213 0.427v0.96q0 0.427 0.32 0.533t0.64 0 0.32-0.533v-0.96q0-0.213-0.213-0.427t-0.427-0.213z"></path>
</svg>
