<!-- Generated by IcoMoon.io -->
<svg version="1.1" xmlns="http://www.w3.org/2000/svg" width="32" height="32" viewBox="0 0 32 32">
<title>-apple</title>
<path d="M31.147 16.853q-0.32-0.64-0.96-0.64h-6.507q-0.213-2.56-2.027-4.48-2.133-2.027-5.013-2.027-1.6 0-4.267 1.6 0.32-1.493 1.493-2.507t2.773-1.013q0.107 0 0.267-0.16t0.16-0.32-0.16-0.32-0.267-0.16q-2.24 0-3.733 1.493-0.107-1.493-0.64-2.88-0.107-0.107-0.267-0.213t-0.32 0-0.267 0.267 0 0.373q0.533 1.387 0.64 3.2 0 0.107-0.053 0.16t-0.16 0.053q-1.387-0.107-2.667-0.533-1.92-0.64-3.093-1.813t-1.813-3.093q-0.427-1.28-0.427-2.667 0-0.107 0.053-0.16t0.16-0.053q1.387 0.107 2.56 0.427 2.027 0.64 3.2 1.813 0.32 0.32 0.64 0.747 0.107 0.107 0.267 0.16t0.32-0.053 0.213-0.32-0.053-0.32q-0.32-0.427-0.747-0.853-1.28-1.28-3.307-2.027-1.493-0.427-3.093-0.533-0.427 0-0.8 0.32t-0.373 0.853q0.107 1.6 0.533 3.093 0.64 2.027 1.973 3.36t3.36 1.973q1.387 0.427 2.987 0.533-0.213 0.64-0.32 1.173-2.667-1.6-4.267-1.6-1.92 0-3.52 0.96t-2.56 2.613-0.96 3.573q0 1.493 0.533 3.787t1.387 4.427q0.96 2.347 2.133 3.733 1.493 1.813 2.987 1.813 1.067 0 2.773-0.427h0.213l-0.853 1.067q-0.107 0.107-0.053 0.32t0.16 0.32 0.32 0.107 0.32-0.213l1.28-1.6v1.387q0 0.107 0.16 0.267t0.373 0.16 0.32-0.16 0.107-0.267v-1.387l1.28 1.6q0.107 0.213 0.32 0.213t0.373-0.107 0.16-0.32-0.107-0.32l-0.853-1.173 0.427 0.107q1.707 0.427 2.773 0.427 1.493 0 2.987-1.707 1.067-1.387 2.027-3.733 2.347 0.64 4 0.64t3.093-0.853 2.293-2.293 0.853-3.253q0-0.96-0.747-2.56zM23.253 17.173h5.227q0.96 1.6 0.96 2.24 0 1.6-1.12 2.773t-2.72 1.173q-1.067 0-2.88-0.427t-3.52-1.173q-2.027-0.853-2.773-2.24-0.533-0.96-0.427-2.027l0.107-0.32h7.147zM16.64 29.653q-0.96 0-2.56-0.32v0q-1.067-0.32-1.493-0.32l-0.427-0.533-0.427-0.107-0.64 0.64-1.387 0.32q-1.6 0.32-2.613 0.32t-2.080-1.28-2.133-3.733q-0.853-2.133-1.387-4.32t-0.533-3.467q0-1.707 0.853-3.147t2.24-2.24 3.093-0.8q0.747 0 1.92 0.48t2.24 1.227v12.693q0 0.853-0.533 1.6t-1.493 0.96v0q-1.387 0.32-2.133 0.32-0.32 0-0.853-0.747-0.96-1.173-1.76-3.147t-1.28-4.053-0.48-3.147q0-1.92 1.28-3.2t3.093-1.28q0.853 0 2.24 0.747 0.213 0.107 0.373 0.053t0.267-0.267 0.053-0.373-0.267-0.267q-1.493-0.853-2.667-0.853-2.24 0-3.787 1.6t-1.547 3.84q0 1.173 0.48 3.307t1.333 4.213 1.813 3.307 1.76 1.227 2.293-0.427h0.107q1.28-0.32 2.027-1.493l0.213 0.107q0.213 0 0.32-0.16t0.107-0.373v-14.080l0.107-0.107q1.067-0.64 2.24-1.173t2.027-0.533q2.347 0 4.107 1.6t1.973 3.947h-8.213q-0.32 0-0.587 0.267t-0.373 0.587v0q-0.32 1.493-0.32 2.347 0 1.493 1.6 2.773 1.28 0.96 3.413 1.92 1.173 0.427 2.56 0.853-1.067 2.24-2.133 3.467t-2.027 1.227zM25.6 24.853q-1.28 0-3.2-0.427t-3.84-1.28q-2.133-0.853-3.253-1.813t-1.12-1.813 0.32-2.24v-0.107h0.64l-0.107 0.213q-0.107 1.28 0.427 2.453 0.96 1.813 3.307 2.773 1.813 0.747 3.733 1.227t3.093 0.48q1.92 0 3.36-1.44t1.44-3.467q0-0.747-0.853-2.24h0.64l0.107 0.107q0.64 1.387 0.64 2.133 0 2.24-1.547 3.84t-3.787 1.6zM24.32 20.693q0.533 0.427 1.173 0.533l0.427 0.107q0.533 0 0.96-0.427t0.267-1.227-0.587-1.227q-0.64-0.64-2.24-0.853-0.32-0.107-0.64 0.16t-0.213 0.693q0.213 1.493 0.853 2.24zM25.92 19.093q0.213 0.32 0.267 0.693t-0.053 0.48-0.48 0.053-0.587-0.373q-0.533-0.427-0.64-1.387 1.067 0.213 1.493 0.533zM21.973 22.080q0.64 0 1.067-0.693t0.427-1.333q0-0.853-0.853-2.133-0.213-0.427-0.64-0.427t-0.64 0.427q-0.96 1.173-0.96 2.133 0 0.64 0.48 1.333t1.12 0.693zM21.973 18.56q0.533 0.96 0.533 1.493 0 0.32-0.16 0.693t-0.373 0.373-0.427-0.373-0.213-0.693q0-0.64 0.64-1.493zM9.813 19.413q-1.707 0.32-2.347 1.067-0.533 0.533-0.64 1.387t0.32 1.28 0.96 0.427 1.013-0.213 0.693-0.533q0.853-0.853 1.067-2.453 0-0.427-0.32-0.747t-0.747-0.213zM9.173 22.187q-0.213 0.213-0.693 0.373t-0.64 0-0.053-0.64 0.32-0.8q0.533-0.427 1.813-0.747-0.213 1.28-0.747 1.813z"></path>
</svg>
