<!-- Generated by IcoMoon.io -->
<svg version="1.1" xmlns="http://www.w3.org/2000/svg" width="32" height="32" viewBox="0 0 32 32">
<title>-banana</title>
<path d="M8.213 12.8q0 0.213-0.16 0.373t-0.373 0.16-0.373-0.16-0.16-0.373 0.16-0.373 0.373-0.16 0.373 0.16 0.16 0.373zM9.707 14.4q0 0.213-0.16 0.373t-0.373 0.16-0.373-0.16-0.16-0.373 0.16-0.373 0.373-0.16 0.373 0.16 0.16 0.373zM11.307 12.8q0 0.32-0.16 0.427t-0.373 0.107-0.373-0.107-0.16-0.373 0.16-0.427 0.373-0.16 0.373 0.16 0.16 0.373zM15.040 14.4q0 0.213-0.107 0.373t-0.373 0.16-0.427-0.16-0.16-0.373 0.16-0.373 0.427-0.16 0.373 0.16 0.107 0.373zM9.173 10.133q-0.32 0-0.533-0.213-0.427-0.32-0.32-0.853v-0.213l-0.107-0.107q-0.427-0.32-0.213-0.853t0.747-0.64h0.107l0.107-0.107q0.213-0.533 0.747-0.533t0.853 0.533v0.107h0.213q0.533 0.107 0.693 0.64t-0.267 0.853l-0.107 0.107 0.107 0.213q0 0.533-0.427 0.853t-0.853 0.107l-0.213-0.107-0.107 0.107q-0.213 0.107-0.427 0.107zM9.707 8.96q0.213 0 0.427 0.107h0.107q-0.107-0.533 0.213-0.853v0q-0.427-0.107-0.64-0.533h-0.107q-0.213 0.427-0.64 0.533h-0.107q0.427 0.32 0.32 0.853v0 0q0.213-0.107 0.427-0.107zM31.893 14.933q-0.213-0.64-0.533-1.067l0.427-4.8q0.107-0.427-0.107-0.747t-0.533-0.427l-0.64-0.427q-0.64-0.32-1.227 0t-0.693 0.96l-0.32 3.947q-3.307 3.2-8.32 5.12 1.493-2.133 1.493-4.693t-1.333-4.64-3.467-3.147q-0.213 0-0.373 0.053t-0.267 0.213-0.053 0.373 0.267 0.213q1.92 0.96 3.093 2.827t1.173 4q0 3.2-2.24 5.333l-0.533 0.213q-4.373 1.28-8.533 1.173-1.813-1.067-2.88-2.827t-1.067-3.84 1.067-3.84 2.773-2.773 3.84-1.013q0.64 0 1.387 0.107 0.107 0.107 0.267-0.053t0.213-0.32-0.053-0.32-0.32-0.16q-0.747-0.213-1.493-0.213-2.347 0-4.32 1.173t-3.093 3.147-1.12 4.213q0 1.92 0.8 3.627t2.187 2.88q-1.6-0.107-3.093-0.533v0q-0.853-0.213-1.493-0.533-0.533-0.213-1.013-0.053t-0.693 0.693l-0.853 1.6q-0.213 0.427-0.213 0.8t0.32 0.693q2.987 3.947 8.32 5.333 2.453 0.64 5.013 0.64 3.093 0 6.080-0.853 3.733-1.067 6.773-3.36t4.853-5.28q0.96-1.6 0.533-3.413zM29.547 8.533q0-0.213 0.16-0.267t0.267 0.053l0.747 0.32q0.213 0.107 0.213 0.32l-0.427 3.84q-0.32-0.32-0.747-0.64l-0.533-0.213zM1.067 21.333q-0.213-0.213-0.107-0.427l0.96-1.707q0.107-0.213 0.32-0.213l1.173 0.427-1.6 2.88zM30.613 17.813q-1.707 2.88-4.64 5.067t-6.453 3.147q-4.8 1.387-9.333 0.533t-7.627-3.627l1.813-3.307q2.987 0.747 6.507 0.64t7.147-1.173q5.867-1.707 10.027-5.227l-0.32 0.533q-2.133 3.733-6.080 6.080-0.213 0.107-0.213 0.32t0.107 0.373 0.267 0.16h0.267q4.16-2.56 6.507-6.4 0.533-0.96 0.64-1.92v0q0.853 0.427 1.28 1.173v0q0.32 0.427 0.427 0.96 0.427 1.387-0.32 2.667zM19.84 21.44q-1.493 0.747-3.093 1.173-3.093 0.96-6.24 0.907t-5.92-1.12q-0.107 0-0.32 0.053t-0.267 0.267 0.053 0.373 0.213 0.16q3.2 1.173 6.613 1.173 3.093 0 6.080-0.853 1.707-0.533 3.2-1.28 0.213 0 0.267-0.213t0-0.373-0.267-0.213-0.32-0.053z"></path>
</svg>
