<!-- Generated by IcoMoon.io -->
<svg version="1.1" xmlns="http://www.w3.org/2000/svg" width="32" height="32" viewBox="0 0 32 32">
<title>-barbell</title>
<path d="M30.933 13.013h-0.853v-3.093q0-0.64-0.373-1.013t-0.907-0.373h-2.027l-0.427 0.107v-0.213q0-0.747-0.533-1.28t-1.28-0.533h-2.453q-0.853 0-1.387 0.533t-0.533 1.28v5.547h-8.32v-5.547q0-0.747-0.533-1.28t-1.387-0.533h-2.453q-0.747 0-1.28 0.533t-0.533 1.28v0.213l-0.427-0.107h-2.027q-0.533 0-0.907 0.373t-0.373 1.013v0.533q0 0.213 0.107 0.373t0.32 0.16 0.32-0.16 0.107-0.373v-0.533q0-0.213 0.16-0.32t0.267-0.107h2.027q0.213 0 0.32 0.107t0.107 0.32v12.16q0 0.213-0.107 0.32t-0.32 0.107h-2.027q-0.107 0-0.267-0.107t-0.16-0.32v-9.6q0-0.213-0.107-0.32t-0.32-0.107-0.32 0.107-0.107 0.32v0.533h-0.853q-0.427 0-0.747 0.32t-0.32 0.747v3.84q0 0.427 0.32 0.747t0.747 0.32h0.853v3.093q0 0.64 0.373 1.013t0.907 0.373h2.027l0.427-0.107v0.213q0 0.747 0.533 1.28t1.28 0.533h2.453q0.853 0 1.387-0.533t0.533-1.28v-5.547h0.64q0.213 0 0.373-0.107t0.16-0.32-0.16-0.32-0.373-0.107h-0.64v-2.347h8.32v2.347h-5.653q-0.213 0-0.32 0.107t-0.107 0.32 0.107 0.32 0.32 0.107h5.653v5.547q0 0.747 0.533 1.28t1.387 0.533h2.453q0.747 0 1.28-0.533t0.533-1.28v-0.213l0.427 0.107h2.027q0.533 0 0.907-0.373t0.373-1.013v-0.64q0-0.107-0.107-0.267t-0.32-0.16-0.32 0.16-0.107 0.267v0.64q0 0.213-0.16 0.32t-0.267 0.107h-2.027q-0.213 0-0.32-0.107t-0.107-0.32v-12.16q0-0.213 0.107-0.32t0.32-0.107h2.027q0.107 0 0.267 0.107t0.16 0.32v9.6q0 0.107 0.107 0.267t0.32 0.16 0.32-0.16 0.107-0.267v-0.533h0.853q0.427 0 0.747-0.32t0.32-0.747v-3.84q0-0.427-0.32-0.747t-0.747-0.32zM1.067 18.027q-0.107 0-0.107-0.107v-3.84q0-0.107 0.107-0.107h0.853v4.053h-0.853zM10.88 23.573q0 0.427-0.267 0.693t-0.693 0.267h-2.453q-0.32 0-0.587-0.267t-0.267-0.693v-15.147q0-0.427 0.267-0.693t0.587-0.267h2.453q0.427 0 0.693 0.267t0.267 0.693v15.147zM25.387 23.573q0 0.427-0.267 0.693t-0.587 0.267h-2.453q-0.427 0-0.693-0.267t-0.267-0.693v-15.147q0-0.427 0.267-0.693t0.693-0.267h2.453q0.32 0 0.587 0.267t0.267 0.693v15.147zM31.040 17.92q0 0.107-0.107 0.107h-0.853v-4.053h0.853q0.107 0 0.107 0.107v3.84z"></path>
</svg>
