<!-- Generated by IcoMoon.io -->
<svg version="1.1" xmlns="http://www.w3.org/2000/svg" width="32" height="32" viewBox="0 0 32 32">
<title>-bathroom</title>
<path d="M7.787 31.040q-0.107 0-0.267-0.16t-0.16-0.373v-0.853q0-0.213 0.16-0.373t0.32-0.16 0.32 0.16 0.16 0.373v0.853q0 0.213-0.16 0.373t-0.373 0.16zM7.787 28.48q-0.107 0-0.267-0.107t-0.16-0.32v-0.96q0-0.107 0.16-0.267t0.32-0.16 0.32 0.16 0.16 0.267v0.96q0 0.213-0.16 0.32t-0.373 0.107zM7.787 26.027q-0.107 0-0.267-0.107t-0.16-0.32v-0.96q0-0.213 0.16-0.32t0.32-0.107 0.32 0.107 0.16 0.32v0.96q0 0.213-0.16 0.32t-0.373 0.107zM11.093 31.040q-0.213 0-0.32-0.16t-0.107-0.373v-0.853q0-0.213 0.107-0.373t0.32-0.16 0.32 0.16 0.107 0.373v0.853q0 0.213-0.107 0.373t-0.32 0.16zM11.093 28.48q-0.213 0-0.32-0.107t-0.107-0.32v-0.96q0-0.107 0.107-0.267t0.32-0.16 0.32 0.16 0.107 0.267v0.96q0 0.213-0.107 0.32t-0.32 0.107zM11.093 26.027q-0.213 0-0.32-0.107t-0.107-0.32v-0.96q0-0.213 0.107-0.32t0.32-0.107 0.32 0.107 0.107 0.32v0.96q0 0.213-0.107 0.32t-0.32 0.107zM14.4 31.040q-0.213 0-0.373-0.16t-0.16-0.373v-0.853q0-0.213 0.16-0.373t0.32-0.16 0.32 0.16 0.16 0.373v0.853q0 0.213-0.16 0.373t-0.267 0.16zM14.4 28.48q-0.213 0-0.373-0.107t-0.16-0.32v-0.96q0-0.107 0.16-0.267t0.32-0.16 0.32 0.16 0.16 0.267v0.96q0 0.213-0.16 0.32t-0.267 0.107zM14.4 26.027q-0.213 0-0.373-0.107t-0.16-0.32v-0.96q0-0.213 0.16-0.32t0.32-0.107 0.32 0.107 0.16 0.32v0.96q0 0.213-0.16 0.32t-0.267 0.107zM17.6 31.040q-0.213 0-0.32-0.16t-0.107-0.373v-0.853q0-0.213 0.107-0.373t0.32-0.16 0.32 0.16 0.107 0.373v0.853q0 0.213-0.107 0.373t-0.32 0.16zM17.6 28.48q-0.213 0-0.32-0.107t-0.107-0.32v-0.96q0-0.107 0.107-0.267t0.32-0.16 0.32 0.16 0.107 0.267v0.96q0 0.213-0.107 0.32t-0.32 0.107zM17.6 26.027q-0.213 0-0.32-0.107t-0.107-0.32v-0.96q0-0.213 0.107-0.32t0.32-0.107 0.32 0.107 0.107 0.32v0.96q0 0.213-0.107 0.32t-0.32 0.107zM20.907 31.040q-0.213 0-0.373-0.16t-0.16-0.373v-0.853q0-0.213 0.16-0.373t0.373-0.16 0.32 0.16 0.107 0.373v0.853q0 0.213-0.107 0.373t-0.32 0.16zM20.907 28.48q-0.213 0-0.373-0.107t-0.16-0.32v-0.96q0-0.107 0.16-0.267t0.373-0.16 0.32 0.16 0.107 0.267v0.96q0 0.213-0.107 0.32t-0.32 0.107zM20.907 26.027q-0.213 0-0.373-0.107t-0.16-0.32v-0.96q0-0.213 0.16-0.32t0.373-0.107 0.32 0.107 0.107 0.32v0.96q0 0.213-0.107 0.32t-0.32 0.107zM24.107 31.040q-0.213 0-0.32-0.16t-0.107-0.373v-0.853q0-0.213 0.107-0.373t0.32-0.16 0.373 0.16 0.16 0.373v0.853q0 0.213-0.16 0.373t-0.373 0.16zM24.107 28.48q-0.213 0-0.32-0.107t-0.107-0.32v-0.96q0-0.107 0.107-0.267t0.32-0.16 0.373 0.16 0.16 0.267v0.96q0 0.213-0.16 0.32t-0.373 0.107zM24.107 26.027q-0.213 0-0.32-0.107t-0.107-0.32v-0.96q0-0.213 0.107-0.32t0.32-0.107 0.373 0.107 0.16 0.32v0.96q0 0.213-0.16 0.32t-0.373 0.107zM30.72 19.52h-2.56q-0.213-2.133-1.12-4.053t-2.4-3.413q-0.107-0.107-0.32-0.107t-0.32 0.107-0.107 0.32 0.107 0.32q2.773 2.773 3.2 6.827h-17.813q-0.213 0-0.373 0.107t-0.16 0.32 0.16 0.32 0.373 0.107h21.333q0.107 0 0.213 0.107t0.107 0.213v1.387q0 0.107-0.107 0.213t-0.213 0.107h-29.44q-0.107 0-0.213-0.107t-0.107-0.213v-1.387q0-0.107 0.107-0.213t0.213-0.107h5.867q0.213 0 0.373-0.107t0.16-0.32-0.16-0.32-0.373-0.107h-2.347q0.32-2.88 1.867-5.173t4-3.68h10.667q0.533 0.32 1.067 0.747 0.213 0.107 0.373 0.053t0.267-0.213 0.107-0.32-0.213-0.267q-0.533-0.427-1.173-0.747-0.427-0.213-0.853-0.213h-1.707v-0.853q0-0.64-0.373-1.12t-0.907-0.587v-0.747q0-0.64 0.48-1.12t1.227-0.48h10.453q0.747 0 1.333-0.533t0.587-1.333-0.587-1.333-1.333-0.533h-10.453q-1.92 0-3.36 1.12t-1.867 2.933q-0.107 0.213 0 0.373t0.32 0.213 0.373-0.053 0.16-0.32q0.32-1.493 1.547-2.4t2.827-0.907h10.453q0.427 0 0.693 0.267t0.267 0.64-0.267 0.64-0.693 0.267h-10.453q-1.067 0-1.867 0.747t-0.8 1.813v0.64h-2.347q-0.747 0-1.28 0.533t-0.533 1.28v0.853h-1.707q-0.427 0-0.853 0.213-2.773 1.493-4.427 4.053t-1.973 5.547h-2.56q-0.533 0-0.907 0.373t-0.373 0.8v1.387q0 0.533 0.373 0.907t0.907 0.373h29.44q0.533 0 0.907-0.373t0.373-0.907v-1.387q0-0.427-0.373-0.8t-0.907-0.373zM13.76 8.853q0-0.427 0.267-0.64t0.587-0.213h2.88q0.32 0 0.533 0.267t0.213 0.587v0.853h-4.48v-0.853z"></path>
</svg>
