<!-- Generated by IcoMoon.io -->
<svg version="1.1" xmlns="http://www.w3.org/2000/svg" width="32" height="32" viewBox="0 0 32 32">
<title>-beverage</title>
<path d="M10.88 19.84q0.32 0.64 0.747 0.64v0q0.533 0 0.747-0.64l1.28-3.413q0.213-0.533 0-0.96t-0.747-0.533l-2.667 0.107q-0.533 0.107-0.8 0.533t-0.053 0.96zM10.24 16q0.107 0 0.107-0.107h2.453v0.213l-1.173 3.093-1.28-3.093zM5.973 24.427l3.413-1.493q0.533-0.213 0.533-0.693t-0.533-0.693l-3.52-1.387q-0.427-0.213-0.853 0.053t-0.533 0.8v2.667q0.107 0.427 0.533 0.747 0.213 0.107 0.48 0.107t0.48-0.107zM5.44 23.467v-2.453h0.107l3.093 1.173-2.987 1.387h-0.213v-0.107zM5.973 19.627l3.413 1.387h0.48t0.533-0.267-0.053-0.8l-1.387-3.413q-0.213-0.427-0.693-0.587t-0.907 0.16l-1.92 1.92q-0.32 0.427-0.16 0.907t0.693 0.693zM6.187 18.56l1.707-1.707h0.107l0.107 0.107 1.28 2.987-3.093-1.173-0.107-0.107v-0.107zM14.293 16.427l-1.387 3.52q-0.213 0.533 0.053 0.8t0.48 0.267 0.427-0.107l3.413-1.493q0.213-0.107 0.267-0.267t0-0.32-0.267-0.267-0.32 0l-3.093 1.28 1.28-2.987v-0.107h0.107l0.853 0.747q0.107 0.213 0.32 0.16t0.32-0.16 0.107-0.32-0.107-0.32l-0.96-0.853q-0.427-0.32-0.907-0.16t-0.587 0.587zM11.733 23.893q-0.533 0-0.747 0.64l-1.387 3.413q-0.107 0.533 0.107 0.96t0.747 0.427h2.667q0.533-0.107 0.747-0.533t0-0.96l-1.387-3.413q-0.32-0.533-0.747-0.533zM13.013 28.373v0l-2.453 0.107-0.107-0.107 0.107-0.107 1.173-3.093 1.28 3.093v0.107zM10.347 23.573q-0.32-0.32-0.96-0.107l-3.307 1.493q-0.533 0.213-0.693 0.693t0.16 0.907l1.92 1.813q0.32 0.213 0.64 0.213l0.32-0.107q0.427-0.107 0.64-0.64l1.387-3.413q0.213-0.533-0.107-0.853zM8.213 27.52q0 0.107-0.107 0.107v0l-1.813-1.707v-0.107h0.107l3.093-1.387zM30.080 8.747q0-0.533-0.373-1.013t-1.013-0.48v-0.427q0.64 0 1.013-0.427t0.373-1.067-0.427-1.067-1.067-0.427h-7.36l-0.96-3.52q-0.107-0.213-0.267-0.267t-0.373 0-0.267 0.213-0.053 0.373l0.96 3.2h-0.96q-0.64 0-1.12 0.427t-0.48 1.013 0.373 1.013 0.907 0.533v0.427q-0.533 0.107-0.907 0.533t-0.373 0.96 0.32 0.907 0.747 0.587l-0.747 4.587q-1.28-1.067-2.773-1.6-2.453-0.96-5.013-0.587t-4.587 1.973-2.987 4.053q-0.747 1.707-0.693 3.627t0.8 3.733 2.133 3.147 3.147 2.027 3.573 0.693q3.52 0 6.187-2.24 0 0.96 0.693 1.653t1.653 0.693h7.573q0.96 0 1.653-0.693t0.693-1.653v-13.653l-1.067-5.76q0.427-0.213 0.747-0.587t0.32-0.907zM17.813 23.36l-3.093-1.28 3.093-1.28v2.56zM17.813 16v3.84q-0.213 0-0.427 0.107l-3.413 1.493q-0.533 0.213-0.533 0.693t0.533 0.693l3.52 1.387 0.32 0.107v0.64l-0.427-0.213-3.413-1.387q-0.64-0.213-0.96 0.16t-0.107 0.907l1.493 3.413q0.213 0.427 0.747 0.533l0.213 0.107q0.32 0 0.64-0.213l1.813-1.813v2.027q-1.92 1.813-4.427 2.293t-4.96-0.48q-1.6-0.64-2.827-1.813t-1.92-2.827-0.747-3.36 0.587-3.307q0.853-2.24 2.72-3.68t4.16-1.76 4.533 0.533q1.6 0.64 2.88 1.813v0.107zM17.067 25.813l-1.6 1.707h-0.107l-0.107-0.107-1.28-2.987 3.093 1.173 0.107 0.107zM28.587 4.693q0.213 0 0.373 0.213t0.16 0.427-0.16 0.427-0.373 0.213h-6.72l-0.32-1.28h7.040zM21.227 7.253h-1.387v-0.32h1.28zM18.667 5.333q0-0.213 0.16-0.427t0.48-0.213h1.173l0.427 1.28h-1.6q-0.32 0-0.48-0.213t-0.16-0.427zM18.667 8.747q0-0.213 0.16-0.427t0.48-0.213h2.24l0.32 1.28h-2.56q-0.32 0-0.48-0.213t-0.16-0.427zM29.12 16.107v13.547q0 0.64-0.427 1.013t-0.96 0.373h-7.573q-0.64 0-1.067-0.373t-0.427-1.013v-13.547l1.067-5.76h2.453l0.747 2.453h-1.92q-0.213 0-0.32 0.107t-0.107 0.32 0.107 0.32 0.32 0.107h2.133l1.493 5.12q0.107 0.32 0.427 0.32h0.107q0.213-0.107 0.32-0.267t0-0.373l-1.387-4.8h4.587zM23.147 10.347h4.907l0.427 2.453h-4.587zM28.587 9.387h-5.76l-0.64-2.453h5.653v0.32h-3.84q-0.213 0-0.32 0.107t-0.107 0.32 0.107 0.32 0.32 0.107h4.587q0.213 0 0.373 0.213t0.16 0.427-0.16 0.427-0.373 0.213z"></path>
</svg>
