<!-- Generated by IcoMoon.io -->
<svg version="1.1" xmlns="http://www.w3.org/2000/svg" width="32" height="32" viewBox="0 0 32 32">
<title>-bike</title>
<path d="M30.507 16.427q-0.107-0.213-0.267-0.213t-0.32 0.16-0.16 0.32 0.107 0.373q1.173 1.387 1.173 3.36t-1.44 3.467-3.573 1.493q-1.493 0-2.773-0.853t-1.813-2.24l0.96-0.107q0.533 1.067 1.493 1.653t2.133 0.587q1.707 0 2.933-1.227t1.227-2.88-1.227-2.88-2.933-1.227q-1.067 0-2.027 0.533l-0.64-0.747q1.28-0.747 2.613-0.747t2.507 0.64q0.107 0.107 0.32 0.053t0.267-0.213 0-0.373-0.16-0.32q-1.387-0.747-2.987-0.747t-3.093 0.96l-1.387-1.813q-0.107-0.213-0.267-0.213t-0.32 0.107-0.213 0.267 0.053 0.373l1.387 1.813q-1.067 1.067-1.6 2.453l-3.413-0.213 2.027-6.293 0.427 0.64q0.107 0.107 0.32 0.16t0.373-0.053 0.16-0.32-0.107-0.32l-0.853-1.173 0.747-2.133h1.707q0.533 0 0.853-0.32t0.32-0.853v-0.213q0-0.64-0.373-1.013t-1.013-0.373h-3.413q-0.533 0-0.96 0.373t-0.427 0.96 0.427 1.013 0.96 0.427h0.96l-0.64 1.92h-9.28l0.32-0.853q0.107-0.427-0.16-0.8t-0.8-0.373h-2.453q-0.64 0-1.067 0.427t-0.427 1.067 0.427 1.067 1.067 0.427h1.067q0.107 0 0.267-0.16t0.16-0.32-0.16-0.32-0.267-0.16h-1.067q-0.32 0-0.48-0.16t-0.16-0.373 0.16-0.373 0.48-0.16h2.453l-1.493 5.12q-0.533-0.213-1.173-0.213-2.453 0-4.213 1.76t-1.76 4.267 1.76 4.213 4.213 1.707 4.213-1.707 1.76-4.267q0-1.813-1.067-3.36t-2.773-2.187l0.853-2.88 5.12 6.933q-0.533 0.64-0.533 1.547t0.693 1.6 1.653 0.693l0.853-0.107 0.32 0.64q-0.107 0-0.267 0.16t-0.16 0.32 0.16 0.32 0.373 0.16h1.6q0.107 0 0.267-0.16t0.16-0.32-0.16-0.32-0.267-0.16h-0.533l-0.427-0.64 2.56-0.213q0.64 1.813 2.187 2.88t3.467 1.067q2.453 0 4.213-1.707t1.76-4.267q0-2.133-1.493-3.84zM18.24 7.573q-0.213 0-0.32-0.107t-0.107-0.32 0.107-0.373 0.32-0.16h3.413q0.213 0 0.373 0.16t0.16 0.373v0.213q0 0.213-0.32 0.213h-3.627zM10.987 20.267q0 2.133-1.493 3.627t-3.573 1.493-3.52-1.493-1.44-3.573 1.44-3.573 3.573-1.493q0.427 0 0.96 0.107l-0.32 0.853h-0.64q-1.707 0-2.933 1.227t-1.227 2.827q0 1.28 0.747 2.347 0.107 0.213 0.32 0.213t0.373-0.107 0.213-0.267-0.053-0.373q-0.64-0.747-0.64-1.813 0-1.28 0.96-2.187t2.24-0.907h0.427l-0.427 1.387q-0.747 0-1.227 0.48t-0.48 1.227 0.48 1.28 1.227 0.533 1.227-0.533 0.48-1.28q0-0.96-0.747-1.493l0.32-1.387q0.853 0.427 1.387 1.227t0.533 1.653q0 1.387-0.96 2.293t-2.24 0.907q-0.64 0-1.28-0.213-0.213-0.107-0.373-0.053t-0.267 0.267 0 0.373 0.213 0.267q0.853 0.32 1.707 0.32 1.707 0 2.88-1.227t1.173-2.933q0-1.173-0.693-2.24t-1.76-1.493l0.213-0.853q1.493 0.533 2.347 1.813t0.853 2.773zM5.867 20.693q0 0.107 0.107 0.107 0.32 0 0.427-0.427l0.213-0.64q0.213 0.213 0.213 0.533t-0.267 0.587-0.587 0.267-0.587-0.267-0.267-0.587q0-0.533 0.533-0.747l-0.107 0.64q-0.107 0.213 0 0.373t0.32 0.16zM9.813 11.413h8.427l-2.133 6.507h-0.213q-0.64 0-1.067 0.213zM15.787 18.88l-0.107 0.427-0.32-0.32q0.213-0.107 0.427-0.107zM15.893 21.653q-0.64 0-1.013-0.427t-0.373-0.907 0.107-0.8l0.853 1.067 0.107 0.107 0.533 0.96h-0.213zM16.96 21.12l-0.213-0.32h0.427q-0.107 0.213-0.213 0.32zM16.427 19.84l0.213-0.747q0.427 0.32 0.533 0.747h-0.747zM17.813 21.547q0.213-0.32 0.32-0.747h1.92l0.107 0.64zM20.053 19.84h-1.92q0-0.427-0.32-0.853l2.347 0.107zM23.040 21.227q-0.107-0.213-0.107-0.427h1.387l0.213 0.427h-1.493zM26.027 17.173q1.28 0 2.24 0.907t0.96 2.24-0.96 2.24-2.24 0.907q-0.747 0-1.44-0.32t-1.12-0.96l2.773-0.213q0.64 0 1.067-0.48t0.427-1.173-0.48-1.173-1.12-0.587h-0.853l-0.747-1.067q0.64-0.32 1.493-0.32zM26.347 20.053l-0.32-0.533q0.32 0 0.533 0.213t0.213 0.533-0.213 0.587-0.587 0.267-0.587-0.32h0.533q0.32 0 0.48-0.267t-0.053-0.48zM23.787 18.133l0.213 0.32h-0.533zM24.533 19.413l-0.213 0.427h-1.387l0.107-0.533zM22.613 16.64l0.64 0.747q-0.533 0.427-0.853 0.96l-0.96-0.107q0.427-0.96 1.173-1.6zM21.12 19.2l0.96 0.107-0.107 0.533h-0.96zM21.013 20.8h0.96l0.107 0.533h-0.96z"></path>
</svg>
