<!-- Generated by IcoMoon.io -->
<svg version="1.1" xmlns="http://www.w3.org/2000/svg" width="32" height="32" viewBox="0 0 32 32">
<title>-bottle</title>
<path d="M22.4 27.733q0.213 0 0.373-0.16t0.16-0.373v-16q0-0.533-0.267-1.013t-0.8-0.693l0.107-0.32v-1.173q0-1.6-1.173-2.56 0.427-0.213 0.693-0.693t0.267-1.067-0.533-1.12-1.173-0.533h-1.387v-0.533q0-0.64-0.427-1.067t-0.96-0.427h-2.56q-0.533 0-0.96 0.427t-0.427 0.96 0.267 0.96 0.693 0.533v1.707h-0.853q-1.387 0-2.4 1.013t-1.013 2.4v1.173l0.107 0.32q-0.533 0.213-0.8 0.693t-0.267 1.013v0.747q0 0.213 0.16 0.373t0.32 0.16 0.32-0.16 0.16-0.373v-0.747q0-0.427 0.32-0.747t0.747-0.32h6.933q0.213 0 0.32-0.16t0.107-0.373-0.107-0.32-0.32-0.107h-7.040v-1.173q0-1.067 0.693-1.76t1.76-0.693h5.12q1.067 0 1.76 0.693t0.693 1.76v1.173h-0.96q-0.213 0-0.373 0.107t-0.16 0.32 0.16 0.373 0.373 0.16h0.853q0.427 0 0.747 0.32t0.32 0.747v7.787h-2.027q-0.213-1.493-1.333-2.453t-2.613-0.96-2.56 0.96-1.28 2.453h-2.133v-5.013q0-0.213-0.16-0.32t-0.32-0.107-0.32 0.107-0.16 0.32v16q0 0.853 0.64 1.44t1.387 0.587h9.813q0.747 0 1.387-0.587t0.64-1.44v-0.747q0-0.213-0.16-0.32t-0.32-0.107-0.32 0.107-0.16 0.32v0.747q0 0.427-0.32 0.747t-0.747 0.32h-9.813q-0.427 0-0.747-0.32t-0.32-0.747v-10.027h2.027q0.427 0 0.693-0.213t0.267-0.64q0.213-1.067 1.067-1.813t1.973-0.747 1.973 0.747 0.96 1.813q0.107 0.427 0.373 0.64t0.587 0.213h2.027v7.253q0 0.213 0.16 0.373t0.267 0.16zM14.72 0.96h2.56q0.213 0 0.373 0.16t0.16 0.373-0.16 0.373-0.373 0.16h-2.56q-0.213 0-0.373-0.16t-0.16-0.373 0.16-0.373 0.373-0.16zM15.253 4.587v-1.6h1.493v1.6h-1.493zM17.707 4.587v-1.6h2.347q0.32 0 0.533 0.213t0.213 0.587-0.213 0.587-0.533 0.213h-2.347z"></path>
</svg>
