<!-- Generated by IcoMoon.io -->
<svg version="1.1" xmlns="http://www.w3.org/2000/svg" width="32" height="32" viewBox="0 0 32 32">
<title>-calendar-2</title>
<path d="M22.4 25.387q0.533 0 0.853-0.373t0.32-0.907v-10.773q0-0.427-0.32-0.8t-0.853-0.373-0.907 0.373-0.373 0.8v2.56q0 0.853-0.587 1.44t-1.387 0.587-1.387-0.587-0.587-1.44v-2.56q0-0.427-0.373-0.8t-0.907-0.373-0.907 0.373-0.373 0.8v2.56q0 1.813 1.333 3.147t3.147 1.333q1.067 0 2.027-0.427v4.16q0 0.533 0.373 0.907t0.907 0.373zM30.72 21.973q0.533 0 0.907-0.373t0.373-0.8v-13.333q0-2.027-1.44-3.52t-3.573-1.493h-1.6v-1.173q0-0.533-0.373-0.907t-0.907-0.373-0.907 0.373-0.373 0.907v1.173h-5.653v-1.173q0-0.533-0.373-0.907t-0.853-0.373-0.853 0.373-0.373 0.907v1.173h-5.653v-1.173q0-0.533-0.373-0.907t-0.907-0.373-0.853 0.373-0.32 0.907v1.173h-1.6q-2.133 0-3.573 1.493t-1.44 3.52v19.52q0 2.133 1.44 3.573t3.573 1.44h21.973q2.133 0 3.573-1.44t1.44-3.573q0-0.533-0.373-0.907t-0.907-0.373-0.853 0.373-0.32 0.907q0 1.067-0.747 1.813t-1.813 0.747h-21.973q-1.067 0-1.813-0.747t-0.747-1.813v-19.52q0-0.96 0.747-1.707t1.813-0.747h1.6v1.28q0 0.427 0.32 0.8t0.853 0.373 0.907-0.373 0.373-0.8v-1.28h5.653v1.28q0 0.427 0.373 0.8t0.853 0.373 0.853-0.373 0.373-0.8v-1.28h5.653v1.28q0 0.427 0.373 0.8t0.907 0.373 0.907-0.373 0.373-0.8v-1.28h1.6q1.067 0 1.813 0.747t0.747 1.707v13.333q0 0.427 0.32 0.8t0.853 0.373zM10.88 24.853q0.533 0 0.907-0.373t0.373-0.907v-10.24q0-0.747-0.693-1.067t-1.333 0.107l-2.56 1.92q-0.32 0.32-0.427 0.853t0.213 0.96 0.853 0.48 0.96-0.267l0.427-0.427v7.68q0 0.533 0.373 0.907t0.907 0.373z"></path>
</svg>
