<!-- Generated by IcoMoon.io -->
<svg version="1.1" xmlns="http://www.w3.org/2000/svg" width="32" height="32" viewBox="0 0 32 32">
<title>-calendar-1</title>
<path d="M17.387 22.72q0 1.067 0.747 1.813t1.813 0.747h2.88q1.067 0 1.813-0.747t0.747-1.813v-2.88q0-1.067-0.747-1.813t-1.813-0.747h-2.88q-1.067 0-1.813 0.747t-0.747 1.813v2.88zM19.947 19.84h2.88v2.88h-2.88v-2.88zM22.827 13.12q0 0.533 0.373 0.907t0.907 0.373 0.907-0.373 0.373-0.907-0.373-0.907-0.907-0.373-0.907 0.373-0.373 0.907zM17.387 13.12q0 0.533 0.373 0.907t0.907 0.373 0.907-0.373 0.373-0.907-0.373-0.907-0.907-0.373-0.907 0.373-0.373 0.907zM30.72 21.973q0.533 0 0.907-0.373t0.373-0.8v-13.333q0-2.027-1.44-3.52t-3.573-1.493h-1.6v-1.173q0-0.533-0.373-0.907t-0.907-0.373-0.907 0.373-0.373 0.907v1.173h-5.653v-1.173q0-0.533-0.373-0.907t-0.853-0.373-0.853 0.373-0.373 0.907v1.173h-5.653v-1.173q0-0.533-0.373-0.907t-0.907-0.373-0.853 0.373-0.32 0.907v1.173h-1.6q-2.133 0-3.573 1.493t-1.44 3.52v19.52q0 2.133 1.44 3.573t3.573 1.44h21.973q2.133 0 3.573-1.44t1.44-3.573q0-0.533-0.373-0.907t-0.907-0.373-0.853 0.373-0.32 0.907q0 1.067-0.747 1.813t-1.813 0.747h-21.973q-1.067 0-1.813-0.747t-0.747-1.813v-19.52q0-0.96 0.747-1.707t1.813-0.747h1.6v1.28q0 0.427 0.32 0.8t0.853 0.373 0.907-0.373 0.373-0.8v-1.28h5.653v1.28q0 0.427 0.373 0.8t0.853 0.373 0.853-0.373 0.373-0.8v-1.28h5.653v1.28q0 0.427 0.373 0.8t0.907 0.373 0.907-0.373 0.373-0.8v-1.28h1.6q1.067 0 1.813 0.747t0.747 1.707v13.333q0 0.427 0.32 0.8t0.853 0.373zM6.613 24q0 0.533 0.32 0.907t0.853 0.373 0.907-0.373 0.373-0.907-0.373-0.907-0.907-0.373-0.853 0.373-0.32 0.907zM6.613 13.12q0 0.533 0.32 0.907t0.853 0.373 0.907-0.373 0.373-0.907-0.373-0.907-0.907-0.373-0.853 0.373-0.32 0.907zM6.613 18.56q0 0.533 0.32 0.907t0.853 0.373 0.907-0.373 0.373-0.907-0.373-0.907-0.907-0.373-0.853 0.373-0.32 0.907zM12.053 18.56q0 0.533 0.32 0.907t0.853 0.373 0.907-0.373 0.373-0.907-0.373-0.907-0.907-0.373-0.853 0.373-0.32 0.907zM12.053 13.12q0 0.533 0.32 0.907t0.853 0.373 0.907-0.373 0.373-0.907-0.373-0.907-0.907-0.373-0.853 0.373-0.32 0.907zM12.053 24q0 0.533 0.32 0.907t0.853 0.373 0.907-0.373 0.373-0.907-0.373-0.907-0.907-0.373-0.853 0.373-0.32 0.907z"></path>
</svg>
