<!-- Generated by IcoMoon.io -->
<svg version="1.1" xmlns="http://www.w3.org/2000/svg" width="32" height="32" viewBox="0 0 32 32">
<title>-calendar</title>
<path d="M2.56 9.173q-0.107 0-0.213 0.107t-0.107 0.32v0.32q0 0.213 0.107 0.32t0.213 0.107 0.267-0.107 0.16-0.32v-0.32q0-0.213-0.16-0.32t-0.267-0.107zM2.56 10.88q-0.107 0-0.213 0.107t-0.107 0.213v6.507q0 0.213 0.107 0.32t0.213 0.107 0.267-0.107 0.16-0.32v-6.507q0-0.107-0.16-0.213t-0.267-0.107zM9.493 9.92q-0.533 0-0.853 0.373t-0.32 0.907 0.32 0.853 0.853 0.32 0.907-0.32 0.373-0.853-0.373-0.907-0.907-0.373zM9.493 11.627q-0.213 0-0.32-0.107t-0.107-0.32 0.107-0.373 0.32-0.16 0.373 0.16 0.16 0.373-0.16 0.32-0.373 0.107zM14.293 9.92q-0.533 0-0.853 0.373t-0.32 0.907 0.32 0.853 0.853 0.32 0.907-0.32 0.373-0.853-0.373-0.907-0.907-0.373zM14.293 11.627q-0.213 0-0.32-0.107t-0.107-0.32 0.107-0.373 0.32-0.16 0.373 0.16 0.16 0.373-0.16 0.32-0.373 0.107zM19.093 9.92q-0.533 0-0.907 0.373t-0.373 0.907 0.373 0.853 0.907 0.32 0.853-0.32 0.32-0.853-0.32-0.907-0.853-0.373zM19.093 11.627q-0.213 0-0.373-0.107t-0.16-0.32 0.16-0.373 0.373-0.16 0.32 0.16 0.107 0.373-0.107 0.32-0.32 0.107zM23.893 9.92q-0.533 0-0.907 0.373t-0.373 0.907 0.373 0.853 0.907 0.32 0.853-0.32 0.32-0.853-0.32-0.907-0.853-0.373zM23.893 11.627q-0.213 0-0.373-0.107t-0.16-0.32 0.16-0.373 0.373-0.16 0.32 0.16 0.107 0.373-0.107 0.32-0.32 0.107zM4.693 13.973q-0.427 0-0.8 0.32t-0.373 0.853 0.373 0.907 0.853 0.373 0.853-0.373 0.373-0.907-0.373-0.853-0.907-0.32zM4.693 15.68q-0.107 0-0.267-0.16t-0.16-0.373 0.16-0.32 0.32-0.107 0.32 0.107 0.16 0.32-0.16 0.373-0.373 0.16zM9.493 13.973q-0.533 0-0.853 0.32t-0.32 0.853 0.32 0.907 0.853 0.373 0.907-0.373 0.373-0.907-0.373-0.853-0.907-0.32zM9.493 15.68q-0.213 0-0.32-0.16t-0.107-0.373 0.107-0.32 0.32-0.107 0.373 0.107 0.16 0.32-0.16 0.373-0.373 0.16zM14.293 13.973q-0.533 0-0.853 0.32t-0.32 0.853 0.32 0.907 0.853 0.373 0.907-0.373 0.373-0.907-0.373-0.853-0.907-0.32zM14.293 15.68q-0.213 0-0.32-0.16t-0.107-0.373 0.107-0.32 0.32-0.107 0.373 0.107 0.16 0.32-0.16 0.373-0.373 0.16zM19.093 13.973q-0.533 0-0.907 0.32t-0.373 0.853 0.373 0.907 0.907 0.373 0.853-0.373 0.32-0.907-0.32-0.853-0.853-0.32zM19.093 15.68q-0.213 0-0.373-0.16t-0.16-0.373 0.16-0.32 0.373-0.107 0.32 0.107 0.107 0.32-0.107 0.373-0.32 0.16zM23.893 13.973q-0.533 0-0.907 0.32t-0.373 0.853 0.373 0.907 0.907 0.373 0.853-0.373 0.32-0.907-0.32-0.853-0.853-0.32zM23.893 15.68q-0.213 0-0.373-0.16t-0.16-0.373 0.16-0.32 0.373-0.107 0.32 0.107 0.107 0.32-0.107 0.373-0.32 0.16zM4.693 17.92q-0.427 0-0.8 0.373t-0.373 0.853 0.373 0.853 0.853 0.373 0.853-0.373 0.373-0.853-0.373-0.853-0.907-0.373zM4.693 19.627q-0.107 0-0.267-0.16t-0.16-0.32 0.16-0.32 0.32-0.16 0.32 0.16 0.16 0.32-0.16 0.32-0.373 0.16zM9.493 17.92q-0.533 0-0.853 0.373t-0.32 0.853 0.32 0.853 0.853 0.373 0.907-0.373 0.373-0.853-0.373-0.853-0.907-0.373zM9.493 19.627q-0.213 0-0.32-0.16t-0.107-0.32 0.107-0.32 0.32-0.16 0.373 0.16 0.16 0.32-0.16 0.32-0.373 0.16zM14.293 17.92q-0.533 0-0.853 0.373t-0.32 0.853 0.32 0.853 0.853 0.373 0.907-0.373 0.373-0.853-0.373-0.853-0.907-0.373zM14.293 19.627q-0.213 0-0.32-0.16t-0.107-0.32 0.107-0.32 0.32-0.16 0.373 0.16 0.16 0.32-0.16 0.32-0.373 0.16zM19.093 17.92q-0.533 0-0.907 0.373t-0.373 0.853 0.373 0.853 0.907 0.373 0.853-0.373 0.32-0.853-0.32-0.853-0.853-0.373zM19.093 19.627q-0.213 0-0.373-0.16t-0.16-0.32 0.16-0.32 0.373-0.16 0.32 0.16 0.107 0.32-0.107 0.32-0.32 0.16zM23.893 17.92q-0.533 0-0.907 0.373t-0.373 0.853 0.373 0.853 0.907 0.373 0.853-0.373 0.32-0.853-0.32-0.853-0.853-0.373zM23.893 19.627q-0.213 0-0.373-0.16t-0.16-0.32 0.16-0.32 0.373-0.16 0.32 0.16 0.107 0.32-0.107 0.32-0.32 0.16zM4.693 21.867q-0.427 0-0.8 0.373t-0.373 0.907 0.373 0.853 0.853 0.32 0.853-0.32 0.373-0.853-0.373-0.907-0.907-0.373zM4.693 23.573q-0.107 0-0.267-0.107t-0.16-0.32 0.16-0.373 0.32-0.16 0.32 0.16 0.16 0.373-0.16 0.32-0.373 0.107zM9.493 21.867q-0.533 0-0.853 0.373t-0.32 0.907 0.32 0.853 0.853 0.32 0.907-0.32 0.373-0.853-0.373-0.907-0.907-0.373zM9.493 23.573q-0.213 0-0.32-0.107t-0.107-0.32 0.107-0.373 0.32-0.16 0.373 0.16 0.16 0.373-0.16 0.32-0.373 0.107zM29.867 22.507q-0.32 0-0.64 0.213v-0.107q0-0.533-0.373-1.013t-0.907-0.587v-15.68q0-1.173-0.853-2.027t-2.027-0.853h-0.853v-1.28q0-0.107-0.107-0.213t-0.213-0.107h-3.093q-0.107 0-0.213 0.107t-0.107 0.213v1.28h-12.48v-1.28q0-0.107-0.107-0.213t-0.213-0.107h-2.88q-0.213 0-0.32 0.053t-0.107 0.267v1.28h-0.853q-1.173 0-2.027 0.853t-0.853 2.027v18.987q0 1.173 0.853 1.973t2.027 0.8h8.213v0.96q0 0.64 0.373 1.067t0.907 0.427 0.747-0.213v0.107q0 0.747 0.533 1.227t1.28 0.48v0q0.747 0 1.28-0.48t0.533-1.227v-1.707h8.213v1.707q0 0.747 0.533 1.227t1.28 0.48v0q0.747 0 1.28-0.48t0.533-1.227v-0.107q0.32 0.213 0.8 0.213t0.907-0.427 0.427-1.067v-4.053q0-0.64-0.427-1.067t-1.067-0.427zM21.227 1.6h2.24v2.027q0 0.533-0.32 0.8t-0.747 0.373h-0.107q-0.427-0.107-0.747-0.373t-0.32-0.8v-2.027zM5.12 1.6h2.133v2.027q0 0.427-0.32 0.747t-0.747 0.32-0.747-0.32-0.32-0.747v-2.027zM13.76 28.267q0 0.213-0.213 0.373t-0.48 0.16-0.427-0.213-0.16-0.533v-4.053q0-0.213 0.16-0.427t0.427-0.267 0.48 0.107 0.213 0.48v4.373zM16.64 29.44q0 0.427-0.32 0.693t-0.747 0.267v0q-0.427 0-0.693-0.267t-0.267-0.693v-6.827q0-0.427 0.267-0.693t0.693-0.267 0.747 0.267 0.32 0.693v6.827zM25.6 26.987h-8.213v-1.813h8.213v1.813zM25.6 22.613v1.813h-8.213v-1.813q0-0.64-0.533-1.173t-1.28-0.533-1.28 0.533-0.533 1.173v0.107q-0.213-0.213-0.747-0.213t-0.907 0.427-0.373 1.067v2.347h-8.213q-0.853 0-1.493-0.587t-0.64-1.44v-16.213h2.133q0.107 0 0.213-0.107t0.107-0.267-0.107-0.267-0.213-0.107h-2.133v-2.027q0-0.96 0.64-1.547t1.493-0.587h0.853v0.427q0 0.747 0.533 1.28t1.28 0.533 1.28-0.533 0.533-1.28v-0.427h12.48v0.427q0 0.747 0.533 1.28t1.28 0.64h0.107q0.747-0.107 1.28-0.64t0.533-1.28v-0.427h0.853q0.853 0 1.493 0.587t0.64 1.547v2.027h-21.227q-0.107 0-0.213 0.107t-0.107 0.267 0.107 0.267 0.213 0.107h21.227v12.8q-0.64 0.107-1.12 0.587t-0.48 1.12zM28.48 29.44q0 0.427-0.32 0.693t-0.747 0.267v0q-0.427 0-0.747-0.267t-0.32-0.693v-6.827q0-0.427 0.32-0.693t0.747-0.267 0.747 0.267 0.32 0.693v6.827zM30.613 28.053q0 0.32-0.213 0.533t-0.48 0.213-0.48-0.16-0.213-0.373v-4.373q0-0.32 0.213-0.48t0.48-0.107 0.48 0.267 0.213 0.427v4.053z"></path>
</svg>
