<!-- Generated by IcoMoon.io -->
<svg version="1.1" xmlns="http://www.w3.org/2000/svg" width="32" height="32" viewBox="0 0 32 32">
<title>-cancel</title>
<path d="M19.52 16l11.947-11.947q0.533-0.533 0.533-1.28t-0.533-1.173l-1.067-1.067q-0.427-0.533-1.173-0.533t-1.28 0.533l-11.947 11.947-11.947-11.947q-0.533-0.533-1.28-0.533t-1.173 0.533l-1.067 1.067q-0.533 0.427-0.533 1.173t0.533 1.28l11.947 11.947-11.947 11.947q-0.533 0.533-0.533 1.28t0.533 1.173l1.067 1.067q0.427 0.533 1.173 0.533t1.28-0.533l11.947-11.947 11.947 11.947q0.533 0.533 1.28 0.533v0q0.747 0 1.173-0.533l1.067-1.067q0.533-0.427 0.533-1.173t-0.533-1.28z"></path>
</svg>
