<!-- Generated by IcoMoon.io -->
<svg version="1.1" xmlns="http://www.w3.org/2000/svg" width="32" height="32" viewBox="0 0 32 32">
<title>-cardio</title>
<path d="M28.267 29.547h-2.133v-5.973q0-0.213-0.107-0.32t-0.32-0.107-0.32 0.107-0.107 0.32v5.973h-17.92v-4.267q0-0.747 0.64-1.28l1.067-0.96q2.667-2.347 6.027-3.573t6.88-1.227h1.493q0.747 0 1.28 0.48t0.533 1.227v1.493q0 0.213 0.107 0.32t0.32 0.107 0.32-0.107 0.107-0.32v-1.493q0-0.96-0.64-1.707t-1.6-0.96l1.387-4.267 1.173 0.213q0.533 0 0.96-0.373t0.427-1.013v-1.493q0-0.747-0.48-1.227t-1.227-0.48h-6.4q-0.747 0-1.227 0.48t-0.48 1.12 0.32 1.013 0.747 0.48l2.88 0.64-1.707 5.013q-4.053 0.32-7.68 2.133l-0.853-1.92q-1.813-4.373-1.813-8.533 0-0.213-0.16-0.32t-0.373-0.107v0q-0.107 0-0.267 0.107t-0.16 0.32q0 4.373 1.92 8.853 0.427 1.067 0.96 2.133l-1.387 0.747q-0.533-1.067-1.067-2.24-2.24-5.333-1.92-10.453h0.107q0.96 0 1.6-0.64l0.32-0.427 0.747 0.747q0.32 0.32 0.747 0.32t0.747-0.32l0.853-0.853q0.32-0.32 0.32-0.747t-0.32-0.747l-4.373-4.48q-0.32-0.32-0.8-0.32t-0.8 0.32l-0.853 0.853q-0.32 0.32-0.32 0.8t0.32 0.8l1.173 1.173q-0.213 0.96-0.32 2.027l-2.453-2.347q-0.533-0.64-0.533-1.387v-2.453q0-0.107-0.16-0.267t-0.32-0.16-0.32 0.16-0.16 0.267v2.453q0 1.173 0.853 2.027l2.56 2.56q0.213 0.213 0.427 0.32-0.32 5.44 2.027 11.093 0.533 1.28 1.173 2.56l-2.347 1.92q-0.853 0.747-0.853 1.92v4.267h-2.133q-0.427 0-0.693 0.267t-0.267 0.693v0.533q0 0.427 0.267 0.693t0.693 0.267h23.893q0.427 0 0.693-0.267t0.267-0.693v-0.533q0-0.427-0.267-0.693t-0.693-0.267zM6.507 2.56l0.96-0.96 4.587 4.587-0.96 0.96q-0.107 0.107-0.213 0l-4.373-4.373q-0.107-0.107 0-0.213zM8.853 6.4l-0.427 0.427q-0.32 0.32-0.96 0.32 0.107-0.96 0.32-1.813zM18.987 10.347q0-0.32 0.213-0.533t0.533-0.213h6.4q0.32 0 0.587 0.213t0.267 0.533v1.493q0 0.213-0.213 0.373t-0.427 0.053l-7.040-1.387q-0.32-0.107-0.32-0.533zM22.827 12.587l1.6 0.32-1.493 4.373h-1.707zM28.373 31.040h-24.107v-0.533q0-0.107 0.107-0.107h23.893q0.107 0 0.107 0.107v0.533zM15.893 26.027q-0.213 0-0.32 0.16t-0.107 0.32 0.107 0.32 0.32 0.16h0.107q1.28-0.213 2.133-1.173t0.853-2.293-0.96-2.347-2.4-1.013-2.4 1.013-0.96 2.347 0.853 2.293l-0.32 0.32h-2.667q-0.533 0-0.853 0.32t-0.32 0.747v0.747q0 0.533 0.32 0.853t0.853 0.32h2.347q0.533 0 0.853-0.32t0.32-0.853v-0.747q0-0.213-0.107-0.427l2.453-2.88q0.107-0.213 0.107-0.373t-0.16-0.32-0.373-0.107-0.32 0.16l-1.493 1.813q-0.64-0.64-0.64-1.6t0.747-1.653 1.76-0.693 1.76 0.693 0.747 1.707-0.64 1.707-1.6 0.8zM12.693 27.947q0 0.213-0.213 0.213h-2.347q-0.213 0-0.213-0.213v-0.747q0-0.213 0.213-0.213h2.347l0.213 0.107v0.853z"></path>
</svg>
