<!-- Generated by IcoMoon.io -->
<svg version="1.1" xmlns="http://www.w3.org/2000/svg" width="32" height="32" viewBox="0 0 32 32">
<title>-check-1</title>
<path d="M16 0q-4.373 0-8.053 2.133t-5.813 5.813-2.133 8.053 2.133 8.053 5.813 5.813 8.053 2.133 8.053-2.133 5.813-5.813 2.133-8.053-2.133-8.053-5.813-5.813-8.053-2.133zM16 30.933q-4.053 0-7.467-2.027t-5.44-5.44-2.027-7.467 2.027-7.467 5.44-5.44 7.467-2.027 7.467 2.027 5.44 5.44 2.027 7.467-2.027 7.467-5.44 5.44-7.467 2.027zM23.040 10.24l-10.24 10.347-3.84-3.947q-0.213-0.107-0.427-0.107t-0.373 0.16-0.16 0.373 0.107 0.427l4.267 4.267q0.213 0.107 0.427 0.107t0.427-0.107l10.667-10.667q0.107-0.213 0.107-0.427t-0.16-0.373-0.373-0.16-0.427 0.107z"></path>
</svg>
