<!-- Generated by IcoMoon.io -->
<svg version="1.1" xmlns="http://www.w3.org/2000/svg" width="32" height="32" viewBox="0 0 32 32">
<title>-communication</title>
<path d="M30.080 25.813q1.92-2.667 1.92-5.867 0-2.453-1.227-4.693t-3.467-3.733q-0.213-2.24-1.227-4.267t-2.72-3.627q-1.92-1.707-4.427-2.667t-5.227-0.96-5.227 0.96-4.427 2.72-2.987 4.107-1.067 4.8q0 4.053 2.453 7.253l-2.347 5.867q-0.107 0.32-0.053 0.693t0.373 0.693 0.853 0.32q0.213 0 0.427-0.107l6.72-2.987q1.28 0.427 2.667 0.747 1.387 2.24 3.733 3.627 2.667 1.6 5.867 1.6h0.107q2.24 0 4.16-0.747l5.333 2.347q0.213 0.107 0.427 0.107 0.533 0 0.853-0.32t0.373-0.693-0.053-0.693zM27.52 26.027l0.96 2.347-2.987-1.28q-0.427-0.213-0.96 0-1.707 0.747-3.627 0.747h-0.107q-1.813 0-3.52-0.693t-2.88-1.867q3.093-0.213 5.867-1.6 0.427-0.213 0.587-0.693t-0.053-0.96-0.693-0.64-0.907 0.053q-2.56 1.28-5.547 1.28-2.453 0-4.693-0.96-0.533-0.213-1.067 0l-4.373 2.027 1.493-3.733q0.32-0.64-0.213-1.28-2.347-2.667-2.347-6.187 0-2.667 1.547-5.013t4.107-3.733 5.6-1.387 5.6 1.387 4.053 3.733 1.493 5.067-1.493 5.067q-0.32 0.533-0.213 1.013t0.533 0.747 0.96 0.16 0.747-0.533q1.387-2.027 1.813-4.48 1.067 1.173 1.707 2.507t0.64 2.827q0 2.667-1.813 4.8-0.533 0.533-0.213 1.28zM14.827 19.093q0 0.533-0.32 0.853t-0.853 0.32v0q-0.533 0-0.907-0.32t-0.373-0.853 0.373-0.907 0.907-0.373v0q0.533 0 0.853 0.373t0.32 0.907zM18.347 9.707v0q0 1.493-0.747 2.667t-2.027 1.707q-0.64 0.213-0.64 0.853v0.107q0 0.533-0.373 0.907t-0.907 0.373-0.853-0.373-0.32-0.907v-0.107q0-0.96 0.533-1.867t1.493-1.333q0.64-0.213 1.013-0.747t0.373-1.173v-0.107q0-0.853-0.64-1.493t-1.547-0.64-1.547 0.64-0.64 1.493q0 0.533-0.373 0.907t-0.907 0.373-0.907-0.373-0.373-0.907q0-1.92 1.387-3.307t3.307-1.387 3.307 1.387 1.387 3.307z"></path>
</svg>
