<!-- Generated by IcoMoon.io -->
<svg version="1.1" xmlns="http://www.w3.org/2000/svg" width="32" height="32" viewBox="0 0 32 32">
<title>-dumbbell</title>
<path d="M13.653 16.427q-0.427 0-0.533-0.32l-1.387-4.693h-4.267q-0.213 0-0.32-0.16t-0.107-0.32 0.107-0.32 0.32-0.16h4.587q0.427 0 0.533 0.32l1.067 3.52 1.493-5.12q0.107-0.32 0.48-0.32t0.48 0.32l0.64 2.24h4.16q0.213 0 0.32 0.107t0.107 0.32-0.107 0.373-0.32 0.16h-4.48q-0.32 0-0.427-0.427l-0.32-1.067-1.6 5.227q-0.107 0.32-0.427 0.32zM30.933 7.467q-0.107-0.107-0.267-0.16t-0.32 0-0.213 0.267 0.053 0.427q0.853 1.493 0.853 3.2 0 4.693-5.333 10.24-3.093 3.307-7.253 6.080-0.32 0.213-0.64 0-3.413-2.347-6.293-5.227h4.373v1.92q0 0.533 0.32 0.853t0.747 0.32h0.96q0.533 0 0.853-0.32t0.32-0.853v0h1.173q0.427 0 0.747-0.32t0.32-0.747v-5.333q0-0.533-0.32-0.853t-0.747-0.32h-1.173q0-0.427-0.32-0.747t-0.853-0.32h-0.96q-0.427 0-0.747 0.32t-0.32 0.747v1.813h-1.493q-0.213 0-0.373 0.16t-0.16 0.373 0.16 0.32 0.373 0.107h1.493v2.027h-10.453v-2.027h6.827q0.213 0 0.32-0.107t0.107-0.32-0.107-0.373-0.32-0.16h-4.16q-2.773-3.84-2.773-7.253 0-1.813 0.907-3.36t2.453-2.453 3.36-0.907v0q1.6 0 2.987 0.64t2.347 1.92q0.32 0.32 0.8 0.32t0.8-0.32q0.96-1.28 2.347-1.92t2.88-0.64v0q2.667 0 4.693 1.813 0.107 0.213 0.32 0.213t0.32-0.16 0.107-0.373-0.107-0.32q-2.24-2.133-5.333-2.133v0q-1.707 0-3.307 0.747t-2.667 2.133q-0.107 0.107-0.107 0-1.173-1.387-2.72-2.133t-3.36-0.747v0q-2.027 0-3.787 1.067t-2.827 2.827-1.067 3.787q0 3.413 2.56 7.253h-1.493v-1.813q0-0.427-0.32-0.747t-0.853-0.32h-0.96q-0.427 0-0.747 0.32t-0.32 0.747v0h-1.173q-0.533 0-0.853 0.32t-0.32 0.853v5.333q0 0.427 0.32 0.747t0.853 0.32h1.173q0 0.533 0.32 0.853t0.747 0.32h0.96q0.533 0 0.853-0.32t0.32-0.853v-1.92h4.693q3.2 3.307 7.147 5.973 0.427 0.32 0.907 0.32t0.8-0.32q4.267-2.773 7.467-6.187 5.44-5.867 5.44-10.88 0-1.92-0.96-3.733zM19.2 17.6h1.067q0.107 0 0.107 0.213v5.333q0 0.107-0.107 0.107h-1.067q-0.107 0-0.107-0.107v-5.333q0-0.213 0.107-0.213zM16.747 16.64q0-0.107 0.213-0.107h0.96q0.213 0 0.213 0.107v7.573q0 0.213-0.213 0.213h-0.96q-0.213 0-0.213-0.213v-7.573zM4.48 24.213q0 0.213-0.213 0.213h-0.96q-0.213 0-0.213-0.213v-3.627q0-0.213-0.107-0.373t-0.32-0.16-0.32 0.16-0.107 0.373v2.56q0 0.107-0.213 0.107h-0.96q-0.213 0-0.213-0.107v-5.333q0-0.213 0.213-0.213h0.96q0.213 0 0.213 0.213v0.533q0 0.213 0.107 0.32t0.32 0.107 0.32-0.107 0.107-0.32v-1.707q0-0.107 0.213-0.107h0.96q0.213 0 0.213 0.107v7.573z"></path>
</svg>
