<!-- Generated by IcoMoon.io -->
<svg version="1.1" xmlns="http://www.w3.org/2000/svg" width="32" height="32" viewBox="0 0 32 32">
<title>-dumbbells</title>
<path d="M12.8 24.96h-3.733q-1.067 0-1.92-0.64-1.707-1.28-2.667-3.147t-0.96-4.053 1.067-4.107q0.107-0.213 0.053-0.373t-0.267-0.267-0.373-0.053-0.267 0.16q-1.173 2.24-1.173 4.64t1.067 4.48 2.987 3.467q1.173 0.853 2.453 0.853h3.733q0.213 0 0.32-0.16t0.107-0.373-0.107-0.32-0.32-0.107zM28.907 14.827q-0.107-0.213-0.32-0.267t-0.373 0-0.213 0.267 0.053 0.32q0.427 0.96 0.427 2.027v2.24q0 1.92-1.387 3.307l-1.067 0.96q-0.427-0.853-1.173-1.493l0.96-0.853q0.853-0.853 0.853-1.92v-2.24q0-1.067-0.8-1.867t-1.867-0.8h-6.72q-1.173 0-1.92 0.8t-0.747 1.867v2.24q0 1.067 0.747 1.92l0.96 0.853v0.107q-0.747 0.64-1.173 1.387l-1.067-0.96q-1.387-1.387-1.387-3.307v-2.24q0-1.813 1.333-3.147t3.253-1.333h6.72q1.6 0 2.773 0.96 0.213 0.107 0.373 0.107t0.267-0.16 0.107-0.373-0.107-0.32q-1.493-1.173-3.413-1.173h-3.627q-0.533-0.747-1.173-1.387l0.107-0.107q0.96-0.747 1.493-1.813t0.533-2.347v-0.853q0-2.133-1.547-3.68t-3.787-1.547h-7.467q-2.133 0-3.68 1.547t-1.547 3.68v0.853q0 1.28 0.533 2.347t1.493 1.813v0.107l-0.213 0.32q-0.213 0.107-0.16 0.32t0.16 0.32 0.32 0.107 0.32-0.107q1.28-1.387 2.933-2.133t3.573-0.8 3.787 0.853 3.147 2.507h-1.92q-2.133 0-3.733 1.387-0.64-0.32-1.28-0.32-1.28 0-2.187 0.907t-0.907 2.133 0.747 2.080 1.813 1.067v0.427q0 1.067 0.48 2.133t1.227 1.813l1.28 1.173q-0.32 1.067-0.32 2.293t0.533 2.453 1.493 2.080q0.64 0.64 1.6 0.64h5.227q0.853 0 1.493-0.64 1.067-0.853 1.6-2.080t0.533-2.453-0.427-2.293l1.28-1.173q0.853-0.747 1.28-1.813t0.427-2.133v-2.24q0-1.28-0.533-2.347zM12.16 7.467q-1.813 0-3.52 0.747l-1.067-0.853q-0.64-0.427-0.64-1.28v-0.853q0-0.64 0.48-1.12t1.12-0.48h7.467q0.747 0 1.173 0.48t0.427 1.12v0.853q0 0.853-0.533 1.28l-1.067 0.853q-1.813-0.853-3.84-0.747zM18.667 9.493l-0.213 0.213q-0.64-0.64-1.493-1.067v0l0.64-0.533q0.96-0.747 0.96-2.027v-0.853q0-0.96-0.747-1.707t-1.813-0.747h-7.467q-1.067 0-1.813 0.747t-0.747 1.707v0.853q0 1.28 1.067 2.027l0.64 0.533q-0.853 0.427-1.6 1.067l-0.213-0.213q-0.747-0.533-1.227-1.44t-0.48-1.973v-0.853q0-1.707 1.28-2.987t3.093-1.28h7.467q1.813 0 3.093 1.28t1.28 2.987v0.853q0 1.067-0.427 1.973t-1.28 1.44zM10.027 15.893q0-0.853 0.64-1.493t1.6-0.64q0.32 0 0.64 0.107-1.173 1.493-1.173 3.307v0.853q-0.747-0.213-1.227-0.8t-0.48-1.333zM21.867 15.467h2.133q0.64 0 1.173 0.533t0.533 1.173v2.24q0 0.747-0.533 1.173l-1.067 1.067q-1.173-0.853-2.667-1.067 0.533-1.707 0.533-3.413 0-0.853-0.107-1.707zM16 20.587q-0.533-0.427-0.533-1.173v-2.24q0-0.64 0.533-1.173t1.28-0.533h3.627q0.213 0.853 0.213 1.707 0 1.707-0.747 3.413-1.813 0-3.307 1.067zM24.213 30.72q-0.427 0.32-0.96 0.32h-5.227q-0.64 0-0.96-0.32-0.853-0.747-1.333-1.813t-0.48-2.133q0-2.24 1.6-3.787t3.733-1.547h0.213q2.133 0.107 3.627 1.653t1.493 3.68q0 1.173-0.48 2.187t-1.227 1.76zM20.587 24.107q-0.747 0-1.333 0.587t-0.587 1.387 0.587 1.333 1.387 0.533 1.333-0.533 0.533-1.333-0.533-1.387-1.387-0.587zM20.587 27.093q-0.427 0-0.693-0.32t-0.267-0.747 0.267-0.693 0.693-0.267 0.693 0.267 0.267 0.693-0.267 0.747-0.693 0.32z"></path>
</svg>
