<!-- Generated by IcoMoon.io -->
<svg version="1.1" xmlns="http://www.w3.org/2000/svg" width="32" height="32" viewBox="0 0 32 32">
<title>-earphones</title>
<path d="M18.987 12.16v-5.013q0-0.747-0.533-1.227t-1.173-0.48h-6.613q-0.747 0-1.227 0.48t-0.48 1.227v5.013q0 0.64 0.48 1.173t1.227 0.533h6.613q0.64 0 1.173-0.533t0.533-1.173zM18.027 12.16q0 0.32-0.213 0.533t-0.533 0.213h-6.613q-0.32 0-0.533-0.213t-0.213-0.533v-5.013q0-0.32 0.213-0.587t0.533-0.267h6.613q0.32 0 0.533 0.267t0.213 0.587v5.013zM16.96 10.027h-2.667q-0.107-0.533-0.533-0.907t-1.013-0.373-1.013 0.373-0.533 0.907h-0.32q-0.213 0-0.373 0.107t-0.16 0.32 0.16 0.373 0.373 0.16h0.32q0.213 0.427 0.64 0.747t0.907 0.32 0.907-0.32 0.64-0.747h2.667q0.213 0 0.32-0.16t0.107-0.373-0.107-0.32-0.32-0.107zM12.693 11.093q-0.213 0-0.427-0.213t-0.213-0.48 0.213-0.48 0.48-0.213 0.48 0.213 0.213 0.48-0.213 0.48-0.533 0.213zM17.067 18.453q0 0.213 0.107 0.373t0.32 0.16 0.373-0.16 0.16-0.373q0-1.707-1.227-2.88t-2.933-1.173-2.88 1.173-1.173 2.88 1.173 2.933 2.88 1.227q1.067 0 1.92-0.48t1.493-1.333q0.107-0.107 0.053-0.32t-0.213-0.32-0.32-0.053-0.267 0.16q-0.533 0.64-1.227 1.013t-1.44 0.373q-1.28 0-2.187-0.907t-0.907-2.24 0.907-2.24 2.187-0.907 2.24 0.907 0.96 2.187zM13.547 16.427q-0.533-0.213-1.013 0.053t-0.48 0.8v2.347q0 0.533 0.533 0.853 0.213 0.107 0.48 0.107t0.48-0.107l2.027-1.173q0.427-0.32 0.427-0.853t-0.427-0.853zM15.040 18.453l-2.027 1.173v-2.347zM28.053 2.773q-0.853 0-1.44 0.587t-0.587 1.333v2.24q0 0.64 0.747 0.96v0.747q0 0.32 0.213 0.587t0.533 0.267v4.267q0 2.24-1.6 3.84t-3.84 1.6h-0.853v-3.307q1.173-0.107 1.973-1.013t0.8-2.080v-6.080q0.427 0 0.64-0.267t0.213-0.587v-0.747q0.64-0.32 0.64-0.96v-2.24q0-0.747-0.533-1.333t-1.333-0.587-1.387 0.587-0.587 1.333v2.24q0 0.64 0.64 0.96v0.747q0 0.32 0.213 0.587t0.64 0.267v6.080q0 0.853-0.533 1.44t-1.387 0.693v-10.773q0-0.533-0.427-0.96t-0.96-0.427h-11.733q-0.64 0-1.013 0.427t-0.373 0.96v2.667q0 0.213 0.107 0.373t0.32 0.16 0.32-0.16 0.107-0.373v-2.667q0-0.213 0.16-0.32t0.373-0.107h11.733q0.213 0 0.32 0.107t0.107 0.32v20.053q0 0.213-0.107 0.373t-0.32 0.16h-11.733q-0.213 0-0.373-0.16t-0.16-0.373v-15.147q0-0.213-0.107-0.373t-0.32-0.16-0.32 0.16-0.107 0.373v10.347q-2.027 0.533-3.307 2.133-1.387 1.813-1.387 4.053 0 1.707 0.853 3.2t2.293 2.347 3.253 0.853h3.093q1.173 0 2.027-0.853t0.853-2.027v-0.32q0.533-0.213 0.8-0.587t0.267-0.907v-1.6h4.373q0.533 0 0.96-0.427t0.427-1.067v-4.053h0.853q1.707 0 3.2-0.853t2.347-2.347 0.853-3.2v-4.267q0.32 0 0.587-0.267t0.267-0.587v-0.747q0.64-0.32 0.64-0.96v-2.24q0-0.747-0.587-1.333t-1.333-0.587zM22.72 4.267q-0.107 0-0.107-0.107v-2.24q0-0.427 0.267-0.693t0.693-0.267 0.747 0.267 0.32 0.693v2.24q0 0.107-0.213 0.107t-0.373 0.16-0.16 0.373v0.96h-0.64v-0.96q0-0.213-0.16-0.373t-0.373-0.16zM13.44 29.12q0 0.853-0.533 1.387t-1.387 0.533h-3.093q-2.24 0-3.84-1.6t-1.6-3.84q0-1.813 1.013-3.253t2.72-1.973v3.84q0 0.64 0.373 1.067t1.013 0.427h4.267v1.6q0 0.427 0.32 0.853t0.747 0.533v0.427zM14.613 27.307q0 0.213-0.213 0.373t-0.427 0.16v0q-0.213 0-0.427-0.16t-0.213-0.373v-1.6h1.28v1.6zM29.013 6.933q0 0.107-0.213 0.107t-0.32 0.16-0.107 0.373v0.96h-0.747v-0.96q0-0.213-0.107-0.373t-0.32-0.16-0.213-0.107v-2.24q0-0.427 0.32-0.693t0.747-0.267 0.693 0.267 0.267 0.693v2.24z"></path>
</svg>
