<!-- Generated by IcoMoon.io -->
<svg version="1.1" xmlns="http://www.w3.org/2000/svg" width="32" height="32" viewBox="0 0 32 32">
<title>-electronics</title>
<path d="M26.88 20.693q-0.213 0-0.373 0.16t-0.16 0.373v2.88q0 1.92-0.907 3.52t-2.507 2.507-3.52 0.907h-6.827q-1.92 0-3.52-0.907t-2.507-2.507-0.907-3.52v-16.213q0-2.24 1.28-4.053 0.107-0.213 0.053-0.373t-0.16-0.267-0.32-0.107-0.32 0.213q-1.493 2.027-1.493 4.587v16.213q0 2.133 1.067 3.947t2.88 2.88 3.947 1.067h6.827q2.133 0 3.947-1.067t2.88-2.88 1.067-3.947v-2.88q0-0.213-0.107-0.373t-0.32-0.16zM19.413 0h-6.827q-2.667 0-4.693 1.6-0.213 0.107-0.213 0.267t0.107 0.32 0.267 0.213 0.373-0.053q1.813-1.387 4.16-1.387h6.827q1.92 0 3.52 0.907t2.507 2.507 0.907 3.52v11.093q0 0.213 0.16 0.373t0.373 0.16 0.32-0.16 0.107-0.373v-11.093q0-2.133-1.067-3.947t-2.88-2.88-3.947-1.067zM10.347 19.52h11.307q1.173 0 1.973-0.8t0.8-1.973v-7.253q0-1.173-0.8-2.027t-1.973-0.853h-11.307q-1.173 0-1.973 0.853t-0.8 2.027v7.253q0 1.173 0.8 1.973t1.973 0.8zM8.533 9.493q0-0.853 0.533-1.387t1.28-0.533h11.307q0.747 0 1.333 0.533t0.587 1.387v7.253q0 0.747-0.587 1.28t-1.333 0.533h-11.307q-0.747 0-1.28-0.533t-0.533-1.28v-7.253zM9.173 26.133h1.813q0.64 0 1.173-0.427 0.107-0.107 0.107-0.32t-0.107-0.32-0.32-0.107-0.373 0.16-0.48 0.16h-1.813q-0.32 0-0.48-0.213t-0.16-0.533v-1.813q0-0.32 0.16-0.48t0.48-0.16h1.813q0.32 0 0.533 0.16t0.213 0.48v0.533q0 0.213 0.107 0.32t0.32 0.107 0.32-0.107 0.107-0.32v-0.533q0-0.64-0.427-1.12t-1.173-0.48h-1.813q-0.64 0-1.12 0.48t-0.48 1.12v1.813q0 0.747 0.48 1.173t1.12 0.427zM21.013 21.12q-0.64 0-1.12 0.48t-0.48 1.12v1.813q0 0.747 0.48 1.173t1.12 0.427h1.813q0.64 0 1.12-0.427t0.48-1.173v-1.813q0-0.64-0.48-1.12t-1.12-0.48h-1.813zM23.573 22.72v1.813q0 0.32-0.213 0.533t-0.533 0.213h-1.813q-0.32 0-0.533-0.213t-0.213-0.533v-1.813q0-0.32 0.213-0.48t0.533-0.16h1.813q0.32 0 0.533 0.16t0.213 0.48zM15.040 21.12q-0.64 0-1.12 0.48t-0.48 1.12v1.813q0 0.747 0.48 1.173t1.12 0.427h1.92q0.64 0 1.12-0.427t0.48-1.173v-1.813q0-0.64-0.48-1.12t-1.12-0.48h-1.92zM17.6 22.72v1.813q0 0.32-0.213 0.533t-0.427 0.213h-1.92q-0.213 0-0.427-0.213t-0.213-0.533v-1.813q0-0.32 0.213-0.48t0.427-0.16h1.92q0.213 0 0.427 0.16t0.213 0.48zM14.507 16.533h-3.627q-0.213 0-0.32 0.16t-0.107 0.32 0.107 0.32 0.32 0.16h3.627q0.213 0 0.373-0.16t0.16-0.32-0.16-0.32-0.373-0.16zM17.28 16.533h-1.067q-0.213 0-0.373 0.16t-0.16 0.32 0.16 0.32 0.373 0.16h1.067q0.213 0 0.32-0.16t0.107-0.32-0.107-0.32-0.32-0.16zM11.84 12.693q0.533 0 0.747-0.213-0.32 0.853-1.493 1.28-0.32 0.107-0.16 0.48t0.587 0.267q0.96-0.32 1.547-1.067t0.587-1.76-0.427-1.653-1.227-0.64-1.227 0.48-0.427 1.227 0.373 1.173 1.12 0.427zM11.947 10.133q0.427 0 0.587 0.267t0.16 0.64-0.213 0.64-0.533 0.267q-0.747 0-0.747-0.853 0-0.32 0.213-0.64t0.533-0.32zM14.4 13.333h1.707v0.747q0 0.32 0.48 0.32t0.48-0.32v-0.747h0.32q0.213 0 0.213-0.373t-0.213-0.373h-0.32v-2.773q0-0.32-0.48-0.32t-0.693 0.32l-1.813 2.773q-0.107 0.213-0.107 0.48t0.427 0.267zM15.253 12.16l0.747-1.067 0.107-0.427v1.92h-1.173q0.213-0.107 0.32-0.427zM19.52 13.653q-0.533 0-0.8-0.373t-0.64-0.213-0.16 0.48q0.427 0.853 1.6 0.853 0.747 0 1.227-0.427t0.48-1.28-0.64-1.227-1.493-0.267q-0.213 0.107-0.213-0.107l0.107-0.64q0-0.107 0.107-0.107h1.387q0.32 0 0.32-0.427t-0.32-0.427h-1.813q-0.32 0-0.427 0.16t-0.107 0.48l-0.213 1.387q0 0.32 0.213 0.48t0.533 0.053q0.64-0.213 1.12 0t0.48 0.747q0 0.427-0.213 0.64t-0.533 0.213z"></path>
</svg>
