<!-- Generated by IcoMoon.io -->
<svg version="1.1" xmlns="http://www.w3.org/2000/svg" width="32" height="32" viewBox="0 0 32 32">
<title>-expander</title>
<path d="M4.8 26.987q0.213 0 0.32-0.053t0.213-0.267l1.387-5.12q0-0.213-0.107-0.373t-0.32-0.107-0.32 0.267l-1.387 5.12q-0.107 0.213 0 0.32zM6.613 20.587q0.107 0 0.267-0.053t0.16-0.267l0.107-0.32q0-0.213-0.107-0.373t-0.32-0.107-0.32 0.267l-0.107 0.32q0 0.213 0.053 0.32t0.267 0.213zM5.12 31.253q1.173 0.32 2.293-0.32t1.547-1.92l2.987-11.413q0.107-0.213 0-0.32t-0.213-0.107l-0.533-0.213 0.107-0.533 0.32 0.107q0.107 0 0.267-0.107t0.16-0.213l0.427-1.493q0-0.107-0.053-0.267t-0.16-0.16l-1.067-0.32 1.493-5.12q1.387 1.387 3.307 1.387t3.307-1.387l1.493 5.12-1.067 0.32q-0.107 0-0.16 0.16t-0.053 0.267l0.427 1.493q0 0.107 0.16 0.213t0.267 0.107l0.32-0.107 0.107 0.533-0.533 0.213q-0.107 0-0.213 0.107t0 0.32l2.987 11.413q0.32 0.853 1.013 1.493t1.653 0.747 1.813-0.267 1.28-1.227q0.64-1.173 0.32-2.347l-3.093-11.413q0-0.213-0.16-0.267t-0.267-0.053l-0.533 0.107-0.107-0.533 0.213-0.107q0.107 0 0.213-0.107t0.107-0.32l-0.427-1.493-0.213-0.213t-0.213 0l-1.493 0.427-2.24-7.467q-0.107-0.427-0.107-0.96-0.213-1.92-1.653-3.147t-3.36-1.173-3.253 1.44-1.333 3.307l-2.347 8-1.493-0.427q-0.107-0.107-0.213 0l-0.213 0.213-0.427 1.493q0 0.213 0.107 0.32t0.213 0.107l0.213 0.107-0.107 0.533-0.533-0.107q-0.107 0-0.267 0.053t-0.16 0.267l-3.093 11.413q-0.32 1.173 0.32 2.293t1.92 1.547zM26.027 18.667l2.347 8.96q0.32 0.853-0.213 1.707t-1.44 1.12-1.76-0.213-1.173-1.44l-2.347-8.853zM25.387 16.533l0.427 1.493-4.587 1.173-0.427-1.493zM21.333 16.213l2.88-0.747 0.107 0.533-2.773 0.747zM24.427 13.867l0.213 0.747-4.053 1.067-0.213-0.747zM13.12 2.667q0.747-0.853 1.92-1.12t2.293 0.107 1.867 1.333 0.853 2.133q0 0.533 0.213 1.067l2.133 7.36-0.853 0.213-2.24-7.573-0.107-0.747q0-1.173-0.8-2.080t-1.973-1.067-2.187 0.533-1.28 1.813 0.267 2.187 1.6 1.547 2.187 0.053 1.76-1.387l0.32 0.96q-0.64 0.747-1.493 1.12t-1.813 0.373q-1.493-0.107-2.613-1.227t-1.227-2.72 1.173-2.88zM18.453 5.44q0 0.747-0.427 1.333t-1.12 0.907-1.387 0.16-1.227-0.693-0.64-1.227 0.16-1.387 0.853-1.067 1.333-0.373q0.96 0 1.707 0.693t0.747 1.653zM11.52 7.147q0.213 0.533 0.533 1.067l-1.6 5.547-0.853-0.213zM7.573 13.867l4.053 1.067-0.213 0.747-4.053-1.067zM10.667 16.213l-0.213 0.533-2.773-0.747 0.107-0.533zM3.627 27.627l2.347-8.96 0.213 0.107q0.107 0 0.267-0.16t0.107-0.32-0.267-0.267h-0.107l0.427-1.493 4.587 1.173-0.427 1.493-2.027-0.533q-0.213 0-0.373 0.107t-0.107 0.32 0.267 0.32l2.027 0.533-2.347 8.853q-0.213 0.747-0.747 1.173t-1.28 0.533-1.387-0.213-0.96-0.96q-0.533-0.853-0.213-1.707z"></path>
</svg>
