<!-- Generated by IcoMoon.io -->
<svg version="1.1" xmlns="http://www.w3.org/2000/svg" width="32" height="32" viewBox="0 0 32 32">
<title>-fruit</title>
<path d="M30.507 20.907h-2.56l0.213-0.533q0-0.213-0.107-0.373t-0.267-0.213-0.32 0-0.267 0.267l-0.213 0.853h-12.373v-0.213q-0.427-1.6-0.853-2.56-0.64-1.493-0.64-3.2t0.747-2.88q0.747-1.387 2.24-1.547t2.56 0.267q0.64 0.32 1.387 0.427v0q1.493 0.213 2.88-0.427 1.173-0.427 2.613-0.267t2.293 1.547q0.64 1.173 0.64 2.88t-0.64 3.2q0 0.213 0.053 0.373t0.213 0.267 0.373 0 0.32-0.213q0.64-1.707 0.64-3.68t-0.853-3.36q-0.96-1.707-2.987-2.027h-1.493q0.32-0.64 0.533-1.28 0.427-1.6-0.053-2.080t-1.973-0.053-2.4 1.333-1.013 1.867q-0.107 0.427 0 0.747l-0.107-0.107q-1.387-0.533-3.093-0.427-1.92 0.32-2.987 2.027-0.64 1.067-0.747 2.56-1.707-1.493-2.56-3.307-1.28-2.56-3.627-2.667l-0.107-0.107q-0.32-1.28-0.32-2.24 0-0.32-0.213-0.533t-0.533-0.213q-1.387 0-2.133 0.533-0.427 0.213-0.32 0.747 0.107 1.28 0.96 2.88-0.32 0.427-0.533 1.067-0.107 0.213 0 0.373t0.32 0.213 0.373-0.053 0.16-0.213q0.32-0.96 0.853-1.28v0q0.213-0.107 0.533 0.16t0.64 1.013l0.32 0.96q1.067 2.773 2.027 4.373 1.707 2.88 4.16 3.733l1.173 0.427 0.213 0.96h-6.187q-2.027-1.813-3.093-4.373-0.853-2.133-0.853-4.16 0-0.213-0.16-0.373t-0.267-0.16v0q-0.213 0-0.373 0.16t-0.16 0.373q0 1.92 0.853 4.16 0.853 2.453 2.667 4.373h-4.587q-0.64 0-1.067 0.427t-0.427 1.013 0.427 1.067 1.067 0.48h0.32q0.107 1.28 1.12 2.187t2.293 0.907h2.773q0.213 0 0.32-0.16t0.107-0.32-0.107-0.32-0.32-0.16h-2.773q-0.96 0-1.653-0.64t-0.907-1.493h26.667q-0.213 0.853-0.907 1.493t-1.653 0.64h-16.747q-0.213 0-0.32 0.16t-0.107 0.32 0.107 0.32 0.32 0.16h16.747q1.28 0 2.293-0.907t1.12-2.187h0.32q0.64 0 1.067-0.48t0.427-1.067-0.427-1.013-1.067-0.427zM20.16 9.387q0-0.64 0.693-1.28t1.653-0.96 1.387-0.32q0.107 0.427-0.213 1.44t-0.96 1.547l-0.107 0.107q-1.067 0.533-2.24 0.32-0.32-0.32-0.213-0.853zM4.693 5.973q0.107 0.96 0.32 2.133-0.533 0.107-0.96 0.32v0q-0.533-1.173-0.64-2.133 0.427-0.32 1.28-0.32zM12.587 18.667q-2.133-0.747-3.733-3.413-0.853-1.493-1.813-4.16l-0.427-1.067q-0.32-0.64-0.64-1.067h0.107q1.707 0.213 2.827 2.347t3.253 4.053q0.107 1.707 0.747 3.2l0.107 0.32zM30.507 22.933h-29.013q-0.213 0-0.373-0.16t-0.16-0.373 0.16-0.373 0.373-0.16h29.013q0.213 0 0.373 0.16t0.16 0.373-0.16 0.373-0.373 0.16z"></path>
</svg>
