<!-- Generated by IcoMoon.io -->
<svg version="1.1" xmlns="http://www.w3.org/2000/svg" width="32" height="32" viewBox="0 0 32 32">
<title>-garbage-can</title>
<path d="M27.627 9.067q0.533 0 0.8-0.427t0.053-0.853q-0.64-1.707-2.133-2.72t-3.307-1.013h-1.173q-0.32-1.707-1.707-2.88t-3.2-1.173h-1.92q-1.813 0-3.2 1.173t-1.707 2.88h-1.173q-1.813 0-3.307 1.013t-2.133 2.72q-0.213 0.427 0.053 0.853t0.8 0.427h23.253zM15.040 1.92h1.92q1.067 0 1.867 0.587t1.12 1.547h-7.893q0.32-0.96 1.12-1.547t1.867-0.587zM6.933 29.44q0.107 1.067 0.907 1.813t1.867 0.747h12.587q1.067 0 1.867-0.747t0.907-1.813l1.28-18.453h-20.693zM18.56 16q0-0.427 0.32-0.693t0.693-0.267 0.64 0.32 0.267 0.64l-0.533 10.027q0 0.427-0.267 0.693t-0.693 0.267-0.693-0.32-0.267-0.747zM12.48 15.040q0.32 0 0.64 0.267t0.32 0.693l0.533 9.92q0 0.427-0.267 0.747t-0.693 0.32-0.693-0.267-0.267-0.693l-0.533-10.027q0-0.32 0.267-0.64t0.693-0.32z"></path>
</svg>
