<!-- Generated by IcoMoon.io -->
<svg version="1.1" xmlns="http://www.w3.org/2000/svg" width="32" height="32" viewBox="0 0 32 32">
<title>-gymnastic-rings</title>
<path d="M9.28 24.853q2.347 0 4.16-1.493t2.187-3.787-0.907-4.32-3.52-2.773v-0.213q0-0.213-0.107-0.32t-0.213-0.107h-0.213v-10.773q0-0.213-0.107-0.32t-0.213-0.107h-2.027q-0.32 0-0.32 0.427v10.773h-0.213q-0.213 0-0.32 0.107t-0.107 0.32v0.32q-2.24 0.64-3.467 2.667t-0.853 4.32 2.133 3.787 4.107 1.493zM11.2 13.333q1.067 0.32 1.92 1.173l-0.427 1.28q-0.64-0.64-1.493-1.067v-1.387zM8.747 1.387h1.173v1.387l-1.173-0.64v-0.747zM8.747 2.987l1.173 0.64v0.96l-1.173-0.533v-1.067zM8.747 4.907l1.173 0.533v1.067l-1.173-0.533v-1.067zM8.747 6.72l1.173 0.64v1.067l-1.173-0.64v-1.067zM8.747 8.64l1.173 0.64v1.067l-1.173-0.64v-1.067zM8.747 10.56l1.173 0.64v0.64h-1.173v-1.28zM8.107 12.587h2.347v2.56h-2.347v-2.56zM7.36 13.333v1.387q-0.853 0.427-1.387 1.173l-0.533-1.387q0.853-0.747 1.92-1.173zM4.907 15.147l0.533 1.6q-0.213 0.427-0.32 0.96-0.107 0.107 0 0.267t0.32 0.16v0q0.32 0 0.427-0.32 0.213-1.387 1.493-2.24 0.107 0.32 0.427 0.32h3.093q0.32 0 0.32-0.32 1.067 0.64 1.493 1.76t0.107 2.24-1.28 1.867-2.080 0.747-2.027-0.587-1.333-1.547q-0.107-0.213-0.32-0.213v0q-0.213 0-0.32 0.213t-0.107 0.32q0.533 1.067 1.493 1.76t2.133 0.8 2.24-0.427 1.707-1.493 0.747-2.133-0.427-2.24l0.427-1.6q1.387 1.813 1.227 3.947t-1.76 3.627-3.787 1.547-3.787-1.44-1.813-3.68 1.173-3.893zM6.72 9.813q0.107 0 0.213-0.107t0.107-0.213v-5.44q0-0.107-0.107-0.213t-0.267-0.107-0.267 0.107-0.107 0.213v5.44q0 0.107 0.107 0.213t0.32 0.107zM6.72 3.2q0.107 0 0.213-0.107t0.107-0.32v-0.32q0-0.107-0.107-0.213t-0.267-0.107-0.267 0.107-0.107 0.213v0.32q0 0.213 0.107 0.32t0.32 0.107zM22.72 31.36q2.347 0 4.107-1.547t2.133-3.893-0.907-4.32-3.52-2.72v-0.213q0-0.107-0.107-0.213t-0.213-0.107h-0.213v-10.88q0-0.107-0.107-0.213t-0.213-0.107h-2.027q-0.107 0-0.213 0.107t-0.107 0.213v10.88h-0.32q-0.107 0-0.213 0.107t-0.107 0.213v0.32q-2.24 0.747-3.467 2.72t-0.853 4.267 2.187 3.84 4.16 1.547zM24.533 19.733q1.067 0.32 1.92 1.173l-0.427 1.28q-0.64-0.747-1.493-1.067v-1.387zM22.080 7.893h1.173v1.28l-1.173-0.64v-0.64zM22.080 9.387l1.173 0.64v1.067l-1.173-0.64v-1.067zM22.080 11.307l1.173 0.533v1.067l-1.173-0.533v-1.067zM22.080 13.227l1.173 0.533v1.067l-1.173-0.64v-0.96zM22.080 15.040l1.173 0.64v1.067l-1.173-0.64v-1.067zM22.080 16.96l1.173 0.64v0.747h-1.173v-1.387zM21.44 19.093h2.347v2.453h-2.347v-2.453zM20.693 21.973q0 0.32 0.32 0.32h3.2q0.107 0 0.213-0.107t0.107-0.213v0q1.067 0.533 1.493 1.653t0.107 2.293-1.28 1.92-2.133 0.747-2.133-0.693-1.333-1.867 0.053-2.293 1.387-1.76zM20.693 19.733v1.387q-0.853 0.427-1.387 1.173l-0.427-1.387q0.747-0.747 1.813-1.173zM18.24 21.547l0.533 1.6q-0.64 1.387-0.32 2.827t1.547 2.4 2.72 0.96 2.667-0.96 1.493-2.453-0.32-2.88l0.533-1.493q1.28 1.707 1.12 3.84t-1.76 3.68-3.787 1.547-3.787-1.493-1.76-3.68 1.12-3.893z"></path>
</svg>
