<!-- Generated by IcoMoon.io -->
<svg version="1.1" xmlns="http://www.w3.org/2000/svg" width="32" height="32" viewBox="0 0 32 32">
<title>-gym-1</title>
<path d="M29.227 26.133h-1.28q-0.107 0-0.267 0.16t-0.16 0.32 0.16 0.32 0.267 0.16h1.28q0.747 0 1.28 0.533t0.533 1.28q0 0.213-0.213 0.213h-29.653q-0.213 0-0.213-0.213 0-0.747 0.533-1.28t1.28-0.533h23.253q0.213 0 0.32-0.16t0.107-0.32-0.107-0.32-0.32-0.16h-6.187v-5.333q0.533-0.107 0.907-0.533t0.373-1.013-0.48-1.013-1.12-0.427h-2.133v-1.493h0.853q0.427 0 0.747-0.32t0.32-0.747v-6.293q0-0.427-0.32-0.747t-0.747-0.32h-0.853v-1.28h1.707q0.213 0 0.373-0.16t0.16-0.373v-1.387h3.947v1.6h-0.213q-0.533 0-0.907 0.373t-0.373 0.907v4.587q0 0.533 0.373 0.907t0.907 0.373h3.307q0.533 0 0.907-0.373t0.373-0.907v-4.587q0-0.533-0.373-0.907t-0.907-0.373h-0.213v-1.6h0.32q0.213 0 0.373-0.107t0.16-0.32v-0.96q0-0.533-0.427-0.96t-0.96-0.427h-1.92q-0.107 0-0.267 0.107t-0.16 0.32 0.16 0.373 0.267 0.16h1.92q0.107 0 0.267 0.107t0.16 0.32v0.427h-8.96v-0.427q0-0.213 0.16-0.32t0.373-0.107h4.053q0.213 0 0.373-0.16t0.16-0.373-0.16-0.32-0.373-0.107h-4.053q-0.747 0-1.173 0.533-0.32-0.213-0.747-0.213t-0.747 0.213q-0.427-0.533-1.173-0.533h-8q-0.533 0-0.96 0.427t-0.427 0.96v0.96q0 0.213 0.16 0.32t0.373 0.107h0.32v1.6h-0.213q-0.533 0-0.907 0.373t-0.373 0.907v4.587q0 0.533 0.373 0.907t0.907 0.373h3.307q0.533 0 0.907-0.373t0.373-0.907v-4.587q0-0.533-0.373-0.907t-0.907-0.373h-0.213v-1.6h3.947v1.387q0 0.213 0.16 0.373t0.373 0.16h1.707v1.28h-0.853q-0.427 0-0.747 0.32t-0.32 0.747v6.293q0 0.427 0.32 0.747t0.747 0.32h0.853v1.493h-2.133q-0.64 0-1.12 0.427t-0.48 1.013 0.373 1.013 0.907 0.533v1.173q0 0.213 0.16 0.32t0.32 0.107 0.32-0.107 0.16-0.32v-1.173h0.96v5.333h-0.96v-2.133q0-0.213-0.16-0.32t-0.32-0.107-0.32 0.107-0.16 0.32v2.133h-9.387q-1.173 0-1.973 0.853t-0.8 1.92q0 0.533 0.32 0.853t0.853 0.32h29.653q0.533 0 0.853-0.32t0.32-0.853q0-1.067-0.8-1.92t-1.973-0.853zM17.92 26.133v-5.333h0.96v5.333h-0.96zM18.667 5.653h-1.28v-0.96h1.28v0.96zM26.987 7.573v4.587q0 0.107-0.107 0.213t-0.213 0.107h-3.307q-0.213 0-0.32-0.107t-0.107-0.213v-4.587q0-0.107 0.107-0.213t0.32-0.107h3.307q0.107 0 0.213 0.107t0.107 0.213zM25.493 4.693v1.6h-0.96v-1.6h0.96zM5.653 3.307q0-0.213 0.16-0.32t0.267-0.107h8q0.213 0 0.373 0.107t0.16 0.32v0.427h-8.96v-0.427zM9.067 7.573v4.587q0 0.107-0.107 0.213t-0.32 0.107h-3.307q-0.107 0-0.213-0.107t-0.107-0.213v-4.587q0-0.107 0.107-0.213t0.213-0.107h3.307q0.213 0 0.32 0.107t0.107 0.213zM7.467 6.293h-0.96v-1.6h0.96v1.6zM13.333 5.653v-0.96h1.28v0.96h-1.28zM15.573 3.733q0-0.213 0.107-0.373t0.32-0.16 0.32 0.16 0.107 0.373v4.16h-0.853v-4.16zM13.653 15.253v-6.293q0-0.107 0.107-0.107h4.48q0.107 0 0.107 0.107v6.293q0 0.107-0.107 0.107h-4.48q-0.107 0-0.107-0.107zM15.573 16.32h0.853v1.493h-0.853v-1.493zM12.48 19.947q-0.32 0-0.48-0.213t-0.16-0.427 0.16-0.427 0.48-0.213h7.040q0.32 0 0.48 0.213t0.16 0.427-0.16 0.427-0.48 0.213h-7.040zM14.933 20.8h2.133v5.333h-2.133v-5.333z"></path>
</svg>
