<!-- Generated by IcoMoon.io -->
<svg version="1.1" xmlns="http://www.w3.org/2000/svg" width="32" height="32" viewBox="0 0 32 32">
<title>-hand-grip</title>
<path d="M30.4 29.653l-3.307-10.88q0-0.213-0.16-0.32t-0.373-0.053-0.32 0.267 0 0.32l3.2 10.88q0.107 0.213-0.107 0.213l-3.2 0.96h-0.107l-0.107-0.107-4.373-14.72q-0.107-0.32-0.427-0.64-0.533-0.533-1.227-0.64t-0.907-0.64l-0.213-0.32v-0.107h0.107l4.373-1.28q0.32-0.107 0.533 0t0.213 0.32l0.32 0.64q0.747 1.707 1.28 3.52 0.107 0.213 0.267 0.267t0.373 0 0.267-0.213 0.053-0.373q-0.533-1.813-1.387-3.627l-0.32-0.64q-0.107-0.427-0.533-0.693t-0.96-0.16l-2.24-6.613q0-1.707-1.173-3.093-0.107-0.213-0.267-0.213t-0.32 0.107-0.213 0.32 0.16 0.32q0.96 1.173 0.96 2.667 0 1.813-1.28 3.040t-2.987 1.227-2.987-1.227-1.28-2.987 1.28-2.987 2.987-1.227q0.96 0 1.813 0.427 0.213 0.107 0.427 0t0.267-0.267 0-0.32-0.267-0.267q-1.067-0.533-2.24-0.533-2.133 0-3.627 1.493t-1.493 3.52l-2.24 6.613q-0.533-0.107-0.96 0.16t-0.533 0.693l-0.32 0.64q-0.853 1.813-1.387 3.627l-2.667 9.173q-0.107 0.107 0 0.267t0.32 0.213 0.373 0 0.16-0.267l2.773-9.067q0.533-1.813 1.28-3.52l0.32-0.64q0-0.213 0.213-0.32t0.533 0l4.373 1.28h0.107v0.107l-0.213 0.32q-0.213 0.533-0.907 0.64t-1.227 0.64q-0.32 0.32-0.427 0.64l-4.373 14.72-0.107 0.107h-0.107l-3.2-0.96q-0.213 0-0.107-0.213l0.533-1.813q0-0.213-0.053-0.373t-0.267-0.213-0.373 0.053-0.16 0.213l-0.64 1.92q-0.107 0.427 0.107 0.8t0.64 0.587l3.307 0.96h0.32q0.213 0 0.533-0.16t0.427-0.587l4.373-14.72q0.32-0.64 0.96-0.64 1.173-0.107 1.6-1.173l0.213-0.32q0.213-0.427 0-0.853t-0.747-0.64l-2.027-0.533 0.747-2.133q0.747 0.853 1.76 1.333t2.187 0.48 2.187-0.48 1.76-1.333l0.747 2.133-2.027 0.533q-0.533 0.213-0.747 0.64t0 0.853l0.213 0.32q0.427 1.067 1.6 1.173 0.64 0 0.96 0.64l4.373 14.72q0.107 0.427 0.427 0.587t0.533 0.16h0.32l3.307-0.96q0.427-0.213 0.64-0.587t0.107-0.8zM10.453 12.053l-0.96-0.213 1.387-4.16q0.107 0.853 0.533 1.493zM16 11.093q-1.067 0-2.027-0.533t-1.6-1.493l0.107-0.107q1.493 1.387 3.52 1.387t3.52-1.387l0.107 0.107q-0.64 0.96-1.6 1.493t-2.027 0.533zM20.587 9.173q0.427-0.64 0.533-1.493l1.387 4.16-0.96 0.213zM16 1.92q-1.387 0-2.347 0.96t-0.96 2.293 0.96 2.293 2.347 0.96 2.347-0.96 0.96-2.293-0.96-2.293-2.347-0.96zM16 2.773q0.747 0 1.387 0.48t0.853 1.227q-0.96-0.853-2.24-0.853t-2.24 0.853q0.213-0.747 0.853-1.227t1.387-0.48zM16 7.467q-0.747 0-1.333-0.373t-0.8-1.013q0.213-0.747 0.8-1.12t1.333-0.373 1.333 0.373 0.8 1.12q-0.213 0.64-0.8 1.013t-1.333 0.373z"></path>
</svg>
