<!-- Generated by IcoMoon.io -->
<svg version="1.1" xmlns="http://www.w3.org/2000/svg" width="32" height="32" viewBox="0 0 32 32">
<title>-healthy</title>
<path d="M28.693 16.64q0.107 0 0.267-0.053t0.267-0.267q0.96-2.773 0.533-5.44-0.533-2.453-2.027-3.84t-3.627-1.387q-0.213 0-0.32 0.107t-0.107 0.267 0.107 0.267 0.32 0.107q1.813 0 3.147 1.227t1.76 3.36q0.427 2.453-0.533 5.12-0.107 0.107 0 0.267t0.213 0.267zM28.267 17.493q-0.107-0.107-0.267-0.053t-0.267 0.16l-0.533 0.96q-0.107 0.213 0 0.373t0.32 0.16 0.32-0.107l0.64-0.96q0-0.107-0.053-0.267t-0.16-0.267zM31.147 10.56q-0.64-2.88-2.56-4.587t-4.64-1.707-5.707 2.133q-3.093-2.24-5.973-2.24-2.56 0-4.48 1.76t-2.453 4.64q-0.427 1.92-0.107 3.84h-4.16q-0.107 0-0.267 0.107t-0.16 0.267 0.16 0.267 0.267 0.107h4.267q0.853 3.733 3.733 6.933 3.307 3.52 8.64 5.653h0.107q0.427 0.213 0.853 0v0q3.52-1.387 6.133-3.467t4.32-4.533q1.28-2.133 1.92-4.48 0-0.213-0.107-0.373t-0.32-0.16v0q-0.213 0-0.32 0.32-0.533 2.24-1.813 4.267-3.2 4.907-10.133 7.68l-0.107 0.107-0.213-0.107q-5.333-2.027-8.427-5.547-2.88-3.093-3.52-6.72l2.027-3.627 3.413 8.107q0.107 0.213 0.32 0.213v0.107q0.213 0 0.32-0.213l3.627-5.973 2.133 3.947q0.107 0.213 0.32 0.213h2.56q0.213 0.533 0.693 0.853t1.067 0.213 0.96-0.533 0.32-1.013-0.427-1.013-0.96-0.48-1.067 0.32-0.587 0.907h-2.347l-2.347-4.373q-0.107-0.213-0.32-0.213t-0.32 0.213l-3.52 5.867-3.413-8.107q-0.107-0.213-0.32-0.213t-0.32 0.213l-2.027 3.307q-0.107-1.387 0.213-2.773 0.427-2.667 2.133-4.213t4.053-1.547q2.773 0 5.76 2.24 0.213 0.107 0.427 0 2.88-2.133 5.653-2.133 2.347 0 4.053 1.547t2.24 4.107q0.213 0.96 0.213 1.92 0 0.213 0.107 0.32t0.213 0.107v0q0.107 0 0.267-0.107t0.16-0.32q0-0.96-0.213-2.027v0 0zM22.293 16.32q0.533 0 0.747 0.48t-0.16 0.853-0.853 0.16-0.48-0.64 0.213-0.64 0.533-0.213z"></path>
</svg>
