<!-- Generated by IcoMoon.io -->
<svg version="1.1" xmlns="http://www.w3.org/2000/svg" width="32" height="32" viewBox="0 0 32 32">
<title>-heart-rate</title>
<path d="M30.613 14.827h-3.52q0.427-1.067 0.427-2.24 0.107-2.667-1.6-4.8-0.107-0.107-0.32-0.107t-0.373 0.107-0.16 0.32 0.107 0.32q1.493 1.813 1.44 4.16t-1.76 4.053l-5.76 5.973q-0.107 0.107-0.107 0.32t0.107 0.32 0.32 0.107 0.32-0.107l5.44-5.653h5.44q0.533 0 0.96-0.373t0.427-0.96-0.427-1.013-0.96-0.427zM30.613 16.64h-4.587q0.427-0.427 0.64-0.853h3.947q0.213 0 0.32 0.107t0.107 0.32-0.107 0.32-0.32 0.107zM17.707 24q-1.28 1.173-1.707 1.6-1.493-1.28-8.533-8.64l3.307-3.307 6.187 6.293q0.427 0.427 1.013 0.427t1.013-0.427l2.773-2.773q0.427-0.427 0.427-1.013t-0.427-1.013-1.013-0.427-1.013 0.427l-1.707 1.813-6.293-6.293q-0.427-0.32-1.013-0.32t-0.907 0.32l-1.6 1.6q-0.213 0.213-0.213 0.373t0.16 0.32 0.32 0.16 0.373-0.107l1.6-1.6q0.107-0.213 0.32-0.213t0.32 0.213l6.613 6.507q0.107 0.213 0.267 0.213t0.373-0.213l2.133-2.027q0.107-0.213 0.267-0.213t0.32 0.16 0.16 0.32-0.107 0.373l-2.773 2.773q-0.213 0.107-0.373 0.107t-0.267-0.107l-6.613-6.613q-0.107-0.107-0.32-0.107t-0.32 0.107l-3.627 3.627q-0.213 0.107-0.32 0.107h-5.12q-0.213 0-0.32-0.107t-0.107-0.32 0.107-0.32 0.32-0.107h4.693q0.213 0 0.32-0.213l1.067-0.96q0.107-0.107 0.107-0.32t-0.16-0.373-0.32-0.16-0.373 0.213l-0.853 0.853h-0.107q-0.64-1.707-0.267-3.467t1.653-3.040q1.707-1.813 4.267-1.813v0q2.453 0 4.267 1.813 0.107 0.107 0.32 0.107t0.32-0.107q1.493-1.493 3.573-1.76t3.893 0.907q0.213 0.107 0.373 0.053t0.267-0.213 0.053-0.373-0.16-0.32q-2.027-1.28-4.32-1.013t-4 1.76q-1.92-1.813-4.587-1.813v0q-2.88 0-4.907 2.133-1.387 1.387-1.867 3.307t0.16 3.84h-3.413q-0.533 0-0.96 0.427t-0.427 0.96 0.427 0.96 0.96 0.427h5.227l4.267 4.48 3.2 3.2q1.067 1.067 1.387 1.333t0.533 0.267 0.587-0.32 1.76-1.707q0.107-0.107 0.107-0.32t-0.107-0.32-0.32-0.107-0.32 0.107z"></path>
</svg>
