<!-- Generated by IcoMoon.io -->
<svg version="1.1" xmlns="http://www.w3.org/2000/svg" width="32" height="32" viewBox="0 0 32 32">
<title>-heart-1</title>
<path d="M29.44 4.587q-1.173-1.387-2.827-2.133t-3.573-0.747q-2.773 0-5.013 1.813-1.173 0.853-2.027 2.133-0.853-1.28-2.027-2.133-2.24-1.813-5.013-1.813-1.92 0-3.573 0.747t-2.88 2.080-1.867 3.093-0.64 3.787q0 3.947 3.2 7.787 1.28 1.493 3.413 3.52 1.387 1.28 4.48 3.947l3.627 3.093q0.533 0.427 1.28 0.427t1.28-0.427l3.627-3.093q3.093-2.667 4.48-3.947 2.133-2.027 3.413-3.52 3.2-3.84 3.2-7.787 0-2.027-0.64-3.787t-1.92-3.040z"></path>
</svg>
