<!-- Generated by IcoMoon.io -->
<svg version="1.1" xmlns="http://www.w3.org/2000/svg" width="32" height="32" viewBox="0 0 32 32">
<title>-heart</title>
<path d="M16 30.187q-0.747 0-1.28-0.427l-3.627-3.093q-3.093-2.667-4.48-3.947-2.133-2.027-3.413-3.52-3.2-3.84-3.2-7.787 0-2.027 0.64-3.787t1.867-3.093 2.88-2.080 3.573-0.747q2.773 0 5.013 1.813 1.173 0.853 2.027 2.133 0.853-1.28 2.027-2.133 2.24-1.813 5.013-1.813 1.92 0 3.573 0.747t2.88 2.080 1.867 3.093 0.64 3.787q0 3.947-3.2 7.787-1.28 1.493-3.413 3.52-1.387 1.28-4.48 3.947l-3.627 3.093q-0.533 0.427-1.28 0.427zM8.96 3.627q-1.493 0-2.773 0.587t-2.24 1.547q-2.027 2.24-2.027 5.653 0 1.707 0.64 3.253t2.027 3.253q1.28 1.493 3.413 3.52 1.28 1.173 4.373 3.733l3.627 3.2 3.627-3.2q3.093-2.56 4.373-3.733 2.133-2.027 3.413-3.52 1.387-1.707 2.027-3.253t0.64-3.253q0-3.413-2.027-5.653-0.96-0.96-2.24-1.547t-2.773-0.587q-2.133 0-3.84 1.387-1.28 0.96-2.133 2.453-0.427 0.533-1.067 0.533t-1.067-0.533q-0.853-1.493-2.133-2.453-1.707-1.387-3.84-1.387z"></path>
</svg>
