<!-- Generated by IcoMoon.io -->
<svg version="1.1" xmlns="http://www.w3.org/2000/svg" width="32" height="32" viewBox="0 0 32 32">
<title>-hourglass</title>
<path d="M21.867 7.040v0-0.107q0.533-0.427 0.267-1.067t-1.013-0.64h-10.24q-0.747 0-1.013 0.64t0.267 1.067v0.107q0.853 0.96 4.587 4.053v0q0.533 0.427 1.28 0.427t1.28-0.427v0q3.733-3.093 4.587-4.053zM20.907 15.040q0.32-0.213 0.96-0.853v0q2.88-2.453 4.16-3.84 2.133-2.56 2.133-4.693v-1.92q0-1.493-1.067-2.613t-2.667-1.12h-16.853q-1.6 0-2.667 1.12t-1.067 2.613v1.92q0 2.133 2.133 4.693 1.28 1.387 4.16 3.84l0.96 0.853q0.427 0.427 0.427 0.96t-0.427 0.96l-0.96 0.853q-2.88 2.453-4.16 3.84-2.133 2.56-2.133 4.693v1.92q0 1.493 1.067 2.613t2.667 1.12h16.853q1.6 0 2.667-1.12t1.067-2.613q0-0.533-0.373-0.907t-0.853-0.373-0.853 0.373-0.373 0.907-0.373 0.907-0.907 0.373h-16.853q-0.533 0-0.907-0.373t-0.373-0.907v-1.92q0-1.387 1.92-3.52 1.173-1.173 3.52-3.093l1.067-0.853q1.28-1.173 1.28-2.88t-1.28-2.88l-1.067-0.853q-2.347-1.92-3.52-3.093-1.92-2.133-1.92-3.52v-1.92q0-0.533 0.373-0.907t0.907-0.373h16.853q0.533 0 0.907 0.373t0.373 0.907v1.92q0 1.387-1.92 3.52-1.173 1.173-3.52 3.093l-1.067 0.853q-1.28 1.173-1.28 2.88t1.28 2.88l1.173 0.853q2.56 2.133 3.627 3.413 0.32 0.427 0.853 0.427t0.907-0.32 0.427-0.853-0.267-0.96q-1.28-1.28-3.947-3.627l-1.067-0.853q-0.427-0.427-0.427-0.96t0.427-0.96z"></path>
</svg>
