<!-- Generated by IcoMoon.io -->
<svg version="1.1" xmlns="http://www.w3.org/2000/svg" width="32" height="32" viewBox="0 0 32 32">
<title>-info-1</title>
<path d="M1.28 32q-0.533 0-0.853-0.32t-0.373-0.693 0.053-0.693l2.773-7.040q-2.88-3.84-2.88-8.533 0-2.987 1.227-5.653t3.52-4.747 5.173-3.2 6.080-1.12 6.080 1.12 5.173 3.2 3.52 4.747 1.227 5.653q0 4.373-2.56 8-0.32 0.427-0.8 0.533t-0.907-0.213-0.533-0.8 0.213-0.907q2.133-2.987 2.133-6.453t-1.867-6.293-4.96-4.48-6.72-1.653-6.72 1.653-4.96 4.48-1.867 6.133q0 4.16 2.88 7.467 0.427 0.64 0.213 1.28l-2.027 4.907 5.76-2.56q0.533-0.213 0.96 0 2.773 1.173 5.76 1.173 3.52 0 6.613-1.493 0.427-0.32 0.907-0.16t0.747 0.64 0.107 0.96-0.693 0.693q-3.52 1.92-7.68 1.92-3.2 0-6.187-1.173l-8.107 3.52q-0.213 0.107-0.427 0.107zM17.28 20.267v-6.72q0-0.533-0.373-0.907t-0.907-0.373-0.907 0.373-0.373 0.907v6.72q0 0.533 0.373 0.907t0.907 0.373 0.907-0.373 0.373-0.907zM16 8q-0.533 0-0.907 0.373t-0.373 0.907v0q0 0.533 0.373 0.853t0.907 0.32 0.907-0.32 0.373-0.853v0q0-0.533-0.373-0.907t-0.907-0.373z"></path>
</svg>
