<!-- Generated by IcoMoon.io -->
<svg version="1.1" xmlns="http://www.w3.org/2000/svg" width="32" height="32" viewBox="0 0 32 32">
<title>-info</title>
<path d="M16 0q-4.373 0-8.053 2.133t-5.813 5.813-2.133 8.053 2.133 8.053 5.813 5.813 8.053 2.133 8.053-2.133 5.813-5.813 2.133-8.053-2.133-8.053-5.813-5.813-8.053-2.133zM16 30.933q-4.053 0-7.467-2.027t-5.44-5.44-2.027-7.467 2.027-7.467 5.44-5.44 7.467-2.027 7.467 2.027 5.44 5.44 2.027 7.467-2.027 7.467-5.44 5.44-7.467 2.027zM16 12.8q-0.213 0-0.373 0.16t-0.16 0.373v10.667q0 0.213 0.16 0.373t0.373 0.16 0.373-0.16 0.16-0.373v-10.667q0-0.213-0.16-0.373t-0.373-0.16zM16 7.467q-0.64 0-1.12 0.48t-0.48 1.12 0.48 1.12 1.12 0.48 1.12-0.48 0.48-1.12-0.48-1.12-1.12-0.48zM16 9.6q-0.213 0-0.373-0.16t-0.16-0.373 0.16-0.373 0.373-0.16 0.373 0.16 0.16 0.373-0.16 0.373-0.373 0.16z"></path>
</svg>
