<!-- Generated by IcoMoon.io -->
<svg version="1.1" xmlns="http://www.w3.org/2000/svg" width="32" height="32" viewBox="0 0 32 32">
<title>-jump-rope</title>
<path d="M31.573 26.453q0.107 0 0.267-0.107t0.16-0.32v-7.36q0-0.32-0.213-0.587t-0.533-0.373v-1.173q0-0.32-0.213-0.533t-0.533-0.213h-0.427q0-3.84-0.747-6.507-0.853-3.627-2.987-5.973-1.813-2.027-4.48-2.827t-5.547-0.267q-1.173-0.213-2.453-0.213l-0.107 0.107q-2.453 0.32-4.747 1.867t-4 4q-1.493 2.24-2.293 4.747t-0.907 5.067h-0.32q-0.32 0-0.533 0.213t-0.213 0.533v1.173q-0.32 0.107-0.533 0.373t-0.213 0.587v1.28q0 0.213 0.16 0.32t0.32 0.107 0.32-0.107 0.16-0.32v-1.387h2.667q0.107 0 0.107 0.107v9.813h-2.773v-6.507q0-0.213-0.16-0.373t-0.32-0.16-0.32 0.16-0.16 0.373v7.68q0 0.96 0.693 1.653t1.653 0.693v0q0.96 0 1.653-0.693t0.693-1.653v-10.987q0-0.32-0.213-0.587t-0.533-0.373v-1.173q0-0.32-0.213-0.533t-0.64-0.213h-0.32q0-2.347 0.8-4.747t2.293-4.533q1.6-2.347 3.68-3.733t4.32-1.813h0.213q-2.453 1.067-4.16 3.093-1.28 1.493-2.027 3.307-1.067 2.133-1.067 3.947 0 2.133 1.387 3.413 2.347 2.133 5.76 2.133h0.213q1.707 0 3.253-0.587t2.613-1.653v0q1.387-1.387 2.133-3.093 0-0.107-0.053-0.32t-0.213-0.267-0.373 0-0.32 0.267q-0.533 1.493-1.813 2.773-0.96 0.853-2.347 1.387t-2.88 0.64q-3.2 0-5.333-1.92-1.6-1.6-0.747-4.587 0.64-2.56 2.56-4.8 2.24-2.667 5.653-3.52 2.773 0.747 4.32 3.093t1.12 5.12q0 0.213 0.107 0.373t0.32 0.16 0.373-0.107 0.16-0.32q0.427-3.093-1.28-5.76-1.173-1.813-3.093-2.773 2.133-0.107 4.053 0.693t3.307 2.293q1.92 2.24 2.773 5.76 0.64 2.453 0.64 6.080h-0.32q-0.32 0-0.533 0.213t-0.213 0.533v1.173q-0.32 0.107-0.533 0.373t-0.213 0.587v10.987q0 0.96 0.693 1.653t1.653 0.693v0q0.96 0 1.653-0.693t0.693-1.653v-1.6q0-0.213-0.16-0.373t-0.32-0.16-0.32 0.16-0.16 0.373v0.427h-2.773v-9.813q0-0.107 0.107-0.107h2.667v7.467q0 0.213 0.16 0.32t0.373 0.107zM3.733 29.653q0 0.533-0.427 0.96t-0.96 0.427v0q-0.533 0-0.96-0.427t-0.427-0.96v-0.32h2.773v0.32zM2.987 17.707h-1.28v-0.96h1.28v0.96zM31.040 29.333v0.32q0 0.533-0.427 0.96t-0.96 0.427v0q-0.533 0-0.96-0.427t-0.427-0.96v-0.32h2.773zM29.013 17.707v-0.96h1.28v0.96h-1.28z"></path>
</svg>
