<!-- Generated by IcoMoon.io -->
<svg version="1.1" xmlns="http://www.w3.org/2000/svg" width="32" height="32" viewBox="0 0 32 32">
<title>-kettlebell</title>
<path d="M20.373 17.707q-0.64 0-1.067 0.427t-0.427 1.067v3.947q0 0.64 0.427 1.067t1.067 0.427 1.12-0.427 0.48-1.067v-3.947q0-0.64-0.48-1.067t-1.12-0.427zM24.533 10.56l1.28-6.507q0.32-1.493-0.747-2.773t-2.667-1.28h-12.8q-1.6 0-2.667 1.28t-0.747 2.773l1.28 6.507q-3.2 2.133-4.96 5.44t-1.867 7.040 1.6 7.040q0.427 0.853 1.227 1.387t1.867 0.533h21.333q0.96 0 1.813-0.533t1.28-1.387q1.707-3.413 1.6-7.147t-1.867-6.987-4.96-5.387zM13.867 26.347q-4.373 0.107-4.747-0.053t-0.533-0.64 0.16-1.013l2.987-4.053q0.64-0.96 0.747-1.707 0-0.427-0.373-0.8t-0.853-0.373-0.8 0.267-0.373 0.693-0.427 0.64-0.747 0.16-0.587-0.373-0.107-0.747q0.213-1.067 1.067-1.76t2.080-0.693 2.133 0.907 0.907 2.187q0 0.853-0.853 2.24-0.533 0.853-2.133 2.987l-0.213 0.32h2.56q0.427 0 0.693 0.267t0.267 0.64-0.267 0.64-0.587 0.267zM9.173 9.493l-1.173-5.76q-0.107-0.747 0.373-1.28t1.227-0.533h12.8q0.747 0 1.227 0.533t0.267 1.28l-1.067 5.76q-3.2-1.493-6.827-1.547t-6.827 1.547zM23.787 23.147q0 1.387-1.013 2.4t-2.4 1.013-2.4-1.013-1.013-2.4v-3.947q0-1.387 1.013-2.4t2.4-1.013 2.4 1.013 1.013 2.4v3.947z"></path>
</svg>
