<!-- Generated by IcoMoon.io -->
<svg version="1.1" xmlns="http://www.w3.org/2000/svg" width="32" height="32" viewBox="0 0 32 32">
<title>-kettlebell-1</title>
<path d="M26.773 14.72q0.32-0.32 0.213-0.853 0-0.213-0.107-0.533 1.92-2.773 1.92-5.333 0-3.733-2.080-5.867t-5.173-2.133h-11.093q-2.987 0-5.013 1.92-0.107 0.213-0.107 0.373t0.107 0.32 0.32 0.16 0.32-0.107q1.493-1.493 3.84-1.707v2.88q-1.28 0.107-1.92 0.96-1.067 1.067-1.067 3.2 0 1.28 1.067 2.987l-2.133 1.707q-1.707-2.453-1.707-4.693t0.853-3.84q0.107-0.213 0.053-0.427t-0.213-0.267-0.373 0-0.32 0.16q-0.96 1.92-0.96 4.427t1.92 5.28q-0.107 0.32-0.107 0.533-0.107 0.533 0.213 0.853l0.853 1.067q-1.173 2.453-1.173 5.12v5.44q0 2.347 1.653 4t4 1.653h10.88q2.347 0 4-1.653t1.653-4v-5.44q0-2.667-1.173-5.12zM26.027 14.187l-0.64 0.747-0.32-0.32q-1.173-1.813-2.987-2.987l0.32-0.427q0.107-0.213 0.32 0l3.2 2.56q0.107 0.107 0.16 0.213t-0.053 0.213zM27.84 8q0 2.24-1.707 4.693l-2.133-1.707q1.067-1.707 1.067-2.987 0-2.133-1.067-3.2-0.64-0.853-1.92-0.96v-2.88q2.347 0.213 3.84 1.707 1.92 1.92 1.92 5.333zM21.12 3.733h-10.24v-2.773h10.24v2.773zM5.973 14.187q-0.107-0.107-0.053-0.213t0.16-0.213l3.2-2.56q0.213-0.213 0.32 0l0.32 0.427q-2.027 1.28-3.307 3.307zM26.133 26.347q0 1.92-1.28 3.307 0.32-0.853 0.32-1.813v-4.267q0-2.24-1.067-4.053t-2.88-2.88-4.053-1.067h-2.347q-2.24 0-4.053 1.067t-2.88 2.88-1.067 4.053v1.92q0 0.213 0.107 0.32t0.32 0.107 0.32-0.107 0.107-0.32v-1.92q0-1.92 0.96-3.573t2.613-2.613 3.573-0.96h2.347q1.92 0 3.573 0.96t2.613 2.613 0.96 3.573v4.267q0 1.387-0.96 2.293t-2.24 0.907h-10.24q-1.28 0-2.24-0.907t-0.96-2.293v-0.32q0-0.213-0.107-0.32t-0.32-0.107-0.32 0.107-0.107 0.32v0.32q0 0.96 0.32 1.813-1.28-1.387-1.28-3.307v-5.44q0-2.773 1.333-5.12t3.68-3.68 5.12-1.333q0.96 0 1.813 0.107 0.213 0.107 0.373 0t0.213-0.32-0.053-0.373-0.32-0.16q-0.96-0.213-2.027-0.213-2.773 0-5.227 1.28l-0.427-0.427q-0.32-0.427-0.747-0.48t-0.853 0.16q-0.853-1.387-0.853-2.347 0-1.707 0.64-2.507t1.92-0.8h11.093q1.28 0 1.92 0.8t0.64 2.507q0 0.96-0.853 2.347-0.427-0.213-0.853-0.16t-0.747 0.48l-0.427 0.427q-0.64-0.32-1.173-0.533-0.213-0.107-0.373 0t-0.267 0.267 0 0.373 0.213 0.213q2.88 1.173 4.693 3.733l0.533 0.853q1.28 2.24 1.28 4.907v5.44zM16 28.48q1.92 0 3.307-1.387t1.387-3.36-1.387-3.36-3.307-1.387-3.307 1.387-1.387 3.36 1.387 3.36 3.307 1.387zM16 19.947q1.6 0 2.667 1.12t1.067 2.667-1.067 2.667-2.667 1.12-2.667-1.12-1.067-2.667 1.067-2.667 2.667-1.12z"></path>
</svg>
