<!-- Generated by IcoMoon.io -->
<svg version="1.1" xmlns="http://www.w3.org/2000/svg" width="32" height="32" viewBox="0 0 32 32">
<title>-link-1</title>
<path d="M18.56 19.947l-1.813-1.92q-0.213-0.213-0.48-0.213t-0.48 0.213-0.213 0.48 0.213 0.48l1.92 1.813q0.32 0.427 0.32 0.96t-0.32 0.96l-7.573 7.573q-0.427 0.427-0.853 0.427v0q-0.533 0-0.96-0.427l-6.613-6.613q-0.32-0.427-0.32-0.96t0.32-0.96l7.573-7.467q0.32-0.427 0.907-0.427t0.907 0.427l1.28 1.28q0.213 0.213 0.48 0.16t0.427-0.213 0.16-0.427-0.107-0.48l-1.28-1.28q-0.747-0.747-1.867-0.747t-1.867 0.747l-7.467 7.467q-0.853 0.853-0.853 1.92t0.853 1.92l6.507 6.507q0.853 0.853 1.92 0.853v0q1.067 0 1.813-0.853l7.467-7.467q0.853-0.747 0.853-1.867t-0.853-1.867zM31.147 7.36l-6.507-6.613q-0.747-0.747-1.867-0.747t-1.867 0.747l-7.467 7.573q-0.853 0.747-0.853 1.813t0.853 1.92l0.96 1.067q0.213 0.107 0.48 0.107t0.48-0.16 0.213-0.427-0.213-0.48l-1.067-1.067q-0.32-0.427-0.32-0.96t0.32-0.96l7.573-7.467q0.32-0.427 0.853-0.427t0.96 0.427l6.613 6.613q0.32 0.32 0.32 0.853t-0.32 0.96l-7.573 7.573q-0.427 0.427-0.853 0.427v0q-0.533 0-0.96-0.427l-1.6-1.6q-0.213-0.213-0.48-0.213t-0.48 0.16-0.213 0.427 0.213 0.48l1.6 1.6q0.853 0.853 1.92 0.853v0q1.067 0 1.813-0.853l7.467-7.467q0.853-0.747 0.853-1.867t-0.853-1.867zM21.867 9.6q-0.213-0.213-0.48-0.213t-0.48 0.213l-11.52 11.627q-0.213 0.213-0.213 0.48t0.16 0.48 0.48 0.213 0.427-0.213l11.627-11.627q0.213-0.213 0.213-0.48t-0.213-0.48z"></path>
</svg>
