<!-- Generated by IcoMoon.io -->
<svg version="1.1" xmlns="http://www.w3.org/2000/svg" width="32" height="32" viewBox="0 0 32 32">
<title>-link</title>
<path d="M16 31.040q-1.387 0-2.347-0.96l-6.507-5.973q-1.173-1.067-1.173-2.613t1.173-2.613l6.507-5.973q0.96-0.96 2.347-0.96t2.347 0.96l1.493 1.387q0.107 0.107 0.16 0.32t-0.107 0.373-0.373 0.16-0.32-0.107l-1.493-1.387q-0.747-0.64-1.707-0.64t-1.707 0.64l-6.507 5.973q-0.747 0.747-0.747 1.867t0.747 1.867l6.507 5.973q0.747 0.64 1.707 0.64t1.707-0.64l6.507-5.973q0.747-0.747 0.747-1.867t-0.747-1.867l-2.027-1.813q-0.213-0.213-0.213-0.427t0.16-0.32 0.373-0.16 0.32 0.16l2.027 1.813q1.173 1.067 1.173 2.613t-1.173 2.613l-6.507 5.973q-0.96 0.96-2.347 0.96zM16 20.053q-1.387 0-2.347-0.96l-1.493-1.387q-0.107-0.107-0.16-0.32t0.107-0.373 0.373-0.16 0.32 0.107l1.493 1.387q0.747 0.64 1.707 0.64t1.707-0.64l6.507-5.973q0.747-0.747 0.747-1.867t-0.747-1.867l-6.507-5.973q-0.747-0.64-1.707-0.64t-1.707 0.64l-6.507 5.973q-0.747 0.747-0.747 1.867t0.747 1.867l2.027 1.813q0.213 0.213 0.213 0.427t-0.16 0.32-0.373 0.16-0.32-0.16l-2.027-1.813q-1.173-1.067-1.173-2.613t1.173-2.613l6.507-5.973q0.96-0.96 2.347-0.96t2.347 0.96l6.507 5.973q1.173 1.067 1.173 2.613t-1.173 2.613l-6.507 5.973q-0.96 0.96-2.347 0.96z"></path>
</svg>
