<!-- Generated by IcoMoon.io -->
<svg version="1.1" xmlns="http://www.w3.org/2000/svg" width="32" height="32" viewBox="0 0 32 32">
<title>-loupe</title>
<path d="M14.080 0q-3.84 0-7.040 1.92t-5.12 5.12-1.92 7.040 1.92 7.093 5.12 5.12 7.040 1.867 7.093-1.867 5.12-5.12 1.867-7.093-1.867-7.040-5.12-5.12-7.093-1.92zM14.080 25.6q-3.093 0-5.76-1.547t-4.213-4.213-1.547-5.76 1.547-5.76 4.213-4.213 5.76-1.547 5.76 1.547 4.213 4.213 1.547 5.76-1.547 5.76-4.213 4.213-5.76 1.547zM31.573 29.76l-7.36-7.467q-0.427-0.32-0.96-0.32t-0.907 0.373-0.373 0.907 0.32 0.96l7.467 7.36q0.427 0.427 0.96 0.427t0.907-0.373 0.373-0.907-0.427-0.96z"></path>
</svg>
