<!-- Generated by IcoMoon.io -->
<svg version="1.1" xmlns="http://www.w3.org/2000/svg" width="32" height="32" viewBox="0 0 32 32">
<title>-mail</title>
<path d="M30.72 21.973q0.533 0 0.907-0.373t0.373-0.8v-8.747q0-1.28-0.587-2.4t-1.76-1.867l-2.987-1.92v-4.587q0-0.533-0.373-0.907t-0.907-0.373h-18.773q-0.533 0-0.907 0.373t-0.373 0.907v4.587l-2.987 1.92q-1.173 0.747-1.76 1.867t-0.587 2.4v14.933q0 2.133 1.44 3.573t3.573 1.44h21.973q2.133 0 3.573-1.44t1.44-3.573q0-0.533-0.373-0.907t-0.907-0.373-0.853 0.373-0.32 0.907q0 1.067-0.747 1.813t-1.813 0.747h-21.973q-1.067 0-1.813-0.747t-0.747-1.813v-13.333l10.88 6.72q1.28 0.853 2.667 0.853t2.667-0.853l10.88-6.72v7.147q0 0.427 0.32 0.8t0.853 0.373zM28.373 9.92q0.533 0.427 0.853 0.96l-2.56 1.6v-3.627zM3.627 9.92l1.707-1.067v3.627l-2.56-1.6q0.32-0.533 0.853-0.96zM17.28 18.347q-0.533 0.32-1.28 0.32t-1.28-0.32l-6.933-4.373v-11.52h16.427v11.52zM17.28 9.92v4.907q0 0.533-0.373 0.907t-0.907 0.373-0.907-0.373-0.373-0.907v-4.907q0-0.533 0.373-0.907t0.907-0.373 0.907 0.373 0.373 0.907zM17.28 5.867q0 0.533-0.373 0.907t-0.907 0.373-0.907-0.373-0.373-0.907 0.373-0.907 0.907-0.373 0.907 0.373 0.373 0.907z"></path>
</svg>
