<!-- Generated by IcoMoon.io -->
<svg version="1.1" xmlns="http://www.w3.org/2000/svg" width="32" height="32" viewBox="0 0 32 32">
<title>-measure</title>
<path d="M2.773 20.16h0.213q0.64 0.32 1.28 0.533 3.093 0.853 8.213 0.853h18.453q0.107 0 0.267-0.107t0.16-0.213v-5.76q0-0.107-0.16-0.213t-0.267-0.107l-6.72-0.107v-2.56q0-0.853-1.173-1.493-0.853-0.533-2.453-0.96-3.307-0.853-8.107-0.853t-8.213 0.853q-1.493 0.427-2.347 0.96-1.28 0.64-1.28 1.493v5.013q0 1.6 2.133 2.667zM25.6 15.787l4.907 0.107v4.907h-4.907v-5.013zM1.387 13.653q0.747 0.533 1.92 0.96 0.213 0 0.373-0.107t0.107-0.32-0.267-0.32q-2.027-0.64-2.027-1.28t1.333-1.227 3.787-1.013q2.667-0.427 5.867-0.427t5.867 0.427q2.347 0.427 3.733 1.013t1.387 1.12-1.28 1.067-3.413 0.96q-2.56 0.427-5.547 0.533l-1.707-0.107q-2.987 0-5.547-0.427-0.107-0.107-0.267 0.053t-0.16 0.267v0q0 0.32 0.32 0.427 2.987 0.533 6.613 0.533h12.373v5.013h-1.92v-1.067q0-0.107-0.107-0.213t-0.267-0.107-0.267 0.107-0.107 0.213v1.067h-2.027v-2.453q0-0.107-0.107-0.267t-0.267-0.16-0.267 0.16-0.107 0.267v2.453h-2.027v-1.067q0-0.107-0.107-0.213t-0.267-0.107-0.267 0.107-0.107 0.213v1.067h-2.133v-2.453q0-0.107-0.107-0.267t-0.267-0.16-0.267 0.16-0.107 0.267v2.453h-2.027v-1.067q0-0.107-0.107-0.213t-0.267-0.107-0.267 0.107-0.107 0.213v1.067l-2.027-0.107v-2.453q0-0.213-0.107-0.32t-0.267-0.107-0.267 0.107-0.107 0.32v2.347q-1.067-0.107-2.027-0.213v-1.173q0-0.213-0.107-0.32t-0.267-0.107-0.267 0.107-0.107 0.32v0.96l-0.96-0.213-1.067-0.32v-2.56q0-0.213-0.107-0.32t-0.267-0.107-0.267 0.107-0.107 0.32v2.133q-1.28-0.747-1.28-1.707v-3.84zM23.467 13.76v1.28h-3.52l0.64-0.107q1.92-0.533 2.88-1.173zM28.16 17.067q-0.427 0-0.747 0.213t-0.48 0.533-0.053 0.693 0.373 0.64 0.64 0.373 0.693-0.053 0.533-0.48 0.213-0.747-0.32-0.8-0.853-0.373zM28.16 18.773q-0.427 0-0.533-0.267t0.107-0.533 0.533-0.16 0.32 0.427-0.107 0.427-0.32 0.107zM18.987 22.080q-0.107 0-0.213 0.107t-0.107 0.267 0.107 0.267 0.213 0.107h0.853q0.213 0 0.32-0.107t0.107-0.267-0.107-0.267-0.32-0.107h-0.853zM12.48 22.080q-2.773 0-5.013-0.32-0.213 0-0.373 0.16t-0.053 0.373 0.32 0.213q2.24 0.32 5.12 0.32h5.013q0.213 0 0.32-0.107t0.107-0.267-0.107-0.267-0.32-0.107h-5.013zM12.48 13.653q1.067 0 2.027-0.107 1.707-0.32 1.707-1.067t-1.707-1.067q-0.96-0.213-2.027-0.213t-2.027 0.213q-1.707 0.32-1.707 1.067t1.707 1.067q0.96 0.107 2.027 0.107zM12.48 11.947q1.067 0 1.867 0.16t1.013 0.373q-0.213 0.107-1.013 0.267t-1.92 0.16-1.867-0.16-1.067-0.267q0.32-0.213 1.067-0.373t1.92-0.16zM7.147 14.187q2.24 0.533 5.333 0.533t5.333-0.533q2.453-0.64 2.453-1.707t-2.453-1.707q-2.24-0.533-5.333-0.533t-5.333 0.533q-2.453 0.64-2.453 1.707t2.453 1.707zM7.36 11.52q2.133-0.533 5.12-0.533t5.12 0.533q1.067 0.213 1.493 0.48t0.427 0.427-0.427 0.48-1.493 0.533q-2.133 0.533-5.12 0.533t-5.12-0.533q-1.067-0.213-1.493-0.533t-0.427-0.48 0.427-0.427 1.493-0.48z"></path>
</svg>
