<!-- Generated by IcoMoon.io -->
<svg version="1.1" xmlns="http://www.w3.org/2000/svg" width="32" height="32" viewBox="0 0 32 32">
<title>-menu</title>
<path d="M30.827 13.12q1.173 1.173 1.173 2.88t-1.173 2.827-2.827 1.12-2.827-1.12-1.173-2.827 1.173-2.88 2.827-1.173 2.827 1.173zM18.88 13.12q1.173 1.173 1.173 2.88t-1.173 2.827-2.88 1.12-2.827-1.12-1.12-2.827 1.12-2.88 2.827-1.173 2.88 1.173zM6.827 13.12q1.173 1.173 1.173 2.88t-1.173 2.827-2.827 1.12-2.827-1.12-1.173-2.827 1.173-2.88 2.827-1.173 2.827 1.173z"></path>
</svg>
