<!-- Generated by IcoMoon.io -->
<svg version="1.1" xmlns="http://www.w3.org/2000/svg" width="32" height="32" viewBox="0 0 32 32">
<title>-phone-call</title>
<path d="M29.44 21.12q-2.987 0-5.653-0.96-0.747-0.213-1.44-0.053t-1.12 0.587l-3.627 2.773q-3.093-1.707-5.227-3.84t-3.84-5.227l2.667-3.52q0.533-0.533 0.693-1.227t-0.053-1.333q-0.853-2.773-0.853-5.76 0-1.067-0.747-1.813t-1.813-0.747h-5.867q-1.067 0-1.813 0.747t-0.747 1.813q0 8 4.053 14.827 3.84 6.72 10.56 10.56 6.827 4.053 14.827 4.053 1.067 0 1.813-0.747t0.747-1.813v-5.867q0-1.067-0.747-1.76t-1.813-0.693z"></path>
</svg>
