<!-- Generated by IcoMoon.io -->
<svg version="1.1" xmlns="http://www.w3.org/2000/svg" width="32" height="32" viewBox="0 0 32 32">
<title>-placeholder</title>
<path d="M16.427 32h-0.853q-0.64 0-0.96-0.533-0.96-1.493-2.347-3.093-0.747-0.96-2.453-2.773v0q-1.707-1.92-2.453-2.773-1.28-1.493-2.027-2.88-2.133-3.413-2.133-7.147 0-2.56 0.96-4.907t2.773-4.16 4.16-2.773 4.907-0.96 4.907 0.96 4.16 2.773 2.773 4.16 0.96 4.907q0 4.053-2.667 8-0.213 0.427-0.747 0.48t-0.96-0.213-0.533-0.8 0.213-0.96q2.24-3.2 2.24-6.507 0-2.773-1.387-5.173t-3.787-3.787-5.173-1.387-5.173 1.387-3.787 3.787-1.387 5.173q0 2.133 0.853 4.053 0.747 1.707 2.24 3.627 0.853 1.067 2.88 3.413v0q2.987 3.307 4.373 5.12 1.387-1.92 4.373-5.12l0.107-0.213q0.427-0.427 0.907-0.427t0.907 0.32 0.427 0.853-0.32 0.96l-0.213 0.213q-1.707 1.813-2.453 2.773-1.387 1.6-2.347 3.093-0.32 0.533-0.96 0.533zM17.28 19.2v-6.72q0-0.533-0.373-0.907t-0.907-0.373-0.907 0.373-0.373 0.907v6.72q0 0.533 0.373 0.907t0.907 0.373 0.907-0.373 0.373-0.907zM16 6.827q-0.533 0-0.907 0.373t-0.373 0.907v0q0 0.533 0.373 0.907t0.907 0.373 0.907-0.373 0.373-0.907v0q0-0.533-0.373-0.907t-0.907-0.373z"></path>
</svg>
