<!-- Generated by IcoMoon.io -->
<svg version="1.1" xmlns="http://www.w3.org/2000/svg" width="32" height="32" viewBox="0 0 32 32">
<title>-pointed-star</title>
<path d="M20.48 12.267q-0.213 0-0.48-0.16t-0.373-0.373l-3.413-10.667q-0.107-0.32-0.213-0.32t-0.213 0.32l-3.413 10.667q-0.107 0.213-0.373 0.373t-0.48 0.16h-11.2q-0.32 0-0.32 0.107t0.213 0.32l9.067 6.507q0.213 0.213 0.267 0.48t0.053 0.587l-3.52 10.667q-0.107 0.213 0 0.267t0.32-0.053l9.067-6.613q0.213-0.107 0.533-0.107t0.533 0.107l9.067 6.613q0.213 0.107 0.32 0.053t0-0.267l-3.52-10.667q0-0.32 0.053-0.587t0.267-0.48l9.067-6.507q0.213-0.213 0.213-0.32t-0.32-0.107h-11.2z"></path>
</svg>
