<!-- Generated by IcoMoon.io -->
<svg version="1.1" xmlns="http://www.w3.org/2000/svg" width="32" height="32" viewBox="0 0 32 32">
<title>-punching-bag</title>
<path d="M26.667 0h-21.333q-0.213 0-0.427 0.16t-0.213 0.48v2.667q0 0.32 0.213 0.48t0.427 0.16h8.64q-0.213 0.533-0.213 1.067t0.267 1.013 0.8 0.8q-2.133 2.133-3.947 4.48-4.8 6.187-4.8 10.773 0 2.667 1.333 4.96t3.627 3.627 4.96 1.333 4.96-1.333 3.627-3.627 1.333-4.96q0-4.693-4.8-10.88-1.813-2.347-3.947-4.373 0.533-0.32 0.8-0.8t0.267-1.013-0.213-1.067h8.64q0.213 0 0.427-0.16t0.213-0.48v-2.667q0-0.32-0.213-0.48t-0.427-0.16zM16 30.72q-0.747 0-1.387-0.587t-1.173-1.76q-1.28-2.56-1.28-6.187t1.493-8.213q0.96-3.093 2.347-6.080 1.387 2.987 2.347 5.973 1.493 4.693 1.493 8.32t-1.28 6.187q-0.533 1.173-1.173 1.76t-1.387 0.587zM7.36 22.080q0-2.987 2.24-6.827 1.6-2.773 4.267-5.653l-0.747 1.813q-2.24 6.080-2.24 10.667 0 3.947 1.387 6.827 0.32 0.747 0.747 1.28-2.56-0.853-4.107-3.093t-1.547-5.013zM24.64 22.080q0 2.773-1.547 5.013t-4.107 3.093q0.427-0.533 0.747-1.28 1.387-2.88 1.387-6.827 0-4.587-2.24-10.667l-0.747-1.813q2.667 2.88 4.267 5.653 2.24 3.84 2.24 6.827zM16.96 4.907q0 0.427-0.267 0.693t-0.693 0.267-0.693-0.267-0.267-0.64 0.267-0.693 0.693-0.32 0.693 0.32 0.267 0.64zM26.027 2.773h-20.053v-1.493h20.053v1.493z"></path>
</svg>
