<!-- Generated by IcoMoon.io -->
<svg version="1.1" xmlns="http://www.w3.org/2000/svg" width="32" height="32" viewBox="0 0 32 32">
<title>-quotes</title>
<path d="M6.507 27.52h-0.107q-0.427-0.107-0.427-0.533v-9.707h-5.44q-0.213 0-0.373-0.16t-0.16-0.373v-11.733q0-0.213 0.16-0.373t0.373-0.16h12.48q0.213 0 0.373 0.16t0.16 0.373v11.733q0 0.213-0.107 0.32l-6.507 10.24q-0.107 0.213-0.427 0.213zM0.96 16.32h5.547q0.213 0 0.373 0.107t0.16 0.32v8.533l5.44-8.64v-11.093h-11.52v10.773zM24.96 27.52h-0.107q-0.32-0.107-0.32-0.533v-9.707h-5.547q-0.213 0-0.373-0.16t-0.16-0.373v-11.733q0-0.213 0.16-0.373t0.373-0.16h12.48q0.213 0 0.373 0.16t0.16 0.373v11.733q0 0.213-0.107 0.32l-6.507 10.24q-0.107 0.213-0.427 0.213zM19.52 16.32h5.44q0.213 0 0.373 0.107t0.16 0.32v8.533l5.547-8.64v-11.093h-11.52v10.773z"></path>
</svg>
