<!-- Generated by IcoMoon.io -->
<svg version="1.1" xmlns="http://www.w3.org/2000/svg" width="32" height="32" viewBox="0 0 32 32">
<title>-scales</title>
<path d="M28.053 0.64h-24.107q-1.173 0-2.027 0.853t-0.853 2.027v24.427q0 1.387 0.96 2.4t2.347 1.013h23.253q1.387 0 2.347-1.013t0.96-2.4v-24.427q0-1.173-0.853-2.027t-2.027-0.853zM30.187 27.947q0 1.067-0.747 1.867t-1.813 0.8h-23.253q-1.067 0-1.813-0.8t-0.747-1.867v-0.533q0.853 0.853 2.133 0.853h24.107q1.28 0 2.133-0.853v0.533zM30.187 25.493q0 0.853-0.64 1.44t-1.493 0.587h-24.107q-0.853 0-1.493-0.587t-0.64-1.44v-21.973q0-0.853 0.64-1.493t1.493-0.64h24.107q0.853 0 1.493 0.64t0.64 1.493v21.973zM3.093 4.8q-0.107 0-0.213 0.107t-0.107 0.32v5.333q0 0.213 0.107 0.32t0.267 0.107 0.267-0.107 0.107-0.32v-5.333q0-0.213-0.107-0.32t-0.32-0.107zM3.093 3.2q-0.107 0-0.213 0.107t-0.107 0.32v0.32q0 0.107 0.107 0.213t0.267 0.107 0.267-0.107 0.107-0.213v-0.32q0-0.213-0.107-0.32t-0.32-0.107zM10.24 10.987h11.52q0.107 0 0.213-0.107t0.107-0.32v-1.493q0-2.56-1.76-4.32t-4.32-1.76h-0.107q-2.453 0-4.213 1.76t-1.76 4.32v1.493q0 0.213 0.107 0.32t0.213 0.107zM15.467 10.24q0.32-0.32 0.533-0.32t0.533 0.32h-1.067zM11.947 5.547l0.32 0.213q0.107 0.107 0.267 0.107t0.267-0.107 0.107-0.267-0.107-0.267l-0.32-0.213q1.387-1.173 3.093-1.28v0.32q0 0.213 0.107 0.32t0.267 0.107 0.267-0.107 0.107-0.32v-0.32q1.813 0.107 3.2 1.28l-0.32 0.213q-0.107 0.107-0.107 0.267t0.107 0.267 0.267 0.107 0.267-0.107l0.32-0.213q1.173 1.28 1.28 3.093h-0.427q-0.107 0-0.213 0.107t-0.107 0.267 0.107 0.267 0.213 0.107h0.427v0.853h-4.053q-0.107-0.533-0.48-0.8t-0.8-0.267v0l-1.173-2.347q-0.107-0.107-0.213-0.16t-0.267 0-0.213 0.213 0.053 0.267l1.067 2.347q-0.427 0.213-0.533 0.747h-4.053v-0.853h0.427q0.107 0 0.213-0.107t0.107-0.267-0.107-0.267-0.213-0.107h-0.427q0.107-1.813 1.28-3.093zM26.773 13.973h-6.187q-0.427 0-0.8 0.213t-0.48 0.64l-0.533 1.6q-0.32 0.853-1.067 1.44t-1.707 0.587-1.707-0.533-1.067-1.493l-0.533-1.6q-0.213-0.427-0.533-0.64t-0.747-0.213h-3.2q-0.107 0-0.213 0.107t-0.107 0.267 0.107 0.267 0.213 0.107h3.2q0.427 0 0.533 0.32l0.533 1.6q0.427 1.173 1.387 1.867t2.133 0.693 2.133-0.693 1.387-1.867l0.533-1.6q0.107-0.32 0.533-0.32h6.187q0.213 0 0.373 0.16t0.16 0.373v9.6q0 0.213-0.16 0.373t-0.373 0.16h-21.547q-0.213 0-0.373-0.16t-0.16-0.373v-9.6q0-0.213 0.16-0.373t0.373-0.16h0.533q0.107 0 0.213-0.107t0.107-0.267-0.107-0.267-0.213-0.107h-0.533q-0.533 0-0.907 0.373t-0.373 0.907v9.6q0 0.533 0.373 0.907t0.907 0.373h21.547q0.533 0 0.907-0.373t0.373-0.907v-9.6q0-0.533-0.373-0.907t-0.907-0.373z"></path>
</svg>
