<!-- Generated by IcoMoon.io -->
<svg version="1.1" xmlns="http://www.w3.org/2000/svg" width="32" height="32" viewBox="0 0 32 32">
<title>-schedule</title>
<path d="M30.293 5.013h-4.053v-1.6q0-0.213-0.16-0.32t-0.373-0.107-0.32 0.107-0.107 0.32v1.6h-5.547v-1.6q0-0.213-0.16-0.32t-0.32-0.107-0.32 0.107-0.16 0.32v1.6h-5.547v-1.6q0-0.213-0.16-0.32t-0.32-0.107-0.32 0.107-0.16 0.32v1.6h-2.24q-0.213 0-0.373 0.107t-0.16 0.32 0.16 0.373 0.373 0.16h2.24v0.96q-0.533 0.107-0.853 0.533t-0.32 1.067 0.48 1.12 1.173 0.48 1.173-0.48 0.48-1.12-0.32-1.067-0.853-0.533v-0.96h5.547v0.96q-0.533 0.107-0.853 0.533t-0.32 1.067 0.48 1.12 1.173 0.48 1.173-0.48 0.48-1.12-0.32-1.067-0.853-0.533v-0.96h5.547v0.96q-0.533 0.107-0.853 0.533t-0.32 1.067 0.48 1.12 1.173 0.48 1.173-0.48 0.48-1.12-0.373-1.067-0.8-0.533v-0.96h4.053q0.32 0 0.533 0.213t0.213 0.533v3.307q0 0.213 0.16 0.32t0.32 0.107 0.32-0.107 0.16-0.32v-3.307q0-0.747-0.48-1.227t-1.227-0.48zM13.44 8.427q0 0.32-0.213 0.533t-0.48 0.213-0.48-0.213-0.213-0.533 0.213-0.533v0.107q0 0.213 0.16 0.373t0.32 0.16 0.32-0.16 0.16-0.373v-0.107q0.213 0.213 0.213 0.533zM19.947 8.427q0 0.32-0.213 0.533t-0.48 0.213-0.48-0.213-0.213-0.533 0.213-0.533v0.107q0 0.213 0.16 0.373t0.32 0.16 0.32-0.16 0.16-0.373v-0.107q0.213 0.213 0.213 0.533zM26.453 8.427q0 0.32-0.213 0.533t-0.533 0.213-0.533-0.213-0.213-0.533 0.32-0.533v0.107q0 0.213 0.107 0.373t0.32 0.16 0.373-0.16 0.16-0.373v-0.107q0.213 0.213 0.213 0.533zM31.573 11.52q-0.213 0-0.373 0.16t-0.16 0.373v15.253q0 0.32-0.213 0.587t-0.533 0.267h-28.587q-0.32 0-0.533-0.267t-0.213-0.587v-20.587q0-0.32 0.213-0.533t0.533-0.213h4.053v0.96q-0.427 0.107-0.8 0.533t-0.373 1.067 0.48 1.12 1.173 0.48 1.173-0.48 0.48-1.12-0.32-1.067-0.853-0.533v-0.96h1.28q0.213 0 0.32-0.16t0.107-0.373-0.107-0.32-0.32-0.107h-1.28v-1.6q0-0.213-0.107-0.32t-0.32-0.107-0.373 0.107-0.16 0.32v1.6h-4.053q-0.747 0-1.227 0.48t-0.48 1.227v20.587q0 0.747 0.48 1.227t1.227 0.48h28.587q0.747 0 1.227-0.48t0.48-1.227v-15.253q0-0.213-0.16-0.373t-0.267-0.16zM7.040 8.427q0 0.32-0.213 0.533t-0.533 0.213-0.533-0.213-0.213-0.533 0.213-0.533v0.107q0 0.213 0.16 0.373t0.373 0.16 0.32-0.16 0.107-0.373v-0.107q0.32 0.213 0.32 0.533zM10.347 12.693h-2.027q-0.533 0-0.96 0.427t-0.427 0.96v1.813h-0.64q-0.533 0-0.853 0.373t-0.32 0.907v3.413q0 0.533 0.32 0.907t0.853 0.373h0.64v1.813q0 0.533 0.427 0.96t0.96 0.427h2.027q0.533 0 0.907-0.427t0.373-0.96v-2.773h1.067q0.213 0 0.373-0.107t0.16-0.32-0.16-0.32-0.373-0.107h-1.067v-2.347h8.747v2.347h-5.547q-0.213 0-0.373 0.107t-0.16 0.32 0.16 0.32 0.373 0.107h5.547v2.773q0 0.533 0.373 0.96t0.907 0.427h2.027q0.533 0 0.96-0.427t0.427-0.96v-1.813h0.64q0.533 0 0.853-0.373t0.32-0.907v-3.413q0-0.533-0.32-0.907t-0.853-0.373h-0.64v-1.813q0-0.533-0.427-0.96t-0.96-0.427h-2.027q-0.533 0-0.907 0.427t-0.373 0.96v2.667h-8.747v-2.667q0-0.533-0.373-0.96t-0.907-0.427zM25.707 16.853q0.213 0 0.213 0.32v3.413q0 0.32-0.213 0.32h-0.64v-4.053h0.64zM21.333 14.080q0-0.213 0.107-0.32t0.213-0.107h2.027q0.213 0 0.32 0.107t0.107 0.32v9.6q0 0.213-0.107 0.32t-0.32 0.107h-2.027q-0.107 0-0.213-0.107t-0.107-0.32v-9.6zM6.293 20.907q-0.213 0-0.213-0.32v-3.413q0-0.32 0.213-0.32h0.64v4.053h-0.64zM10.667 23.68q0 0.213-0.107 0.32t-0.213 0.107h-2.027q-0.213 0-0.32-0.107t-0.107-0.32v-9.6q0-0.213 0.107-0.32t0.32-0.107h2.027q0.107 0 0.213 0.107t0.107 0.32v9.6z"></path>
</svg>
