<!-- Generated by IcoMoon.io -->
<svg version="1.1" xmlns="http://www.w3.org/2000/svg" width="32" height="32" viewBox="0 0 32 32">
<title>-settings-1</title>
<path d="M17.173 22.4v0q0 0.533-0.373 0.853t-0.907 0.32v0q-0.427 0-0.8-0.32t-0.373-0.853v0q0-0.533 0.373-0.907t0.8-0.373v0q0.533 0 0.907 0.373t0.373 0.907zM17.28 18.347v0q0-0.747 0.533-0.96 1.28-0.533 2.080-1.707t0.8-2.667v0q0-1.92-1.387-3.253t-3.307-1.333-3.307 1.333-1.387 3.253q0 0.533 0.373 0.907t0.907 0.373 0.853-0.373 0.32-0.907q0-0.853 0.693-1.493t1.547-0.64 1.547 0.64 0.693 1.493v0.107q-0.107 0.64-0.427 1.173t-0.96 0.747q-0.96 0.427-1.547 1.333t-0.587 1.973v0q0 0.533 0.373 0.907t0.907 0.373 0.907-0.373 0.373-0.907zM20.373 28.267v-0.64q0-0.32 0.32-0.427v0q0.213-0.107 0.427 0.107l0.427 0.427q1.067 1.067 2.667 1.067t2.667-1.067q0.32-0.32 0.32-0.853t-0.373-0.907-0.853-0.373-0.853 0.373-0.907 0.373-0.853-0.32l-0.427-0.533q-0.64-0.533-1.547-0.747t-1.653 0.213v0q-0.853 0.32-1.333 1.067t-0.48 1.6v0.64q0 0.533-0.373 0.907t-0.907 0.373h-1.28q-0.533 0-0.907-0.373t-0.373-0.907v-0.64q0-0.853-0.48-1.6t-1.333-1.067v0q-0.747-0.427-1.653-0.213t-1.547 0.747l-0.427 0.533q-0.32 0.32-0.853 0.32t-0.853-0.32l-0.96-0.96q-0.32-0.32-0.32-0.853t0.32-0.853l0.533-0.427q0.533-0.64 0.747-1.547t-0.213-1.653v0q-0.32-0.853-1.067-1.333t-1.6-0.48h-0.64q-0.533 0-0.907-0.373t-0.373-0.907v-1.28q0-0.533 0.373-0.907t0.907-0.373h0.64q0.853 0 1.6-0.48t1.067-1.333v0q0.427-0.747 0.213-1.653t-0.747-1.547l-0.533-0.427q-0.32-0.32-0.32-0.853t0.32-0.853l0.96-0.96q0.32-0.32 0.853-0.32t0.853 0.32l0.427 0.533q0.64 0.533 1.547 0.747t1.653-0.213v0q0.853-0.32 1.333-1.067t0.48-1.6v-0.64q0-0.533 0.373-0.907t0.907-0.373h1.28q0.533 0 0.907 0.373t0.373 0.907v0.64q0 0.853 0.48 1.6t1.333 1.067v0q0.747 0.427 1.653 0.213t1.547-0.747l0.427-0.533q0.32-0.32 0.853-0.32t0.853 0.32l0.96 0.96q0.32 0.32 0.32 0.853t-0.32 0.853l-0.533 0.427q-0.533 0.64-0.747 1.547t0.213 1.653v0q0.32 0.853 1.067 1.333t1.6 0.48h0.64q0.533 0 0.907 0.373t0.373 0.907v1.28q0 0.533-0.373 0.907t-0.907 0.373h-0.64q-0.853 0-1.6 0.48t-1.067 1.333v0q-0.427 0.747-0.213 1.653t0.747 1.547q0.427 0.32 0.96 0.32t0.853-0.373 0.32-0.907-0.32-0.853q-0.213-0.213-0.107-0.427v0q0.107-0.32 0.427-0.32h0.64q1.493 0 2.613-1.12t1.12-2.613v-1.28q0-1.493-1.12-2.613t-2.613-1.12h-0.64q-0.32 0-0.427-0.32v0q-0.107-0.213 0.107-0.427l0.427-0.427q1.067-1.067 1.067-2.667t-1.067-2.667l-0.853-0.853q-1.067-1.173-2.613-1.173t-2.72 1.173l-0.427 0.427q-0.213 0.213-0.427 0.107v0q-0.32-0.107-0.32-0.427v-0.64q0-1.493-1.12-2.613t-2.613-1.12h-1.28q-1.493 0-2.613 1.12t-1.12 2.613v0.64q0 0.32-0.32 0.427v0q-0.213 0.107-0.427-0.107l-0.427-0.427q-1.173-1.173-2.72-1.173t-2.613 1.173l-0.853 0.853q-1.067 1.067-1.067 2.667t1.067 2.667l0.427 0.427q0.213 0.213 0.107 0.427v0q-0.107 0.32-0.427 0.32h-0.64q-1.493 0-2.613 1.12t-1.12 2.613v1.28q0 1.493 1.12 2.613t2.613 1.12h0.64q0.32 0 0.427 0.32v0q0.107 0.213-0.107 0.427l-0.427 0.427q-1.173 1.173-1.173 2.72t1.173 2.613l0.853 0.853q1.067 1.067 2.667 1.067t2.667-1.067l0.427-0.427q0.213-0.213 0.427-0.107v0q0.32 0.107 0.32 0.427v0.64q0 1.493 1.12 2.613t2.613 1.12h1.28q1.493 0 2.613-1.12t1.12-2.613z"></path>
</svg>
