<!-- Generated by IcoMoon.io -->
<svg version="1.1" xmlns="http://www.w3.org/2000/svg" width="32" height="32" viewBox="0 0 32 32">
<title>-settings</title>
<path d="M30.293 25.067l-4.267-4.16q0.64-1.28 0.64-2.453 0-2.56-1.813-4.373-1.067-1.067-2.613-1.653t-3.253-0.587v0q-1.067 0-2.24 0.32-0.64 0.213-0.8 0.907t0.373 1.227l2.987 2.987-0.32 1.707-1.6 0.32-3.093-3.093q-0.533-0.427-1.173-0.267t-0.853 0.8q-0.427 1.173-0.427 2.24 0 1.387 0.427 2.72t1.173 2.4q0.853 1.28 2.187 1.92t2.72 0.64h0.107q1.173 0 2.453-0.533l4.267 4.16q1.067 1.067 2.56 1.067t2.56-1.12 1.067-2.613-1.067-2.56v0zM28.587 28.48q-0.427 0.32-0.907 0.32t-0.8-0.32l-4.907-4.8q-0.32-0.32-0.8-0.32t-0.8 0.213-0.907 0.427-1.013 0.213h-0.107q-1.707 0-2.88-1.6-0.853-1.173-1.067-2.773l1.707 1.707q0.427 0.533 1.067 0.32l3.093-0.64q0.747-0.213 0.96-0.96l0.64-3.093q0.213-0.64-0.32-1.067l-1.6-1.707q1.92 0.32 3.093 1.44t1.173 2.613q0 0.32-0.213 0.96t-0.48 1.013-0.267 0.853 0.427 0.8l4.907 4.8q0.32 0.32 0.32 0.8t-0.32 0.8zM2.453 5.653q0-0.96 0.747-1.707t1.813-0.747h4.693q1.067 0 1.813 0.747t0.747 1.707v0.213q0 0.427 0.373 0.8t0.907 0.373h14.72q0.533 0 0.907 0.373t0.373 0.907v11.413q0 0.427 0.32 0.8t0.853 0.373 0.907-0.373 0.373-0.8v-11.413q0-1.6-1.12-2.667t-2.613-1.067h-13.653q-0.427-1.707-1.76-2.827t-3.147-1.12h-4.693q-2.133 0-3.573 1.493t-1.44 3.52v19.307q0 2.133 1.44 3.573t3.573 1.44h8.853q0.533 0 0.907-0.373t0.373-0.853-0.373-0.853-0.907-0.373h-8.853q-1.067 0-1.813-0.747t-0.747-1.813v-19.307z"></path>
</svg>
