<!-- Generated by IcoMoon.io -->
<svg version="1.1" xmlns="http://www.w3.org/2000/svg" width="32" height="32" viewBox="0 0 32 32">
<title>-shower-head</title>
<path d="M12.16 0.107h-10.987q-0.427 0-0.8 0.373t-0.373 0.853 0.373 0.853 0.8 0.373h9.92q0.213-1.387 1.067-2.453zM19.093 6.72v-3.52q0-1.28-0.907-2.187t-2.080-0.907-2.027 0.693-1.067 1.76v0q-0.107 0.32-0.107 2.347v1.813h6.187zM0.64 19.413v2.24q0 0.213 0.16 0.32t0.267 0.107h29.867q0.107 0 0.267-0.107t0.16-0.32v-2.24q0-0.213-0.16-0.32t-0.267-0.107h-29.867q-0.107 0-0.267 0.107t-0.16 0.32zM3.947 15.787v1.28h24.107v-1.28q0-2.027-0.96-3.627t-2.56-2.56-3.627-1.067h-9.813q-2.027 0.107-3.627 1.067t-2.56 2.56-0.96 3.627zM0.96 25.813q-0.427 0-0.693 0.32t-0.267 0.64v0.213q0 0.427 0.267 0.693t0.64 0.267 0.693-0.267 0.32-0.693v-0.213q0-0.32-0.32-0.64t-0.64-0.32zM8.427 25.813q-0.32 0-0.587 0.32t-0.267 0.64v0.213q0 0.427 0.267 0.693t0.64 0.267 0.64-0.267 0.267-0.693v-0.213q0-0.32-0.267-0.64t-0.693-0.32zM16 25.813q-0.427 0-0.693 0.32t-0.267 0.64v0.213q0 0.427 0.267 0.693t0.693 0.267 0.693-0.267 0.267-0.693v-0.213q0-0.32-0.267-0.64t-0.693-0.32zM23.573 25.813q-0.427 0-0.693 0.32t-0.267 0.64v0.213q0 0.427 0.267 0.693t0.64 0.267 0.64-0.267 0.267-0.693v-0.213q0-0.32-0.267-0.64t-0.587-0.32zM31.040 25.813q-0.32 0-0.64 0.32t-0.32 0.64v0.213q0 0.427 0.32 0.693t0.693 0.267 0.64-0.267 0.267-0.693v-0.213q0-0.32-0.267-0.64t-0.693-0.32zM4.693 29.76q-0.427 0-0.693 0.32t-0.267 0.64v0.213q0 0.427 0.267 0.693t0.693 0.267 0.693-0.267 0.267-0.693v-0.213q0-0.32-0.267-0.64t-0.693-0.32zM12.267 29.76q-0.427 0-0.693 0.32t-0.267 0.64v0.213q0 0.427 0.267 0.693t0.64 0.267 0.64-0.267 0.267-0.693v-0.213q0-0.32-0.267-0.64t-0.587-0.32zM19.733 29.76q-0.32 0-0.587 0.32t-0.267 0.64v0.213q0 0.427 0.267 0.693t0.64 0.267 0.64-0.267 0.267-0.693v-0.213q0-0.32-0.267-0.64t-0.693-0.32zM27.307 29.76q-0.427 0-0.693 0.32t-0.267 0.64v0.213q0 0.427 0.267 0.693t0.693 0.267 0.693-0.267 0.267-0.693v-0.213q0-0.32-0.267-0.64t-0.693-0.32z"></path>
</svg>
