<!-- Generated by IcoMoon.io -->
<svg version="1.1" xmlns="http://www.w3.org/2000/svg" width="32" height="32" viewBox="0 0 32 32">
<title>-shower</title>
<path d="M24.533 21.973q-0.107 0-0.213 0.16t-0.107 0.267v8.427q0 0.213 0.107 0.32t0.267 0.107 0.267-0.107 0.107-0.32v-8.427q0-0.107-0.107-0.267t-0.32-0.16zM24.96 20.8q0-0.213-0.107-0.32t-0.267-0.107-0.267 0.107-0.107 0.32v0.32q0 0.107 0.107 0.213t0.267 0.107 0.267-0.107 0.107-0.213v-0.32zM4.373 17.92h17.493q0.213 0 0.32-0.107t0.107-0.213v-0.853q0-0.64-0.427-1.173t-1.067-0.64v-1.707q0-1.493-1.067-2.507t-2.56-1.013h-2.88v-0.96q0-2.24 1.653-3.893t3.947-1.653 3.947 1.653 1.653 3.893v22.187q0 0.107 0.107 0.267t0.32 0.16h1.707q0.427 0 0.427-0.427v-22.187q0-2.133-1.12-4t-2.987-2.987-4.053-1.12-4.053 1.12-2.987 2.987-1.12 4v0.96h-2.667q-1.493 0-2.56 1.013t-1.067 2.507v1.707q-0.64 0.107-1.013 0.64t-0.373 1.173v0.747q0 0.213 0.107 0.32t0.213 0.107zM12.48 8.747q0-1.92 1.013-3.627t2.72-2.72 3.68-1.013 3.68 1.013 2.667 2.72 0.96 3.627v21.867h-0.96v-21.867q0-1.707-0.853-3.147t-2.293-2.293-3.2-0.853-3.2 0.853-2.293 2.293-0.853 3.147v0.96h-1.067v-0.96zM9.067 10.453h8.107q1.067 0 1.867 0.693t0.907 1.653h-13.76q0.213-0.96 1.013-1.653t1.867-0.693zM4.8 16.747q0-0.427 0.267-0.747t0.693-0.32h1.493q0.107 0 0.213-0.107t0.107-0.267-0.107-0.267-0.213-0.107h-1.067v-1.387h13.867v1.387h-10.347q-0.107 0-0.213 0.107t-0.107 0.267 0.107 0.267 0.213 0.107h10.773q0.427 0 0.747 0.32t0.32 0.747v0.427h-16.747v-0.427zM11.307 22.187q0.533 0.107 0.907-0.427t0.053-1.067l-0.64-1.387q-0.107-0.32-0.373-0.32t-0.373 0.32l-0.64 1.387q-0.32 0.533 0.053 1.067t1.013 0.427zM10.88 20.907l0.427-0.747 0.32 0.747q0.107 0.213 0 0.373t-0.373 0.16-0.373-0.16 0-0.373zM7.573 22.187q0.64 0.107 0.96-0.427t0.107-1.067l-0.64-1.387q-0.107-0.32-0.427-0.32t-0.427 0.32l-0.64 1.387q-0.213 0.533 0.107 1.067t0.96 0.427zM7.147 20.907l0.427-0.747 0.32 0.747q0.107 0.213 0 0.373t-0.32 0.16-0.373-0.16-0.053-0.373zM16 20.693l-0.64-1.387q-0.107-0.32-0.373-0.32t-0.48 0.213l-0.64 1.493q-0.213 0.533 0.107 1.013t0.96 0.48 1.013-0.48 0.053-1.013zM15.36 21.333q-0.213 0.107-0.427 0.107t-0.32-0.16 0-0.373l0.32-0.747 0.427 0.747q0.107 0.213 0 0.427zM19.733 20.693l-0.64-1.493q-0.107-0.213-0.427-0.213t-0.427 0.213l-0.64 1.493q-0.213 0.533 0.107 1.013t0.96 0.48 0.96-0.48 0.107-1.013zM18.987 21.333q-0.107 0.107-0.32 0.107t-0.32-0.16 0-0.373l0.32-0.747 0.427 0.747q0 0.213-0.107 0.427zM12.267 25.067l-0.64-1.387q-0.107-0.32-0.373-0.32t-0.373 0.32l-0.64 1.387q-0.32 0.533 0.053 1.067t0.96 0.533 0.96-0.533 0.053-1.067zM11.627 25.707q-0.107 0.213-0.373 0.213t-0.373-0.16 0-0.373l0.427-0.853 0.32 0.853q0.107 0.213 0 0.32zM8.64 25.067l-0.64-1.387q-0.107-0.32-0.427-0.32t-0.427 0.32l-0.64 1.387q-0.213 0.533 0.107 1.067t0.96 0.533 0.96-0.533 0.107-1.067zM7.893 25.707q-0.107 0.213-0.32 0.213t-0.373-0.16-0.053-0.373l0.427-0.853 0.32 0.853q0.107 0.213 0 0.32zM16 25.067l-0.64-1.387q-0.107-0.32-0.373-0.32t-0.48 0.32l-0.64 1.387q-0.213 0.533 0.107 1.067t0.96 0.533 1.013-0.533 0.053-1.067zM15.36 25.707q-0.213 0.213-0.427 0.213t-0.32-0.16 0-0.373l0.32-0.853 0.427 0.853q0.107 0.213 0 0.32zM19.733 25.067l-0.64-1.387q-0.107-0.32-0.427-0.32t-0.427 0.32l-0.64 1.387q-0.213 0.533 0.107 1.067t0.96 0.533 0.96-0.533 0.107-1.067zM18.987 25.707q-0.107 0.213-0.32 0.213t-0.32-0.16 0-0.373l0.32-0.853 0.427 0.853q0 0.213-0.107 0.32zM11.307 27.84q-0.32 0-0.427 0.213l-0.64 1.493q-0.32 0.533 0.053 1.013t0.96 0.48 0.96-0.48 0.053-1.013l-0.64-1.493q-0.107-0.213-0.32-0.213zM11.627 30.187q-0.107 0.107-0.373 0.107t-0.373-0.16 0-0.373l0.427-0.747 0.32 0.747q0.107 0.213 0 0.427zM7.573 27.84q-0.32 0-0.427 0.213l-0.64 1.493q-0.213 0.533 0.107 1.013t0.96 0.48 0.96-0.48 0.107-1.013l-0.64-1.493q-0.107-0.213-0.427-0.213zM7.893 30.187q-0.107 0.107-0.32 0.107t-0.373-0.16-0.053-0.373l0.427-0.747 0.32 0.747q0.107 0.213 0 0.427zM14.933 27.84q-0.213 0-0.427 0.213l-0.64 1.493q-0.213 0.533 0.107 1.013t0.96 0.48 1.013-0.48 0.053-1.013l-0.64-1.493q-0.107-0.213-0.427-0.213zM15.36 30.187q-0.213 0.107-0.427 0.107t-0.32-0.16 0-0.373l0.32-0.747 0.427 0.747q0.107 0.213 0 0.427zM18.667 27.84q-0.32 0-0.427 0.213l-0.64 1.493q-0.213 0.533 0.107 1.013t0.96 0.48 0.96-0.48 0.107-1.013l-0.64-1.493q-0.107-0.213-0.427-0.213zM18.987 30.187q-0.107 0.107-0.32 0.107t-0.32-0.16 0-0.373l0.32-0.747 0.427 0.747q0 0.213-0.107 0.427z"></path>
</svg>
