<!-- Generated by IcoMoon.io -->
<svg version="1.1" xmlns="http://www.w3.org/2000/svg" width="32" height="32" viewBox="0 0 32 32">
<title>-shopping-cart</title>
<path d="M10.24 24.853q-1.387 0-2.4 1.013t-1.013 2.4 1.013 2.347 2.4 0.96 2.347-0.96 0.96-2.347-0.96-2.4-2.347-1.013zM10.24 30.080q-0.853 0-1.387-0.533t-0.533-1.333 0.533-1.333 1.333-0.533 1.333 0.533 0.533 1.333-0.533 1.333-1.28 0.533zM24.32 24.853q-1.387 0-2.347 1.013t-0.96 2.4 0.96 2.347 2.347 0.96 2.347-0.96 0.96-2.347-0.96-2.4-2.347-1.013zM24.32 30.080q-0.747 0-1.28-0.533t-0.533-1.333 0.533-1.333 1.28-0.533 1.28 0.533 0.533 1.333-0.533 1.333-1.28 0.533zM31.893 5.44q-0.32-0.32-0.64-0.32l-24.213-0.32-0.64-2.027q-0.32-1.067-1.227-1.707t-1.973-0.64h-2.453q-0.32 0-0.533 0.213t-0.213 0.533 0.213 0.533 0.533 0.213h2.453q0.64 0 1.12 0.373t0.693 0.907l4.693 14.187-0.32 0.853q-0.32 0.853-0.267 1.707t0.533 1.547 1.227 1.12 1.6 0.427h14.4q0.32 0 0.533-0.213t0.213-0.533-0.213-0.533-0.533-0.213h-14.4q-1.067 0-1.6-0.853t-0.107-1.813l0.213-0.64 15.68-1.6q1.28-0.213 2.24-1.067t1.28-2.027l1.813-7.467q0.107-0.427-0.107-0.64zM28.693 13.12q-0.107 0.853-0.747 1.387t-1.493 0.64l-15.467 1.6-3.413-10.453 22.72 0.32z"></path>
</svg>
