<!-- Generated by IcoMoon.io -->
<svg version="1.1" xmlns="http://www.w3.org/2000/svg" width="32" height="32" viewBox="0 0 32 32">
<title>-speed-bag</title>
<path d="M18.773 12.053v0q0.213 0 0.427-0.213t0.213-0.427v-1.6q0-0.213-0.213-0.373t-0.427-0.16h-1.6v-6.080h3.093q0.96 0 1.6-0.64t0.64-1.493q0-0.107-0.107-0.267t-0.32-0.16h-12.16q-0.213 0-0.32 0.16t-0.107 0.267q0 0.853 0.64 1.493t1.6 0.64h3.093v6.080h-1.493q-0.213 0-0.373 0.16t-0.16 0.48v1.493q0 0.213 0.16 0.427t0.373 0.213l-2.453 3.307q-1.387 1.813-1.867 4.213t-0.053 4.8 1.813 4.213q1.067 1.28 2.347 2.027t2.773 0.747h0.107q1.493-0.107 2.827-0.8t2.293-2.080q1.387-1.813 1.867-4.213t0.053-4.8-1.813-4.213zM11.733 2.453q-0.533 0-0.907-0.267t-0.48-0.8h11.307q-0.107 0.533-0.48 0.8t-0.907 0.267h-8.533zM16.427 3.2v6.080h-0.853v-6.080h0.853zM15.68 30.507q-0.96-0.32-1.813-2.453t-0.96-5.227q0-0.213-0.107-0.32t-0.267-0.107-0.267 0.16-0.107 0.267q0.107 3.307 1.067 5.653 0.427 1.067 0.96 1.813-1.6-0.64-2.773-2.133-1.92-2.56-1.92-6.187t1.92-6.187l2.88-3.733h0.213l-1.28 3.413q-0.747 2.027-0.96 4.8 0 0.213 0.107 0.32t0.373 0.107 0.267-0.32q0.213-2.773 0.96-4.693l1.387-3.627h0.32v18.453zM13.547 11.307v-1.28h5.12v1.28h-5.12zM16.427 30.4v-18.347h0.32l1.387 3.52q0.96 2.667 0.96 6.293t-1.067 6.293q-0.64 1.813-1.6 2.24zM20.587 28.053q-1.173 1.493-2.773 2.133 0.533-0.747 0.96-1.813 1.067-2.667 1.067-6.507t-1.067-6.507l-1.28-3.307h0.32l2.773 3.627q1.92 2.56 1.92 6.187t-1.92 6.187zM11.2 20.053q0-0.213-0.16-0.373t-0.373-0.053-0.213 0.32q-0.32 1.707-0.107 3.573t1.067 3.253q0.107 0.107 0.213 0.16t0.267 0 0.213-0.213-0.053-0.267q-0.747-1.387-0.96-3.040t0.107-3.36zM10.987 19.093q0.213 0.107 0.32 0l0.213-0.213 0.213-0.533q0.107-0.213-0.053-0.373t-0.373-0.16-0.32 0.213l-0.213 0.64q0 0.107 0.053 0.267t0.16 0.16z"></path>
</svg>
