<!-- Generated by IcoMoon.io -->
<svg version="1.1" xmlns="http://www.w3.org/2000/svg" width="32" height="32" viewBox="0 0 32 32">
<title>-sport</title>
<path d="M12.48 22.4q0.213 0.107 0.373 0.107t0.32-0.107 0.16-0.32-0.107-0.32l-3.307-3.2q-0.107-0.213-0.32-0.213t-0.32 0.16-0.107 0.373 0.107 0.32zM7.68 20.587l3.307 3.307q0.107 0.107 0.32 0.107t0.32-0.16 0.107-0.32-0.107-0.373l-3.2-3.2q-0.213-0.107-0.373-0.107t-0.32 0.107-0.16 0.32 0.107 0.32zM31.893 4.8l-4.693-4.693q-0.107-0.107-0.32-0.107t-0.32 0.16-0.107 0.32 0.107 0.373l0.32 0.213-1.6 1.6-0.32-0.32q-0.747-0.747-1.867-0.747t-1.867 0.747l-1.387 1.387q-0.213 0.213-0.213 0.533t0.107 0.533l-0.96 0.96q-1.28-0.64-2.72-0.427t-2.507 1.28l-1.067 0.96q-0.427 0.427-0.587 0.747t-0.053 0.96q0 0.427-0.267 0.907t-0.747 0.96-0.96 0.747-0.907 0.267q-0.64-0.107-0.96 0.053t-0.747 0.587l-6.613 6.72q-0.64 0.533-0.64 1.44t0.64 1.547l8.853 8.853q0.64 0.64 1.547 0.64t1.44-0.64l6.72-6.613q0.427-0.427 0.587-0.747t0.053-0.96q0-0.427 0.267-0.907t0.747-0.96 0.96-0.747 0.907-0.267q0.64 0.107 0.96-0.053t0.64-0.587l1.067-1.067q1.067-1.067 1.28-2.507t-0.427-2.72l0.96-0.96q0.213 0.107 0.533 0.107v0q0.32 0 0.533-0.213l1.387-1.387q0.747-0.747 0.747-1.867t-0.747-1.867l-0.32-0.32 1.6-1.6 0.213 0.32q0.213 0.107 0.373 0.107t0.32-0.107 0.16-0.32-0.107-0.32zM18.56 24l-5.227 5.227-4.8-4.8q-0.107-0.107-0.32-0.107t-0.32 0.107-0.107 0.32 0.107 0.32l4.8 4.8-0.853 0.853q-0.32 0.32-0.8 0.32t-0.907-0.32l-8.853-8.853q-0.32-0.427-0.32-0.907t0.32-0.8l0.853-0.853 4.267 4.267q0.107 0.107 0.32 0.107t0.32-0.16 0.107-0.32-0.107-0.373l-4.267-4.16 5.227-5.333 10.667 10.667h-0.107zM18.88 23.573v0 0zM25.493 12.587l-0.107 0.107q-0.32 0.427-0.107 0.853l0.107 0.107q0.533 1.067 0.373 2.187t-1.013 1.973l-1.173 1.173-4.693-4.693q-0.107-0.107-0.32-0.107t-0.373 0.107-0.16 0.32 0.213 0.32l4.267 4.373q-1.173 0-2.4 1.227t-1.227 2.4l-9.813-9.813q1.173-0.107 2.4-1.28t1.227-2.347l3.947 3.947q0.107 0.107 0.32 0.107t0.373-0.107 0.16-0.32-0.213-0.32l-4.267-4.373 1.173-1.173q0.853-0.853 1.973-1.013t2.187 0.373l0.107 0.107q0.427 0.213 0.853-0.107l1.067-1.173 6.187 6.187zM28.907 10.133l-1.173 1.28-7.147-7.147 1.28-1.173q0.533-0.533 1.227-0.533t1.227 0.533l4.587 4.587q0.533 0.533 0.533 1.227t-0.533 1.227zM28.693 6.080l-2.773-2.773 1.6-1.6 2.773 2.773z"></path>
</svg>
