<!-- Generated by IcoMoon.io -->
<svg version="1.1" xmlns="http://www.w3.org/2000/svg" width="32" height="32" viewBox="0 0 32 32">
<title>-stationary-bike</title>
<path d="M28.053 2.667q-0.107-0.533-0.533-0.853t-0.96-0.32h-4.8q-1.173 0-1.973 0.853t-0.8 1.92v0.427q0 1.173 0.8 1.973t1.973 0.8h1.707q0.32 0 0.64-0.267t0.32-0.64-0.32-0.64-0.64-0.267h-1.707q-0.32 0-0.64-0.267t-0.32-0.693v-0.427q0-0.32 0.32-0.587t0.64-0.267h4.587l2.773 11.947q-1.067-0.64-2.347-0.853-0.96-0.213-9.493-1.813l-8.533-1.493v-4.587h1.813q1.173 0 1.973-0.8t0.8-1.973v-0.213q0-0.96-0.64-1.76t-1.707-1.013l-5.12-0.853q-1.493-0.213-2.56 0.747t-1.067 2.347v0.427q0 1.28 0.907 2.187t2.187 0.907h1.493v4.48q-2.88 0.32-4.853 2.507t-1.973 5.173q0 2.027 1.067 3.84t2.88 2.827 3.84 1.013h18.133q2.453 0 4.267-1.76t1.813-4.213q0-0.64-0.213-1.493zM7.787 22.507q-1.493 0-2.613-1.12t-1.12-2.613 1.12-2.613 2.613-1.12 2.613 1.12 1.12 2.613-1.12 2.613-2.613 1.12zM7.787 16.96q-0.747 0-1.28 0.533t-0.533 1.28 0.533 1.28 1.28 0.533 1.28-0.533 0.533-1.28-0.533-1.28-1.28-0.533zM30.72 28.373h-29.44q-0.533 0-0.907 0.373t-0.373 0.8v1.173q0 0.533 0.373 0.907t0.907 0.373h29.44q0.533 0 0.907-0.373t0.373-0.907v-1.173q0-0.427-0.373-0.8t-0.907-0.373z"></path>
</svg>
