<!-- Generated by IcoMoon.io -->
<svg version="1.1" xmlns="http://www.w3.org/2000/svg" width="32" height="32" viewBox="0 0 32 32">
<title>-star</title>
<path d="M31.893 12.267q-0.107-0.533-0.533-0.853t-0.853-0.32l-9.28-0.853-3.627-8.533q-0.213-0.533-0.64-0.8t-0.96-0.267-0.96 0.267-0.64 0.8l-3.627 8.533-9.28 0.853q-0.427 0-0.853 0.32t-0.587 0.853 0 1.013 0.48 0.8l7.040 6.080-2.027 9.173q-0.107 0.427 0.053 0.907t0.587 0.8 0.96 0.32 0.853-0.213l8-4.8 8 4.8q0.427 0.213 0.907 0.213t0.907-0.32 0.587-0.8 0.053-0.907l-2.027-9.173 7.040-6.080q0.32-0.32 0.48-0.8t-0.053-1.013z"></path>
</svg>
