<!-- Generated by IcoMoon.io -->
<svg version="1.1" xmlns="http://www.w3.org/2000/svg" width="32" height="32" viewBox="0 0 32 32">
<title>-stationary-bike-1</title>
<path d="M30.507 27.2h-4.48q1.707-0.96 2.72-2.667t1.013-3.733q0-2.453-1.387-4.373-0.107-0.213-0.32-0.213t-0.373 0.107-0.16 0.32 0.107 0.32q1.173 1.707 1.173 3.84 0 1.707-0.853 3.2t-2.293 2.347-3.253 0.853h-15.467q-1.6 0-2.667-1.12t-1.067-2.667 1.067-2.667 2.667-1.12h2.56q1.707 0 3.307-0.693t2.667-1.973 2.453-1.92 2.987-0.64h1.493q2.133 0 3.84 1.28 0.213 0.107 0.373 0.053t0.32-0.213 0.107-0.32-0.16-0.267q-1.493-1.067-3.2-1.387v-0.96q0.427-0.107 0.747-0.533t0.32-0.96-0.32-0.96-0.747-0.533v-1.067q0.32 0.213 0.747 0.213 0.853 0 1.44-0.587t0.587-1.44-0.533-1.44-1.493-0.587h-5.013q-0.64 0-1.013 0.427t-0.373 1.013 0.373 0.96 1.013 0.373h1.387v5.973q-1.707 0-3.307 0.747t-2.613 1.973-2.453 1.92-2.933 0.693h-1.707q-0.427-1.493-0.853-3.84-0.533-2.987 1.493-6.4 0.427-0.32 0.64-0.853l0.64 0.32q0.32 0.107 0.64 0.107t0.693-0.213 0.587-0.693 0-1.013-0.747-0.747l-4.053-1.813q-0.213-0.107-0.587-0.107t-0.693 0.213-0.533 0.64 0 0.96l0.107 0.32-0.747-0.213q-0.427-0.107-0.427-0.533v-2.56q0-0.213-0.107-0.32t-0.32-0.107-0.373 0.107-0.16 0.32v2.56q0 0.533 0.32 0.96t0.853 0.533l1.6 0.32v0.64q-0.427 0.747-0.747 1.493 0 0.213 0.053 0.373t0.267 0.267h0.107q0.32 0 0.533-0.32l0.32-0.853q0.427 0.32 0.853 0.427-1.707 3.413-1.067 6.4 0.427 2.133 0.747 3.627-0.427 0-0.96 0.107-0.32-1.493-0.747-3.52t0.213-4.267q0-0.213-0.107-0.373t-0.267-0.213-0.32 0.053-0.267 0.32q-0.64 2.347-0.213 4.587t0.853 3.627q-1.28 0.64-2.027 1.76t-0.747 2.613q0 1.067 0.48 2.080t1.333 1.653h-2.56q-0.64 0-1.067 0.427t-0.427 1.013 0.427 1.013 1.067 0.427h29.013q0.64 0 1.067-0.427t0.427-1.013-0.427-1.013-1.067-0.427zM22.4 13.44h-0.64v-1.6q0.32 0.533 0.96 0.747v0.853h-0.32zM23.147 11.733q-0.213 0-0.427-0.16t-0.213-0.48 0.213-0.48 0.48-0.16 0.48 0.16 0.213 0.48-0.213 0.48-0.533 0.16zM18.88 6.080q0-0.213 0.16-0.32t0.373-0.107h5.013q0.427 0 0.747 0.267t0.32 0.747-0.32 0.8-0.693 0.32-0.693-0.213-0.373-0.587-0.48-0.373h-3.52q-0.213 0-0.373-0.16t-0.16-0.373zM22.613 7.467q0 0.107 0.107 0.32v1.813q-0.64 0.213-0.96 0.747v-2.88h0.853zM5.867 4.693q0.107-0.32 0.427-0.32l0.213 0.107 3.947 1.813q0.213 0 0.267 0.213t-0.053 0.427-0.427 0.213h-0.107l-0.96-0.427q-0.107-0.64-0.587-1.013t-1.013-0.373-0.96 0.213l-0.533-0.213q-0.107-0.107-0.213-0.267t0-0.373zM6.72 7.040q0-0.32 0.213-0.533t0.533-0.213 0.533 0.213 0.213 0.533-0.213 0.533-0.533 0.213-0.533-0.213-0.213-0.533zM30.507 29.227h-29.013q-0.213 0-0.373-0.16t-0.16-0.373 0.16-0.373 0.373-0.16h29.013q0.213 0 0.373 0.16t0.16 0.373-0.16 0.373-0.373 0.16zM11.52 25.813q0 0.213 0.16 0.32t0.373 0.107h10.347q2.347 0 3.947-1.6t1.6-3.84-1.6-3.84-3.947-1.6h-1.493q-1.387 0-2.613 0.533t-2.080 1.6q-1.28 1.493-3.040 2.293t-3.68 0.8h-2.56q-1.173 0-2.027 0.853t-0.853 2.027 0.853 1.973 2.027 0.8h3.093q0.107 0 0.267-0.107t0.16-0.32-0.16-0.373-0.267-0.16h-3.093q-0.747 0-1.333-0.533t-0.587-1.333 0.587-1.333 1.333-0.533h2.56q2.133 0 4.107-0.907t3.36-2.613q0.747-0.853 1.76-1.333t2.187-0.48h1.493q1.92 0 3.253 1.333t1.333 3.2-1.333 3.2-3.253 1.333h-10.347q-0.213 0-0.373 0.16t-0.16 0.373zM17.067 22.613q0 0.533 0.373 0.96t1.013 0.427h1.387q0.64 0 0.96-0.427 0.747 0.32 1.493 0.32 1.28 0 2.187-0.907t0.907-2.187-0.907-2.187-2.187-0.907-2.187 0.907-0.907 2.187v0.427h-0.747q-0.64 0-1.013 0.373t-0.373 1.013zM22.293 18.667q0.853 0 1.493 0.587t0.64 1.493-0.64 1.547-1.493 0.64q-0.64 0-1.067-0.213v-0.107q0-0.32-0.107-0.533l1.387-0.96q0.213-0.107 0.213-0.267t-0.107-0.32-0.267-0.213-0.373 0.053l-1.493 0.96-0.32-0.107-0.107-0.427q0-0.96 0.64-1.547t1.6-0.587zM20.053 22.933q-0.107 0.107-0.213 0.107h-1.387q-0.213 0-0.373-0.107t-0.16-0.32 0.16-0.373 0.373-0.16h1.067q0.213 0.533 0.533 0.853z"></path>
</svg>
