<!-- Generated by IcoMoon.io -->
<svg version="1.1" xmlns="http://www.w3.org/2000/svg" width="32" height="32" viewBox="0 0 32 32">
<title>-stopwatch</title>
<path d="M16 6.4q-3.093 0-5.76 1.6t-4.213 4.213-1.547 5.76 1.547 5.813 4.213 4.213 5.76 1.547 5.76-1.547 4.213-4.213 1.547-5.813-1.547-5.76-4.213-4.213-5.76-1.6zM16 28.8q-2.88 0-5.387-1.44t-3.947-3.947-1.44-5.44 1.44-5.387 3.947-3.947 5.387-1.493 5.387 1.493 3.947 3.947 1.44 5.387-1.44 5.44-3.947 3.947-5.387 1.44zM25.067 8.213l1.28-1.6q0.32-0.533 0.213-1.12t-0.587-0.96-1.067-0.267-0.907 0.533l-1.28 1.707q-2.56-1.6-5.653-1.813v-1.28h1.387q0.213 0 0.32-0.107t0.107-0.213v-0.853q0-0.64-0.48-1.12t-1.12-0.48h-2.56q-0.64 0-1.12 0.48t-0.48 1.12v0.853q0 0.107 0.107 0.213t0.32 0.107h1.173v1.28q-2.88 0.32-5.333 1.813l-1.28-1.707q-0.533-0.64-1.387-0.533t-1.173 0.853 0.213 1.493l1.173 1.6q-2.027 1.92-3.147 4.48t-1.12 5.333q0 3.627 1.813 6.667t4.853 4.853 6.667 1.813 6.667-1.813 4.853-4.853 1.813-6.667q0-2.773-1.12-5.333t-3.147-4.48zM24.533 5.333q0.213-0.32 0.48-0.373t0.533 0.16 0.32 0.48-0.16 0.587l-1.173 1.6q-0.533-0.533-1.173-0.853zM13.867 2.667v-0.427q0-0.32 0.267-0.587t0.587-0.267h2.56q0.32 0 0.587 0.267t0.267 0.587v0.427h-4.267zM16.32 3.413v1.28h-0.853v-1.28h0.853zM6.4 6.080q-0.213-0.213-0.16-0.48t0.267-0.48 0.533-0.16 0.427 0.267l1.28 1.6q-0.64 0.427-1.173 0.853zM16 30.613q-3.413 0-6.293-1.707t-4.587-4.587-1.707-6.293 1.707-6.293 4.587-4.587 6.293-1.707 6.293 1.707 4.587 4.587 1.707 6.293-1.707 6.293-4.587 4.587-6.293 1.707zM16 10.88q-2.24 0-4.16 1.28-0.107 0.107-0.107 0.32t0.213 0.32 0.427 0q1.92-1.493 4.427-1.173t4.107 2.187 1.493 4.373-1.813 4.267-4.16 1.92-4.373-1.387-2.347-4 0.96-4.48q0.213-0.32 0-0.533v0q-0.107-0.107-0.32-0.107t-0.32 0.213q-1.173 1.813-1.173 3.84t0.96 3.68 2.613 2.613 3.573 0.96 3.573-0.96 2.613-2.613 0.96-3.573-0.96-3.573-2.613-2.613-3.573-0.96zM15.893 10.24q0.213 0 0.32-0.107t0.107-0.32v-1.707q0-0.107-0.107-0.213t-0.267-0.107-0.267 0.107-0.107 0.213v1.707q0 0.213 0.107 0.32t0.213 0.107zM16.107 25.707q-0.213 0-0.32 0.107t-0.107 0.32v1.707q0 0.213 0.107 0.32t0.267 0.107 0.267-0.107 0.107-0.32v-1.707q0-0.213-0.107-0.32t-0.213-0.107zM17.387 18.347q0-0.32-0.213-0.64l-0.853-4.907q0-0.32-0.32-0.32v0q-0.32 0-0.32 0.32l-0.96 5.013q-0.107 0.32-0.053 0.747t0.373 0.747 0.693 0.373 0.747-0.107 0.64-0.48 0.267-0.747zM16 15.147l0.32 1.92q-0.32-0.107-0.64 0zM15.36 18.347q0-0.213 0.213-0.427t0.427-0.213 0.427 0.213 0.213 0.427-0.213 0.427-0.427 0.213-0.427-0.213-0.213-0.427zM24.107 18.347h1.813q0.107 0 0.213-0.107t0.107-0.267-0.107-0.267-0.213-0.107h-1.813q-0.107 0-0.213 0.107t-0.107 0.267 0.107 0.267 0.213 0.107zM7.893 17.707h-1.813q-0.107 0-0.213 0.107t-0.107 0.267 0.107 0.267 0.213 0.107h1.813q0.107 0 0.213-0.107t0.107-0.267-0.107-0.267-0.213-0.107zM21.76 12.587q0.107 0 0.213-0.107l1.28-1.28q0.107-0.107 0.107-0.267t-0.107-0.267-0.267-0.107-0.267 0.107l-1.28 1.28q-0.213 0.213-0.107 0.427t0.427 0.213zM10.027 23.467l-1.28 1.28q-0.107 0.107-0.053 0.32t0.267 0.267 0.32-0.053l1.28-1.28q0.107-0.107 0.107-0.267t-0.107-0.267-0.267-0.107-0.267 0.107zM22.080 23.467q-0.213-0.213-0.427-0.16t-0.267 0.267 0.16 0.427l1.173 1.173q0.213 0.213 0.427 0.16t0.267-0.267-0.16-0.427zM9.92 12.587q0.213 0.107 0.427 0.053t0.267-0.267-0.16-0.32l-1.173-1.28q-0.107-0.107-0.267-0.107t-0.267 0.107-0.107 0.267 0.107 0.267zM13.12 22.827q0.107 0.107 0.267 0.053t0.267-0.16 0.053-0.267-0.16-0.267q-1.707-1.067-2.24-2.987t0.427-3.627q0.107-0.213 0-0.373t-0.32-0.16-0.32 0.107q-1.173 2.027-0.533 4.267t2.56 3.413zM12.16 14.72q0.213 0 0.32-0.107l0.32-0.32q0.107-0.107 0.053-0.32t-0.213-0.267-0.373 0.053l-0.32 0.427q-0.213 0.107-0.107 0.32t0.32 0.213z"></path>
</svg>
