<!-- Generated by IcoMoon.io -->
<svg version="1.1" xmlns="http://www.w3.org/2000/svg" width="32" height="32" viewBox="0 0 32 32">
<title>-stopwatch-1</title>
<path d="M24.533 3.093l3.307 2.773q0.427 0.32 0.907 0.32t0.853-0.427 0.32-0.96-0.48-0.853l-3.307-2.773q-0.427-0.32-0.96-0.32t-0.853 0.427-0.267 0.96 0.48 0.853zM3.307 6.187q0.427 0 0.853-0.32l3.307-2.773q0.427-0.32 0.48-0.853t-0.267-0.96-0.853-0.427-0.96 0.32l-3.307 2.773q-0.427 0.32-0.48 0.853t0.32 0.96 0.907 0.427zM26.453 6.827q-1.92-1.92-4.267-2.987t-4.907-1.28v-1.28q0-0.533-0.373-0.907t-0.907-0.373-0.907 0.373-0.373 0.907v1.28q-2.56 0.213-4.907 1.28t-4.267 2.987q-2.027 2.133-3.147 4.8t-1.12 5.6 1.12 5.653 3.2 4.8 4.747 3.2 5.653 1.12q4.8 0 8.747-2.88 0.427-0.32 0.48-0.8t-0.213-0.907-0.8-0.533-0.96 0.213q-3.2 2.453-7.253 2.453-3.307 0-6.133-1.653t-4.48-4.48-1.653-6.133 1.653-6.133 4.48-4.48 6.133-1.653 6.133 1.653 4.48 4.48 1.653 6.027-1.493 5.973q-0.32 0.427-0.16 0.96t0.64 0.747 0.96 0.107 0.693-0.64q1.813-3.307 1.813-7.040 0-2.987-1.12-5.653t-3.147-4.8zM22.080 9.707q-0.427-0.32-0.907-0.267t-0.8 0.48l-3.947 4.907-0.427-0.107q-1.067 0-1.76 0.747t-0.693 1.76 0.693 1.76 1.76 0.747 1.76-0.747 0.693-1.707q0-0.533-0.107-0.96l3.947-4.8q0.32-0.427 0.267-0.96t-0.48-0.853z"></path>
</svg>
