<!-- Generated by IcoMoon.io -->
<svg version="1.1" xmlns="http://www.w3.org/2000/svg" width="32" height="32" viewBox="0 0 32 32">
<title>-support</title>
<path d="M16.64 32h-1.28q-1.493 0-2.613-1.12t-1.12-2.613v-0.64q0-0.32-0.32-0.427v0q-0.213-0.107-0.427 0.107l-0.427 0.427q-1.173 1.173-2.72 1.173t-2.613-1.173l-0.853-0.853q-1.173-1.067-1.173-2.613t1.173-2.72l0.427-0.427q0.213-0.213 0.107-0.427v0q-0.107-0.32-0.427-0.32h-0.64q-1.493 0-2.613-1.12t-1.12-2.613v-1.28q0-1.493 1.12-2.613t2.613-1.12h0.64q0.32 0 0.427-0.32v0q0.107-0.213-0.107-0.427l-0.427-0.427q-1.173-1.173-1.173-2.72t1.173-2.613l0.853-0.853q1.067-1.173 2.613-1.173t2.72 1.173l0.427 0.427q0.213 0.213 0.427 0.107v0q0.32-0.107 0.32-0.427v-0.64q0-1.493 1.12-2.613t2.613-1.12h1.28q1.493 0 2.613 1.12t1.12 2.613v0.64q0 0.32 0.32 0.427v0q0.213 0.107 0.427-0.107l0.427-0.427q1.173-1.173 2.72-1.173t2.613 1.173l0.853 0.853q1.173 1.067 1.173 2.613t-1.173 2.72l-0.427 0.427q-0.213 0.213-0.107 0.427v0q0.107 0.32 0.427 0.32h0.64q1.493 0 2.613 1.12t1.12 2.613v1.28q0 1.28-0.8 2.293t-1.973 1.333q-0.533 0.107-0.96-0.16t-0.587-0.747 0.107-0.96 0.747-0.587 0.747-0.427 0.267-0.747v-1.28q0-0.533-0.373-0.907t-0.907-0.373h-0.64q-0.853 0-1.6-0.48t-1.067-1.333v0q-0.427-0.747-0.213-1.653t0.747-1.547l0.533-0.427q0.32-0.32 0.32-0.853t-0.32-0.853l-0.96-0.96q-0.32-0.32-0.853-0.32t-0.853 0.32l-0.427 0.533q-0.64 0.533-1.547 0.747t-1.653-0.213v0q-0.853-0.32-1.333-1.067t-0.48-1.6v-0.64q0-0.533-0.373-0.907t-0.907-0.373h-1.28q-0.533 0-0.907 0.373t-0.373 0.907v0.64q0 0.853-0.48 1.6t-1.333 1.067v0q-0.747 0.427-1.653 0.213t-1.547-0.747l-0.427-0.533q-0.32-0.32-0.853-0.32t-0.853 0.32l-0.96 0.96q-0.32 0.32-0.32 0.853t0.32 0.853l0.533 0.427q0.533 0.64 0.747 1.547t-0.213 1.653v0q-0.32 0.853-1.067 1.333t-1.6 0.48h-0.64q-0.533 0-0.907 0.373t-0.373 0.907v1.28q0 0.533 0.373 0.907t0.907 0.373h0.64q0.853 0 1.6 0.48t1.067 1.333v0q0.427 0.747 0.213 1.653t-0.747 1.547l-0.533 0.427q-0.32 0.32-0.32 0.853t0.32 0.853l0.96 0.96q0.32 0.32 0.853 0.32t0.853-0.32l0.427-0.533q0.64-0.533 1.547-0.747t1.653 0.213v0q0.853 0.32 1.333 1.067t0.48 1.6v0.64q0 0.533 0.373 0.907t0.907 0.373h1.28q0.427 0 0.747-0.267t0.427-0.693 0.587-0.693 0.96-0.107 0.747 0.64 0.053 0.907q-0.32 1.173-1.333 1.92t-2.187 0.747zM30.933 30.827q1.067-1.067 1.067-2.56t-1.067-2.56l-8.107-8.107q0.64-1.28 0.64-2.453 0-2.56-1.813-4.373-1.067-1.067-2.667-1.653t-3.2-0.587h-0.107q-1.067 0-2.133 0.32-0.64 0.213-0.8 0.907t0.267 1.227l3.093 2.987-0.427 1.707-1.6 0.32-2.987-3.093q-0.533-0.427-1.227-0.267t-0.907 0.8q-0.427 1.173-0.427 2.24 0 1.387 0.427 2.72t1.173 2.4q0.96 1.28 2.24 1.92t2.773 0.64v0q1.28 0 2.56-0.533l8 8q1.173 1.067 2.667 1.067t2.56-1.067zM17.173 20.267q-0.32 0.213-0.96 0.427t-1.067 0.213q-1.813 0-2.987-1.6-0.853-1.173-1.067-2.773l1.707 1.707q0.533 0.533 1.173 0.32l2.987-0.64q0.853-0.213 0.96-0.96l0.747-3.093q0.107-0.64-0.32-1.067l-1.707-1.707q2.027 0.32 3.147 1.44t1.12 2.613q0 0.32-0.16 0.96t-0.48 1.013-0.267 0.8 0.373 0.853l8.747 8.64q0.427 0.427 0.427 0.907t-0.373 0.8-0.853 0.32-0.8-0.32l-8.747-8.747q-0.32-0.32-0.8-0.32t-0.8 0.213z"></path>
</svg>
