<!-- Generated by IcoMoon.io -->
<svg version="1.1" xmlns="http://www.w3.org/2000/svg" width="32" height="32" viewBox="0 0 32 32">
<title>-supplement</title>
<path d="M11.947 24.747q0.213 0 0.427-0.213l3.093-3.093q0.747-0.747 0.747-1.867t-0.8-1.92-1.867-0.8q-0.853 0-1.6 0.533-0.747-0.533-1.6-0.533-1.067 0-1.867 0.8t-0.8 1.92 0.747 1.867l3.093 3.093q0.213 0.213 0.427 0.213zM9.067 20.8q-0.427-0.533-0.427-1.28t0.48-1.227 1.227-0.48 1.28 0.533q0.107 0.107 0.32 0.107t0.32-0.107q0.533-0.533 1.28-0.533t1.227 0.48 0.48 1.227-0.533 1.28v0q-1.92 2.133-2.773 2.88-0.853-0.747-2.88-2.88v0zM25.387 7.787q-0.747-0.427-1.227-1.227t-0.48-1.653v-0.213h0.427q0.427 0 0.693-0.267t0.267-0.693v-2.773q0-0.427-0.267-0.693t-0.693-0.267h-16.213q-0.427 0-0.693 0.267t-0.267 0.693v2.773q0 0.427 0.267 0.693t0.693 0.267h0.427v0.213q0 0.853-0.48 1.653t-1.227 1.227q-1.067 0.533-1.707 1.547t-0.64 2.187v2.453q0 0.213 0.16 0.373t0.32 0.16 0.32-0.16 0.16-0.373v-0.533h21.547v13.973h-6.72q-0.213 0-0.32 0.16t-0.107 0.32 0.107 0.32 0.32 0.16h6.72v0.64q0 0.853-0.587 1.44t-1.44 0.587h-17.493q-0.853 0-1.44-0.587t-0.587-1.44v-0.64h12.8q0.213 0 0.32-0.16t0.107-0.32-0.107-0.32-0.32-0.16h-12.8v-11.413q0-0.213-0.16-0.32t-0.32-0.107-0.32 0.107-0.16 0.32v13.013q0 1.28 0.853 2.133t2.133 0.853h17.493q1.28 0 2.133-0.853t0.853-2.133v-17.493q0-1.173-0.64-2.187t-1.707-1.547zM5.227 12.48v-0.96q0-0.96 0.48-1.707t1.333-1.173q0.96-0.533 1.6-1.547t0.64-2.187v-0.213h10.667q0.213 0 0.373-0.16t0.16-0.32-0.16-0.32-0.373-0.16h-12.053v-2.773h0.96v1.387q0 0.213 0.107 0.32t0.32 0.107 0.373-0.107 0.16-0.32v-1.387h1.28v1.387q0 0.213 0.107 0.32t0.32 0.107 0.373-0.107 0.16-0.32v-1.387h1.28v1.387q0 0.213 0.107 0.32t0.32 0.107 0.32-0.107 0.107-0.32v-1.387h1.387v1.387q0 0.213 0.107 0.32t0.32 0.107 0.32-0.107 0.107-0.32v-1.387h1.387v1.387q0 0.213 0.107 0.32t0.32 0.107 0.32-0.107 0.107-0.32v-1.387h1.28v1.387q0 0.213 0.16 0.32t0.373 0.107 0.32-0.107 0.107-0.32v-1.387h1.28v1.387q0 0.213 0.16 0.32t0.373 0.107 0.32-0.107 0.107-0.32v-1.387h0.96v2.773h-2.133q-0.213 0-0.32 0.16t-0.107 0.32 0.107 0.32 0.32 0.16h0.747v0.213q0 1.173 0.64 2.187t1.6 1.547q0.853 0.427 1.333 1.173t0.48 1.707v0.96h-21.547zM18.773 18.56h3.947q0.64 0 1.013-0.373t0.373-0.96-0.373-1.013-1.013-0.427h-3.947q-0.533 0-0.96 0.427t-0.427 1.013 0.427 0.96 0.96 0.373zM18.773 16.747h3.947q0.213 0 0.373 0.107t0.16 0.32-0.16 0.373-0.373 0.16h-3.947q-0.107 0-0.267-0.16t-0.16-0.373 0.16-0.32 0.267-0.107zM18.773 22.080h3.947q0.64 0 1.013-0.427t0.373-1.013-0.373-1.013-1.013-0.427h-3.947q-0.533 0-0.96 0.427t-0.427 1.013 0.427 1.013 0.96 0.427zM18.773 20.16h3.947q0.213 0 0.373 0.16t0.16 0.32-0.16 0.32-0.373 0.16h-3.947q-0.107 0-0.267-0.16t-0.16-0.32 0.16-0.32 0.267-0.16zM18.773 25.493h3.947q0.64 0 1.013-0.373t0.373-0.96-0.373-1.013-1.013-0.427h-3.947q-0.533 0-0.96 0.427t-0.427 1.013 0.427 0.96 0.96 0.373zM18.773 23.68h3.947q0.213 0 0.373 0.107t0.16 0.32-0.16 0.373-0.373 0.16h-3.947q-0.107 0-0.267-0.16t-0.16-0.373 0.16-0.32 0.267-0.107z"></path>
</svg>
