<!-- Generated by IcoMoon.io -->
<svg version="1.1" xmlns="http://www.w3.org/2000/svg" width="32" height="32" viewBox="0 0 32 32">
<title>-telephone</title>
<path d="M25.387 30.613q2.027 0 3.413-1.387t1.707-3.947q0.213-1.387-0.64-2.56l-4.16-3.307q-0.96-0.64-2.133-0.587t-2.027 0.8l-1.707 1.6q-1.813-0.32-3.947-1.867t-3.627-3.467-1.6-3.627l1.707-1.813q0.747-0.96 0.8-2.133t-0.693-2.027l-3.307-4.16q-1.067-0.853-2.453-0.747-2.56 0.427-3.947 1.813t-1.387 3.413q0 6.613 3.2 12.107t8.693 8.693 12 3.2h0.107zM6.933 2.773h0.32q0.533 0 1.067 0.32l3.2 3.947q0.32 0.533 0.32 1.227t-0.427 1.227l-1.92 2.027q-0.107 0.213-0.107 0.533 0 2.027 1.653 4.373t4.16 4.107 4.747 2.080q0.32 0.107 0.533-0.107l2.027-1.92q0.533-0.427 1.227-0.427t1.227 0.32l3.947 3.2q0.427 0.64 0.32 1.387-0.32 1.813-1.067 2.88-1.067 1.387-2.773 1.387-6.187 0-11.413-3.040t-8.267-8.267-3.040-11.307q0-1.813 1.387-2.88 1.067-0.747 2.88-1.067z"></path>
</svg>
