<!-- Generated by IcoMoon.io -->
<svg version="1.1" xmlns="http://www.w3.org/2000/svg" width="32" height="32" viewBox="0 0 32 32">
<title>-timer</title>
<path d="M26.773 10.56l0.853-0.96q0.32-0.213 0.32-0.587t-0.32-0.587l-1.387-1.387q-0.213-0.213-0.587-0.213t-0.587 0.213l-0.853 0.96q-2.987-2.347-6.72-2.773v-0.853q0.96-0.747 0.96-1.813t-0.693-1.813-1.76-0.747-1.76 0.747-0.693 1.813 0.96 1.813v0.853q-1.387 0.213-2.56 0.64-0.213 0-0.32 0.16t-0.053 0.373 0.267 0.32 0.32 0q1.92-0.64 3.84-0.64 3.413 0 6.24 1.707t4.533 4.587 1.707 6.24-1.707 6.24-4.533 4.533-6.24 1.653-6.24-1.653-4.533-4.533-1.707-6.347 1.867-6.507 5.067-4.533q0.107-0.107 0.16-0.32t0-0.373-0.267-0.213-0.32 0.053q-1.173 0.533-2.133 1.387l-0.96-0.96q-0.213-0.213-0.587-0.213t-0.587 0.213l-1.387 1.387q-0.32 0.213-0.32 0.587t0.32 0.587l0.853 0.96-0.533 0.853q-2.133 3.307-2.133 7.147 0 2.667 1.013 5.12t2.933 4.373 4.373 2.933 5.12 1.013 5.12-1.013 4.373-2.933 2.933-4.373 1.013-5.12q0-4.48-2.667-8zM16 0.96q0.64 0 1.067 0.427t0.427 0.96-0.213 0.96l-0.213-0.32q-0.427-0.427-1.173-0.427t-1.173 0.747q-0.213-0.427-0.213-0.96t0.427-0.96 1.067-0.427zM15.36 5.227v-1.173q0-0.213 0.213-0.373t0.427-0.16 0.427 0.16 0.213 0.373v1.173h-1.28zM24.853 8.533l0.853-0.747 1.173 1.28-0.747 0.747zM5.12 9.067l1.173-1.28 0.853 0.747q-0.747 0.64-1.28 1.28zM21.867 8.64q-2.667-1.6-5.867-1.6v0q-3.093 0-5.76 1.547t-4.213 4.213-1.547 5.76 1.493 5.707 4.053 4.213h0.32t0.32-0.16 0.053-0.373-0.267-0.32q-2.24-1.387-3.627-3.787t-1.387-5.28 1.387-5.28 3.84-3.84 5.333-1.44 5.333 1.44 3.84 3.893q0.107 0.213 0.32 0.267t0.373-0.053 0.213-0.32-0.053-0.32q-1.493-2.667-4.16-4.267zM11.627 28.8q-0.107 0.107 0 0.32t0.213 0.213q2.027 0.747 4.267 0.747t4.32-0.853 3.733-2.507 2.507-3.733 0.853-4.427q0-1.92-0.64-3.84-0.107-0.107-0.267-0.213t-0.32-0.053-0.267 0.267 0 0.32q0.533 1.707 0.533 3.52 0 2.133-0.8 4.053t-2.293 3.467-3.413 2.347-3.947 0.8-3.947-0.747q-0.107-0.107-0.32 0t-0.213 0.32zM15.573 16.64q-0.747 0.213-1.12 0.747t-0.373 1.227 0.373 1.227 1.12 0.64v1.387q-0.427 0.107-0.693 0.48t-0.267 0.8v1.493q0 0.213 0.107 0.32t0.32 0.107h1.92q0.213 0 0.32-0.107t0.107-0.32v-1.493q0-0.427-0.267-0.8t-0.693-0.48v-1.387q0.747-0.107 1.12-0.64t0.373-1.227-0.373-1.227-1.12-0.747v-5.013q0-0.213-0.107-0.32t-0.32-0.107-0.32 0.107-0.107 0.32v5.013zM16.427 24.107h-0.853v-0.96q0-0.107 0.107-0.267t0.32-0.16 0.32 0.16 0.107 0.267v0.96zM17.067 18.56q0 0.427-0.32 0.747t-0.747 0.32-0.747-0.32-0.32-0.747 0.32-0.693 0.747-0.267 0.747 0.267 0.32 0.693zM16 9.92q0.213 0 0.32-0.107t0.107-0.32v-0.533q0-0.107-0.107-0.267t-0.32-0.16-0.32 0.16-0.107 0.267v0.533q0 0.213 0.107 0.32t0.32 0.107zM15.573 27.733v0.427q0 0.213 0.107 0.373t0.32 0.16 0.32-0.16 0.107-0.373v-0.427q0-0.213-0.107-0.373t-0.32-0.16-0.32 0.16-0.107 0.373zM22.4 12.587q0.213 0 0.32-0.107l0.427-0.32q0.107-0.107 0.107-0.32t-0.16-0.373-0.32-0.16-0.373 0.213l-0.32 0.32q-0.107 0.107-0.107 0.32t0.107 0.32 0.32 0.107zM8.853 25.707q0.213 0.107 0.373 0.107t0.373-0.107l0.32-0.32q0.107-0.213 0.107-0.373t-0.107-0.32-0.32-0.16-0.32 0.107l-0.427 0.427q-0.107 0.107-0.107 0.32t0.107 0.32zM25.6 19.093q0.213 0 0.32-0.16t0.107-0.373-0.107-0.32-0.32-0.107h-0.533q-0.213 0-0.32 0.107t-0.107 0.32 0.107 0.373 0.32 0.16h0.533zM6.4 18.133q-0.213 0-0.32 0.107t-0.107 0.32 0.107 0.373 0.32 0.16h0.533q0.213 0 0.32-0.16t0.107-0.373-0.107-0.32-0.32-0.107h-0.533zM22.080 25.387l0.32 0.32q0.213 0.107 0.373 0.107t0.32-0.107 0.16-0.32-0.107-0.32l-0.427-0.427q-0.107-0.107-0.32-0.107t-0.32 0.16-0.107 0.32 0.107 0.373zM9.28 12.48q0.107 0.107 0.32 0.107t0.32-0.107 0.107-0.32-0.107-0.32l-0.32-0.32q-0.213-0.213-0.373-0.213t-0.32 0.16-0.16 0.373 0.107 0.32z"></path>
</svg>
