<!-- Generated by IcoMoon.io -->
<svg version="1.1" xmlns="http://www.w3.org/2000/svg" width="32" height="32" viewBox="0 0 32 32">
<title>-wall-clock</title>
<path d="M28.693 23.787q-0.427-0.32-0.96-0.213t-0.853 0.427l-0.747 0.96q-0.32 0.32-0.267 0.853t0.427 0.853 0.907 0.32 0.853-0.427l0.853-1.067q0.32-0.32 0.213-0.853t-0.427-0.853zM30.72 17.92q-0.533-0.107-0.96 0.16t-0.533 0.8l-0.213 1.067q-0.213 0.533 0.053 1.013t0.693 0.587l0.427 0.107q0.427 0 0.747-0.267t0.427-0.693l0.32-1.28q0.107-0.533-0.16-0.96t-0.8-0.533zM22.613 27.84q-0.427 0.213-0.96 0.427t-0.693 0.693 0 0.907 0.48 0.64 0.64 0.213 0.533-0.107l1.28-0.64q0.427-0.213 0.587-0.747t-0.107-0.96-0.8-0.587-0.96 0.16zM14.72 5.973v9.493l-4.587 4.587q-0.32 0.427-0.32 0.907t0.373 0.853 0.853 0.373 0.907-0.32l4.907-5.013q0.427-0.32 0.427-0.853v-10.027q0-0.533-0.373-0.853t-0.907-0.32-0.907 0.32-0.373 0.853zM30.72 2.667q-0.533 0-0.853 0.373t-0.32 0.907v3.413q-2.24-3.413-5.813-5.387t-7.733-1.973q-3.2 0-6.133 1.227t-5.173 3.467-3.467 5.173-1.227 6.133 1.227 6.133 3.467 5.173 5.173 3.467 6.133 1.227l1.387-0.107q0.533 0 0.853-0.373t0.32-0.907-0.427-0.853-0.96-0.32l-1.173 0.107q-3.627 0-6.72-1.867t-4.96-4.96-1.867-6.72 1.867-6.72 4.96-4.96 6.72-1.867 6.72 1.813 4.907 4.907h-3.413q-0.533 0-0.907 0.32t-0.373 0.853 0.373 0.907 0.907 0.373h3.84q1.067 0 2.027-0.533l0.107-0.107q0.853-0.533 1.333-1.44t0.48-1.973v-3.627q0-0.533-0.373-0.907t-0.907-0.373z"></path>
</svg>
