<!-- Generated by IcoMoon.io -->
<svg version="1.1" xmlns="http://www.w3.org/2000/svg" width="32" height="32" viewBox="0 0 32 32">
<title>-water</title>
<path d="M7.147 29.333q0.107 0.853 0.693 1.44t1.44 0.587h8.853q0.853 0 1.493-0.587t0.64-1.44l1.493-14.933h0.107q1.387 0 2.613-0.693t1.92-1.92 0.693-2.507-0.64-2.347l-4.267-6.080q-0.107-0.213-0.32-0.213v0q-0.213 0-0.32 0.213l-3.947 5.44h-12.373q-0.107 0-0.267 0.107t-0.053 0.32zM19.52 29.227q0 0.64-0.427 1.013t-0.96 0.373h-8.853q-0.533 0-0.96-0.373t-0.427-1.013l-0.32-2.56q0.747 0.32 1.6 0.32t1.547-0.267 1.44-0.267 1.493 0.267 1.547 0.267 1.653-0.32q1.387-0.427 2.773 0l0.213 0.107zM20.267 21.867q-0.107 0-0.427-0.107-0.747-0.32-1.6-0.32t-1.6 0.267-1.44 0.267-1.44-0.267-1.6-0.267-1.6 0.32h-0.213q-0.213 0.107-0.213 0.32v0q0 0.213 0.16 0.32t0.373 0.107l0.107-0.107q0.64-0.213 1.387-0.213t1.493 0.267 1.547 0.267 1.653-0.32q1.387-0.427 2.773 0l0.64 0.213-0.427 3.413v-0.107q-0.747-0.213-1.6-0.213t-1.6 0.267-1.44 0.267-1.44-0.267-1.6-0.267-1.6 0.267-1.44 0.267-1.333-0.32h-0.213l-0.427-3.627 0.747 0.213q0.213 0.107 0.373 0t0.16-0.32v0q0-0.32-0.32-0.32l-0.96-0.32-0.427-3.52q0.427 0 0.747 0.107 0.853 0.32 1.707 0.32t1.547-0.267 1.44-0.267 1.493 0.267 1.547 0.267 1.653-0.32q1.387-0.427 2.773 0 0.533 0.213 1.067 0.32zM17.813 7.253l4.053-5.547 3.947 5.653q0.64 0.853 0.587 1.92t-0.64 2.133-1.6 1.653-2.293 0.587-2.293-0.587-1.6-1.653-0.64-2.133 0.48-2.027zM17.173 7.040q-0.64 1.067-0.587 2.347t0.693 2.347 1.6 1.76 2.133 0.907l-0.32 3.307-0.853-0.213q-0.747-0.32-1.6-0.32t-1.6 0.267-1.44 0.267-1.44-0.267-1.6-0.267-1.6 0.267-1.44 0.267-1.28-0.213-1.227-0.213l-0.96-10.24h11.52zM18.56 10.987q0.533 0.853 1.387 1.387t1.92 0.533q0.107 0 0.213-0.107t0.107-0.267-0.107-0.267-0.213-0.107q-0.853 0-1.547-0.427t-1.067-1.013-0.373-1.227q0-0.107-0.16-0.213t-0.32-0.107-0.213 0.107-0.053 0.32q0 0.747 0.427 1.387zM18.56 8.64q0.107 0 0.267-0.053t0.16-0.16l0.213-0.427v-0.267t-0.16-0.213-0.32 0-0.16 0.16l-0.213 0.427q-0.107 0.107-0.053 0.267t0.267 0.267z"></path>
</svg>
