<!-- Generated by IcoMoon.io -->
<svg version="1.1" xmlns="http://www.w3.org/2000/svg" width="32" height="32" viewBox="0 0 32 32">
<title>-weights</title>
<path d="M5.333 18.667q-0.213 0-0.373 0.16t-0.16 0.373v8.533q0 0.213 0.16 0.373t0.373 0.16 0.373-0.16 0.16-0.373v-8.533q0-0.213-0.16-0.373t-0.373-0.16zM9.92 18.773q-0.213-0.107-0.427-0.053t-0.32 0.16l-2.667 4.267q-0.213 0.32 0 0.64l2.667 4.267q0.107 0.107 0.32 0.16t0.373-0.053 0.213-0.32-0.053-0.427l-2.453-3.947 2.453-3.947q0.107-0.213 0.053-0.427t-0.16-0.32zM17.067 23.467h-2.133q-0.213 0-0.373 0.16t-0.16 0.373 0.16 0.373 0.373 0.16h0.533v1.067q0 0.64-0.48 1.12t-1.12 0.48-1.12-0.48-0.48-1.12v-4.267q0-0.64 0.48-1.12t1.12-0.48 1.12 0.48 0.48 1.12q0 0.213 0.16 0.373t0.373 0.16 0.373-0.16 0.16-0.373q0-1.067-0.8-1.867t-1.867-0.8-1.867 0.8-0.8 1.867v4.267q0 1.067 0.8 1.867t1.867 0.8 1.867-0.8 0.8-1.867v-1.067h0.533q0.213 0 0.373-0.16t0.16-0.373-0.16-0.373-0.373-0.16zM29.653 11.733q0.96 0 1.653-0.693t0.693-1.707-0.693-1.707-1.76-0.693h-0.64q0.427-0.64 0.427-1.387 0-0.96-0.693-1.653t-1.76-0.693h-0.747v-1.6q0-0.64-0.48-1.12t-1.12-0.48h-2.133q-0.64 0-1.12 0.48t-0.48 1.12v1.6h-0.747q-1.067 0-1.76 0.693t-0.693 1.76q0 0.64 0.427 1.28h-0.64q-0.747 0-1.387 0.427-1.387-0.96-2.987-0.96h-5.227q-1.28 0-2.4 0.587t-1.867 1.6-0.907 2.24 0.267 2.4l1.173 3.093q-1.92 1.387-2.987 3.573t-1.067 4.64q0 2.773 1.387 4.747t3.947 2.72h10.133q1.387-0.427 2.453-1.227t1.813-1.973h1.067v1.6q0 0.64 0.48 1.12t1.12 0.48h2.133q0.64 0 1.12-0.48t0.48-1.12v-1.6h0.853q0.96 0 1.653-0.693t0.693-1.76q0-0.64-0.427-1.28h0.747q0.96 0 1.653-0.693t0.693-1.707-0.693-1.707-1.653-0.693h-3.52v-8.533h3.52zM21.867 1.6q0-0.213 0.16-0.373t0.373-0.16h2.133q0.213 0 0.373 0.16t0.16 0.373v1.6h-3.2v-1.6zM20.267 8q0.213 0 0.373-0.16t0.16-0.373-0.16-0.373-0.373-0.16h-0.107q-1.493 0-1.493-1.387 0-0.533 0.373-0.907t1.013-0.373h6.933q0.533 0 0.907 0.373t0.373 0.96-0.373 0.96-1.013 0.373h-3.947q-0.213 0-0.373 0.16t-0.16 0.373 0.16 0.373 0.373 0.16h6.72q0.533 0 0.907 0.373t0.373 0.96-0.373 0.96-1.013 0.373h-11.413q-0.213-1.173-0.853-2.133l-0.427-0.427q0.213-0.107 0.427-0.107h2.987zM19.84 20.267q-1.067-2.453-3.093-3.947l1.173-3.093q0.213-0.747 0.32-1.493h2.56v8.533h-0.96zM15.253 30.933h-9.707q-2.133-0.64-3.307-2.293t-1.173-4 1.067-4.373 2.88-3.413q0.32-0.213 0.213-0.533l-1.28-3.52q-0.427-0.853-0.267-1.867t0.747-1.813 1.493-1.227 1.867-0.427h5.227q0.96 0 1.867 0.427t1.493 1.227 0.747 1.813-0.267 1.867l-1.28 3.52q-0.107 0.32 0.213 0.533 1.813 1.387 2.88 3.413t1.067 4.373-1.173 4-3.307 2.293zM25.067 30.4q0 0.213-0.16 0.373t-0.373 0.16h-2.133q-0.213 0-0.373-0.16t-0.16-0.373v-1.6h3.2v1.6zM30.507 21.76q0.427 0.32 0.427 0.907t-0.373 0.96-0.907 0.373h-3.52q-0.213 0-0.373 0.16t-0.16 0.373 0.16 0.373 0.373 0.16h0.853q0.533 0 0.907 0.373t0.373 0.96-0.373 0.96-0.907 0.373h-6.72q0.427-1.28 0.533-2.667h2.667q0.213 0 0.373-0.16t0.16-0.373-0.16-0.373-0.373-0.16h-2.667q-0.107-1.387-0.533-2.667h9.387q0.533 0 0.853 0.427zM25.067 20.267h-3.2v-8.533h3.2v8.533zM8.32 15.467h4.16q0.533 0 0.907-0.267t0.587-0.8l0.96-2.347q0.32-0.853-0.267-1.653t-1.653-0.8h-5.227q-1.067 0-1.653 0.8t-0.267 1.653l0.96 2.347q0.213 0.533 0.587 0.8t0.907 0.267zM7.040 11.093q0.32-0.427 0.747-0.427h5.227q0.533 0 0.747 0.32t0.107 0.64l-0.853 2.453q-0.107 0.32-0.533 0.32h-4.16q-0.32 0-0.533-0.32l-0.853-2.453q-0.107-0.32 0.107-0.533z"></path>
</svg>
