<!-- Generated by IcoMoon.io -->
<svg version="1.1" xmlns="http://www.w3.org/2000/svg" width="32" height="32" viewBox="0 0 32 32">
<title>-weight-scale</title>
<path d="M28.267 2.56h-20.267q-0.213 0-0.32 0.16t-0.107 0.373 0.107 0.32 0.32 0.107h20.267q1.173 0 1.973 0.853t0.8 1.92v14.080q0 2.24-1.067 4.107t-2.933 2.933-4 1.067h-14.080q-2.133 0-4-1.067t-2.933-2.933-1.067-4.107v-14.080q0-1.067 0.8-1.92t1.973-0.853h2.24q0.213 0 0.373-0.107t0.16-0.32-0.16-0.373-0.373-0.16h-2.24q-1.493 0-2.613 1.12t-1.12 2.613v14.080q0 2.453 1.227 4.533t3.307 3.307 4.427 1.227h14.080q2.347 0 4.427-1.227t3.307-3.307 1.227-4.533v-14.080q0-1.493-1.12-2.613t-2.613-1.12zM30.080 6.293q0-0.747-0.533-1.28t-1.28-0.533h-24.533q-0.747 0-1.28 0.533t-0.533 1.28v14.080q0 2.347 1.28 4.16 0.213 0.213 0.373 0.213t0.32-0.107 0.16-0.267-0.107-0.373q-1.173-1.6-1.173-3.627v-14.080q0-0.32 0.267-0.587t0.693-0.267h24.533q0.427 0 0.693 0.267t0.267 0.587v1.067q0 0.213 0.107 0.373t0.32 0.16 0.32-0.16 0.107-0.373v-1.067zM5.333 25.387q-0.213-0.107-0.373-0.107t-0.32 0.16-0.107 0.373 0.16 0.32q1.92 1.387 4.267 1.387h14.080q1.92 0 3.52-0.96t2.56-2.613 0.96-3.573v-10.987q0-0.213-0.107-0.32t-0.32-0.107-0.32 0.107-0.107 0.32v10.987q0 1.707-0.853 3.147t-2.293 2.24-3.040 0.8h-14.080q-2.027 0-3.627-1.173zM22.080 10.88v-1.92q0-1.067-0.747-1.867t-1.813-0.8h-7.040q-1.067 0-1.813 0.8t-0.747 1.867v1.92q0 0.427 0.267 0.747t0.693 0.32h10.24q0.427 0 0.693-0.32t0.267-0.747zM10.88 10.88v-1.92q0-0.747 0.48-1.227t1.12-0.48h7.040q0.64 0 1.12 0.48t0.48 1.227v2.027h-3.627v-0.427q0-0.64-0.427-1.067t-1.067-0.427q-0.32 0-0.64 0.213l-1.493-1.493q-0.107-0.107-0.32-0.107t-0.32 0.107-0.107 0.32 0.107 0.32l1.493 1.493q-0.213 0.32-0.213 0.64v0.427h-3.627v-0.107zM15.467 10.987v-0.427q0-0.213 0.16-0.373t0.373-0.16 0.373 0.16 0.16 0.373v0.427h-1.067zM16 14.187q-0.533 0-0.96 0.373t-0.427 1.013v6.507q0 0.533 0.427 0.96t0.96 0.427 0.96-0.427 0.427-0.96v-6.507q0-0.64-0.427-1.013t-0.96-0.373zM16.427 22.080q0 0.213-0.107 0.32t-0.32 0.107-0.32-0.107-0.107-0.32v-6.507q0-0.213 0.107-0.32t0.32-0.107 0.32 0.107 0.107 0.32v6.507z"></path>
</svg>
