<!-- Generated by IcoMoon.io -->
<svg version="1.1" xmlns="http://www.w3.org/2000/svg" width="32" height="32" viewBox="0 0 32 32">
<title>-weight</title>
<path d="M31.36 13.76h-2.347v-3.413q0-0.64-0.48-1.12t-1.12-0.48h-1.387q-0.213 0-0.427 0.107-0.213-0.533-0.64-0.853t-0.96-0.32h-2.027q-0.747 0-1.227 0.48t-0.48 1.227v4.373h-9.067v-4.373q0-0.747-0.48-1.227t-1.227-0.48h-2.027q-0.533 0-0.96 0.32t-0.64 0.853q-0.213-0.107-0.427-0.107h-1.387q-0.64 0-1.12 0.48t-0.48 1.12v3.413h-1.813q-0.32 0-0.48 0.213t-0.16 0.427v3.2q0 0.213 0.16 0.427t0.48 0.213h1.813v3.413q0 0.64 0.48 1.12t1.12 0.48h1.387q0.213 0 0.427-0.107 0.213 0.533 0.64 0.853t0.96 0.32h2.027q0.747 0 1.227-0.48t0.48-1.227v-4.373h9.067v4.373q0 0.747 0.48 1.227t1.227 0.48h2.027q0.533 0 0.96-0.32t0.64-0.853q0.213 0.107 0.427 0.107h1.387q0.64 0 1.12-0.48t0.48-1.12v-3.413h2.347q0.32 0 0.48-0.213t0.16-0.427v-3.2q0-0.213-0.16-0.427t-0.48-0.213zM1.28 16.96v-1.92h1.173v1.92h-1.173zM5.44 21.973h-1.387q-0.107 0-0.267-0.107t-0.16-0.213v-11.307q0-0.107 0.16-0.213t0.267-0.107h1.387q0.107 0 0.213 0.107t0.107 0.213v11.307q0 0.107-0.107 0.213t-0.213 0.107zM9.92 22.613q0 0.213-0.107 0.32t-0.32 0.107h-2.027q-0.213 0-0.32-0.107t-0.107-0.32v-13.227q0-0.213 0.107-0.32t0.32-0.107h2.027q0.213 0 0.32 0.107t0.107 0.32v13.227zM11.2 16.96v-1.92h9.067v1.92h-9.067zM24.427 22.613q0 0.213-0.107 0.32t-0.32 0.107h-2.027q-0.213 0-0.32-0.107t-0.107-0.32v-13.227q0-0.213 0.107-0.32t0.32-0.107h2.027q0.213 0 0.32 0.107t0.107 0.32v13.227zM27.84 21.653q0 0.107-0.16 0.213t-0.267 0.107h-1.387q-0.107 0-0.213-0.107t-0.107-0.213v-11.307q0-0.107 0.107-0.213t0.213-0.107h1.387q0.107 0 0.267 0.107t0.16 0.213v11.307zM30.72 16.96h-1.707v-1.92h1.707v1.92z"></path>
</svg>
