<!-- Generated by IcoMoon.io -->
<svg version="1.1" xmlns="http://www.w3.org/2000/svg" width="32" height="32" viewBox="0 0 32 32">
<title>-weight-1</title>
<path d="M16 23.467q1.493 0 2.667-0.8t1.76-2.133 0.267-2.773-1.333-2.453-2.4-1.333-2.773 0.267-2.187 1.76-0.8 2.667q0 2.027 1.387 3.413t3.413 1.387zM11.947 18.667q0-1.173 0.64-2.133t1.707-1.493 2.24-0.373 2.027 0.907 1.227 1.867 0.053 2.293h-3.413v-2.56q0-0.213-0.16-0.32t-0.267-0.107-0.267 0.107-0.16 0.32v2.56h-3.413q-0.213-0.533-0.213-1.067zM19.627 20.48q-0.533 0.96-1.493 1.6t-2.133 0.64-2.133-0.64-1.493-1.6h7.253zM6.827 21.013q-0.32 0-0.64 0.213t-0.427 0.533-0.053 0.693 0.32 0.587 0.587 0.32 0.64-0.053 0.533-0.48 0.213-0.693-0.32-0.747-0.853-0.373zM6.827 22.613q-0.32 0-0.427-0.267t0.107-0.48 0.48-0.107 0.267 0.373-0.107 0.373-0.32 0.107zM25.173 23.36q0.32 0 0.64-0.213t0.427-0.533 0.053-0.64-0.32-0.587-0.587-0.32-0.64 0.053-0.533 0.427-0.213 0.747 0.32 0.747 0.853 0.32zM25.173 21.76q0.32 0 0.427 0.267t-0.107 0.48-0.48 0.107-0.267-0.373 0.107-0.373 0.32-0.107zM14.613 5.12h-8.107q-0.107 0-0.213 0.107t-0.107 0.267 0.107 0.267 0.213 0.107h8.107q0.213 0 0.32-0.107t0.107-0.267-0.107-0.267-0.32-0.107zM5.44 5.12h-0.32q-0.213 0-0.32 0.107t-0.107 0.267 0.107 0.267 0.32 0.107h0.32q0.107 0 0.213-0.107t0.107-0.267-0.107-0.267-0.213-0.107zM29.547 24.213l-4.48-9.493q-0.747-1.6-2.24-2.56t-3.2-0.96h-1.28v-3.093h7.893q1.28 0 2.133-0.853t0.853-2.133v-1.28q0-0.107-0.107-0.213t-0.213-0.107h-25.813q-0.107 0-0.213 0.107t-0.107 0.213v1.28q0 1.28 0.853 2.133t2.133 0.853h7.787v3.093h-1.173q-1.707 0-3.2 0.96t-2.24 2.56l-4.48 9.493q-0.747 0-1.28 0.48t-0.533 1.227v2.24q0 0.107 0.107 0.213t0.32 0.107h29.867q0.107 0 0.267-0.107t0.16-0.213v-2.24q0-0.747-0.533-1.227t-1.28-0.48zM5.76 7.36q-0.96 0-1.6-0.64t-0.64-1.6v-0.853h24.96v0.853q0 0.96-0.64 1.6t-1.6 0.64h-20.48zM17.6 8.107v3.093h-3.307v-3.093h3.307zM30.613 27.733h-29.227v-1.813q0-0.427 0.32-0.693t0.747-0.267h3.413q0.213 0 0.32-0.107t0.107-0.267-0.107-0.267-0.32-0.107h-2.56l4.267-9.173q0.64-1.387 1.973-2.187t2.827-0.907h7.253q1.493 0.107 2.827 0.907t1.973 2.187l4.267 9.173h-20.267q-0.213 0-0.32 0.107t-0.107 0.267 0.107 0.267 0.32 0.107h21.12q0.427 0 0.747 0.267t0.32 0.693v1.813z"></path>
</svg>
